MonaSans-CondensedBlackItalic.ufo
<glyph name="exclam" format="2">
  <advance width="229"/>
  <unicode hex="0021"/>
  <outline>
    <contour>
      <point x="67" y="232" type="line"/>
      <point x="146" y="232" type="line"/>
      <point x="250" y="507" type="line"/>
      <point x="297" y="729" type="line"/>
      <point x="122" y="729" type="line"/>
      <point x="76" y="507" type="line"/>
    </contour>
    <contour>
      <point x="67" y="-10" type="curve" smooth="yes"/>
      <point x="130" y="-10"/>
      <point x="172" y="27"/>
      <point x="172" y="82" type="curve" smooth="yes"/>
      <point x="172" y="131"/>
      <point x="139" y="164"/>
      <point x="82" y="164" type="curve" smooth="yes"/>
      <point x="19" y="164"/>
      <point x="-23" y="127"/>
      <point x="-23" y="72" type="curve" smooth="yes"/>
      <point x="-23" y="23"/>
      <point x="10" y="-10"/>
    </contour>
  </outline>
</glyph>
<glyph name="numbersign" format="2">
  <advance width="563"/>
  <unicode hex="0023"/>
  <outline>
    <contour>
      <point x="48" y="0" type="line"/>
      <point x="186" y="0" type="line"/>
      <point x="225" y="192" type="line"/>
      <point x="306" y="192" type="line"/>
      <point x="267" y="0" type="line"/>
      <point x="404" y="0" type="line"/>
      <point x="443" y="192" type="line"/>
      <point x="533" y="192" type="line"/>
      <point x="559" y="315" type="line"/>
      <point x="469" y="315" type="line"/>
      <point x="490" y="417" type="line"/>
      <point x="580" y="417" type="line"/>
      <point x="605" y="540" type="line"/>
      <point x="515" y="540" type="line"/>
      <point x="554" y="729" type="line"/>
      <point x="417" y="729" type="line"/>
      <point x="378" y="540" type="line"/>
      <point x="297" y="540" type="line"/>
      <point x="336" y="729" type="line"/>
      <point x="198" y="729" type="line"/>
      <point x="159" y="540" type="line"/>
      <point x="69" y="540" type="line"/>
      <point x="44" y="417" type="line"/>
      <point x="134" y="417" type="line"/>
      <point x="113" y="315" type="line"/>
      <point x="23" y="315" type="line"/>
      <point x="-3" y="192" type="line"/>
      <point x="87" y="192" type="line"/>
    </contour>
    <contour>
      <point x="251" y="315" type="line"/>
      <point x="272" y="417" type="line"/>
      <point x="353" y="417" type="line"/>
      <point x="332" y="315" type="line"/>
    </contour>
  </outline>
</glyph>
<glyph name="dollar" format="2">
  <advance width="456"/>
  <unicode hex="0024"/>
  <outline>
    <contour>
      <point x="200" y="9" type="curve" smooth="yes"/>
      <point x="326" y="9"/>
      <point x="398" y="72"/>
      <point x="423" y="202" type="curve" smooth="yes"/>
      <point x="446" y="319"/>
      <point x="386" y="380"/>
      <point x="318" y="433" type="curve" smooth="yes"/>
      <point x="262" y="476"/>
      <point x="247" y="495"/>
      <point x="253" y="537" type="curve" smooth="yes"/>
      <point x="258" y="573"/>
      <point x="273" y="590"/>
      <point x="299" y="589" type="curve" smooth="yes"/>
      <point x="324" y="588"/>
      <point x="338" y="570"/>
      <point x="326" y="505" type="curve"/>
      <point x="480" y="505" type="line"/>
      <point x="505" y="646"/>
      <point x="442" y="722"/>
      <point x="300" y="722" type="curve" smooth="yes"/>
      <point x="171" y="722"/>
      <point x="100" y="653"/>
      <point x="78" y="537" type="curve" smooth="yes"/>
      <point x="58" y="431"/>
      <point x="101" y="367"/>
      <point x="173" y="312" type="curve" smooth="yes"/>
      <point x="234" y="265"/>
      <point x="253" y="247"/>
      <point x="245" y="197" type="curve" smooth="yes"/>
      <point x="239" y="160"/>
      <point x="230" y="144"/>
      <point x="194" y="146" type="curve" smooth="yes"/>
      <point x="163" y="148"/>
      <point x="152" y="168"/>
      <point x="166" y="239" type="curve"/>
      <point x="11" y="239" type="line"/>
      <point x="-14" y="96"/>
      <point x="40" y="9"/>
    </contour>
    <contour>
      <point x="100" y="-85" type="line"/>
      <point x="205" y="-85" type="line"/>
      <point x="240" y="87" type="line"/>
      <point x="135" y="87" type="line"/>
    </contour>
    <contour>
      <point x="253" y="657" type="line"/>
      <point x="358" y="657" type="line"/>
      <point x="391" y="815" type="line"/>
      <point x="286" y="815" type="line"/>
    </contour>
  </outline>
</glyph>
<glyph name="percent" format="2">
  <advance width="716"/>
  <unicode hex="0025"/>
  <outline>
    <contour>
      <point x="88" y="0" type="line"/>
      <point x="204" y="0" type="line"/>
      <point x="666" y="729" type="line"/>
      <point x="550" y="729" type="line"/>
    </contour>
    <contour>
      <point x="184" y="352" type="curve" smooth="yes"/>
      <point x="258" y="352"/>
      <point x="312" y="388"/>
      <point x="342" y="533" type="curve" smooth="yes"/>
      <point x="366" y="651"/>
      <point x="335" y="729"/>
      <point x="227" y="729" type="curve" smooth="yes"/>
      <point x="148" y="729"/>
      <point x="96" y="680"/>
      <point x="70" y="552" type="curve" smooth="yes"/>
      <point x="45" y="432"/>
      <point x="73" y="352"/>
    </contour>
    <contour>
      <point x="190" y="449" type="curve" smooth="yes"/>
      <point x="167" y="449"/>
      <point x="170" y="466"/>
      <point x="185" y="540" type="curve" smooth="yes"/>
      <point x="200" y="613"/>
      <point x="207" y="632"/>
      <point x="222" y="632" type="curve" smooth="yes"/>
      <point x="245" y="632"/>
      <point x="242" y="615"/>
      <point x="227" y="541" type="curve" smooth="yes"/>
      <point x="212" y="468"/>
      <point x="205" y="449"/>
    </contour>
    <contour>
      <point x="526" y="-5" type="curve" smooth="yes"/>
      <point x="600" y="-5"/>
      <point x="654" y="31"/>
      <point x="684" y="176" type="curve" smooth="yes"/>
      <point x="708" y="294"/>
      <point x="677" y="372"/>
      <point x="569" y="372" type="curve" smooth="yes"/>
      <point x="490" y="372"/>
      <point x="438" y="323"/>
      <point x="412" y="195" type="curve" smooth="yes"/>
      <point x="387" y="75"/>
      <point x="415" y="-5"/>
    </contour>
    <contour>
      <point x="532" y="92" type="curve" smooth="yes"/>
      <point x="509" y="92"/>
      <point x="512" y="109"/>
      <point x="527" y="183" type="curve" smooth="yes"/>
      <point x="542" y="256"/>
      <point x="549" y="275"/>
      <point x="564" y="275" type="curve" smooth="yes"/>
      <point x="587" y="275"/>
      <point x="584" y="258"/>
      <point x="569" y="184" type="curve" smooth="yes"/>
      <point x="554" y="111"/>
      <point x="547" y="92"/>
    </contour>
  </outline>
</glyph>
<glyph name="ampersand" format="2">
  <advance width="606"/>
  <unicode hex="0026"/>
  <outline>
    <contour>
      <point x="458" y="-7" type="curve" smooth="yes"/>
      <point x="486" y="-7"/>
      <point x="515" y="-2"/>
      <point x="534" y="5" type="curve"/>
      <point x="564" y="151" type="line"/>
      <point x="548" y="147"/>
      <point x="533" y="145"/>
      <point x="519" y="145" type="curve" smooth="yes"/>
      <point x="471" y="145"/>
      <point x="441" y="160"/>
      <point x="402" y="243" type="curve" smooth="yes"/>
      <point x="305" y="448" type="line" smooth="yes"/>
      <point x="286" y="487"/>
      <point x="281" y="515"/>
      <point x="281" y="540" type="curve" smooth="yes"/>
      <point x="281" y="573"/>
      <point x="295" y="596"/>
      <point x="320" y="596" type="curve" smooth="yes"/>
      <point x="336" y="596"/>
      <point x="347" y="584"/>
      <point x="347" y="561" type="curve" smooth="yes"/>
      <point x="347" y="523"/>
      <point x="325" y="485"/>
      <point x="281" y="458" type="curve"/>
      <point x="322" y="370" type="line"/>
      <point x="425" y="402"/>
      <point x="493" y="485"/>
      <point x="493" y="581" type="curve" smooth="yes"/>
      <point x="493" y="676"/>
      <point x="427" y="739"/>
      <point x="329" y="739" type="curve" smooth="yes"/>
      <point x="207" y="739"/>
      <point x="128" y="654"/>
      <point x="128" y="531" type="curve" smooth="yes"/>
      <point x="128" y="474"/>
      <point x="143" y="403"/>
      <point x="189" y="302" type="curve" smooth="yes"/>
      <point x="251" y="165" type="line" smooth="yes"/>
      <point x="304" y="48"/>
      <point x="360" y="-7"/>
    </contour>
    <contour>
      <point x="167" y="-10" type="curve" smooth="yes"/>
      <point x="244" y="-10"/>
      <point x="315" y="17"/>
      <point x="350" y="66" type="curve"/>
      <point x="288" y="164" type="line"/>
      <point x="274" y="144"/>
      <point x="258" y="132"/>
      <point x="227" y="132" type="curve" smooth="yes"/>
      <point x="194" y="132"/>
      <point x="172" y="155"/>
      <point x="172" y="195" type="curve" smooth="yes"/>
      <point x="172" y="239"/>
      <point x="199" y="286"/>
      <point x="227" y="301" type="curve"/>
      <point x="179" y="416" type="line"/>
      <point x="72" y="371"/>
      <point x="-1" y="264"/>
      <point x="-1" y="164" type="curve" smooth="yes"/>
      <point x="-1" y="59"/>
      <point x="65" y="-10"/>
    </contour>
    <contour>
      <point x="428" y="142" type="line"/>
      <point x="460" y="180"/>
      <point x="492" y="223"/>
      <point x="511" y="265" type="curve"/>
      <point x="559" y="263" type="line"/>
      <point x="591" y="393" type="line"/>
      <point x="430" y="393" type="line"/>
      <point x="422" y="357" type="line"/>
      <point x="412" y="324"/>
      <point x="395" y="289"/>
      <point x="373" y="253" type="curve"/>
    </contour>
  </outline>
</glyph>
<glyph name="quotesingle" format="2">
  <advance width="184"/>
  <unicode hex="0027"/>
  <anchor x="-10" y="0" name="#entry"/>
  <anchor x="198" y="0" name="#exit"/>
  <outline>
    <contour>
      <point x="83" y="410" type="line"/>
      <point x="158" y="410" type="line"/>
      <point x="247" y="622" type="line"/>
      <point x="269" y="729" type="line"/>
      <point x="105" y="729" type="line"/>
      <point x="83" y="622" type="line"/>
    </contour>
  </outline>
</glyph>
<glyph name="parenleft" format="2">
  <advance width="315"/>
  <unicode hex="0028"/>
  <outline>
    <contour>
      <point x="66" y="-167" type="curve"/>
      <point x="212" y="-167" type="line"/>
      <point x="173" y="-68"/>
      <point x="161" y="128"/>
      <point x="196" y="309" type="curve" smooth="yes"/>
      <point x="237" y="524"/>
      <point x="339" y="712"/>
      <point x="412" y="793" type="curve"/>
      <point x="249" y="793" type="line"/>
      <point x="162" y="707"/>
      <point x="68" y="519"/>
      <point x="32" y="326" type="curve" smooth="yes"/>
      <point x="-5" y="129"/>
      <point x="12" y="-69"/>
    </contour>
  </outline>
</glyph>
<glyph name="asterisk" format="2">
  <advance width="295"/>
  <unicode hex="002A"/>
  <outline>
    <contour>
      <point x="172" y="444" type="line"/>
      <point x="245" y="444" type="line"/>
      <point x="246" y="487" type="line"/>
      <point x="233" y="548" type="line"/>
      <point x="278" y="504" type="line"/>
      <point x="315" y="483" type="line"/>
      <point x="352" y="546" type="line"/>
      <point x="317" y="567" type="line"/>
      <point x="256" y="586" type="line"/>
      <point x="318" y="605" type="line"/>
      <point x="355" y="626" type="line"/>
      <point x="322" y="689" type="line"/>
      <point x="283" y="668" type="line"/>
      <point x="235" y="624" type="line"/>
      <point x="253" y="686" type="line"/>
      <point x="255" y="729" type="line"/>
      <point x="182" y="729" type="line"/>
      <point x="180" y="686" type="line"/>
      <point x="194" y="624" type="line"/>
      <point x="149" y="668" type="line"/>
      <point x="112" y="689" type="line"/>
      <point x="74" y="626" type="line"/>
      <point x="110" y="605" type="line"/>
      <point x="171" y="586" type="line"/>
      <point x="109" y="567" type="line"/>
      <point x="71" y="546" type="line"/>
      <point x="105" y="483" type="line"/>
      <point x="143" y="504" type="line"/>
      <point x="191" y="548" type="line"/>
      <point x="173" y="487" type="line"/>
    </contour>
  </outline>
</glyph>
<glyph name="plus" format="2">
  <advance width="480"/>
  <unicode hex="002B"/>
  <outline>
    <contour>
      <point x="137" y="139" type="line"/>
      <point x="284" y="139" type="line"/>
      <point x="316" y="291" type="line"/>
      <point x="463" y="291" type="line"/>
      <point x="492" y="431" type="line"/>
      <point x="345" y="431" type="line"/>
      <point x="377" y="583" type="line"/>
      <point x="230" y="583" type="line"/>
      <point x="198" y="431" type="line"/>
      <point x="53" y="431" type="line"/>
      <point x="23" y="291" type="line"/>
      <point x="170" y="291" type="line"/>
    </contour>
  </outline>
</glyph>
<glyph name="comma" format="2">
  <advance width="218"/>
  <unicode hex="002C"/>
  <anchor x="-27" y="0" name="#entry"/>
  <anchor x="213" y="0" name="#exit"/>
  <anchor x="159" y="551" name="top"/>
  <outline>
    <contour>
      <point x="-105" y="-167" type="curve"/>
      <point x="6" y="-167" type="line"/>
      <point x="73" y="-122"/>
      <point x="164" y="-16"/>
      <point x="164" y="73" type="curve" smooth="yes"/>
      <point x="164" y="128"/>
      <point x="126" y="164"/>
      <point x="70" y="164" type="curve" smooth="yes"/>
      <point x="9" y="164"/>
      <point x="-32" y="127"/>
      <point x="-32" y="75" type="curve" smooth="yes"/>
      <point x="-32" y="30"/>
      <point x="3" y="-1"/>
      <point x="50" y="-1" type="curve" smooth="yes"/>
      <point x="62" y="-1"/>
      <point x="72" y="1"/>
      <point x="79" y="4" type="curve"/>
      <point x="63" y="17" type="line"/>
      <point x="38" y="-38"/>
      <point x="-23" y="-108"/>
    </contour>
  </outline>
</glyph>
<glyph name="hyphen" format="2">
  <advance width="348"/>
  <unicode hex="002D"/>
  <outline>
    <contour>
      <point x="3" y="191" type="line"/>
      <point x="313" y="191" type="line"/>
      <point x="347" y="351" type="line"/>
      <point x="36" y="351" type="line"/>
    </contour>
  </outline>
</glyph>
<glyph name="period" format="2">
  <advance width="211"/>
  <unicode hex="002E"/>
  <anchor x="-73" y="0" name="#entry"/>
  <anchor x="172" y="0" name="#exit"/>
  <anchor x="81" y="164" name="_top"/>
  <anchor x="162" y="551" name="top"/>
  <outline>
    <contour>
      <point x="58" y="-10" type="curve" smooth="yes"/>
      <point x="121" y="-10"/>
      <point x="163" y="27"/>
      <point x="163" y="82" type="curve" smooth="yes"/>
      <point x="163" y="131"/>
      <point x="130" y="164"/>
      <point x="73" y="164" type="curve" smooth="yes"/>
      <point x="10" y="164"/>
      <point x="-32" y="127"/>
      <point x="-32" y="72" type="curve" smooth="yes"/>
      <point x="-32" y="23"/>
      <point x="1" y="-10"/>
    </contour>
  </outline>
</glyph>
<glyph name="slash" format="2">
  <advance width="374"/>
  <unicode hex="002F"/>
  <outline>
    <contour>
      <point x="-75" y="-82" type="line"/>
      <point x="93" y="-82" type="line"/>
      <point x="471" y="729" type="line"/>
      <point x="301" y="729" type="line"/>
    </contour>
  </outline>
</glyph>
<glyph name="zero" format="2">
  <advance width="487"/>
  <unicode hex="0030"/>
  <outline>
    <contour>
      <point x="211" y="-10" type="curve" smooth="yes"/>
      <point x="334" y="-10"/>
      <point x="432" y="78"/>
      <point x="487" y="342" type="curve" smooth="yes"/>
      <point x="532" y="560"/>
      <point x="512" y="729"/>
      <point x="314" y="729" type="curve" smooth="yes"/>
      <point x="183" y="729"/>
      <point x="89" y="628"/>
      <point x="38" y="381" type="curve" smooth="yes"/>
      <point x="-8" y="159"/>
      <point x="12" y="-10"/>
    </contour>
    <contour>
      <point x="221" y="140" type="curve" smooth="yes"/>
      <point x="169" y="140"/>
      <point x="184" y="224"/>
      <point x="214" y="365" type="curve" smooth="yes"/>
      <point x="246" y="522"/>
      <point x="266" y="579"/>
      <point x="303" y="579" type="curve" smooth="yes"/>
      <point x="355" y="579"/>
      <point x="340" y="495"/>
      <point x="310" y="354" type="curve" smooth="yes"/>
      <point x="278" y="197"/>
      <point x="258" y="140"/>
    </contour>
  </outline>
</glyph>
<glyph name="one" format="2">
  <advance width="356"/>
  <unicode hex="0031"/>
  <outline>
    <contour>
      <point x="90" y="0" type="line"/>
      <point x="268" y="0" type="line"/>
      <point x="420" y="721" type="line"/>
      <point x="256" y="721" type="line"/>
      <point x="232" y="643"/>
      <point x="173" y="591"/>
      <point x="111" y="591" type="curve" smooth="yes"/>
      <point x="79" y="591" type="line"/>
      <point x="48" y="446" type="line"/>
      <point x="184" y="446" type="line"/>
    </contour>
  </outline>
</glyph>
<glyph name="two" format="2">
  <advance width="458"/>
  <unicode hex="0032"/>
  <outline>
    <contour>
      <point x="-32" y="0" type="line"/>
      <point x="386" y="0" type="line"/>
      <point x="417" y="148" type="line"/>
      <point x="222" y="148" type="line"/>
      <point x="242" y="204"/>
      <point x="452" y="331"/>
      <point x="487" y="500" type="curve" smooth="yes"/>
      <point x="518" y="650"/>
      <point x="444" y="730"/>
      <point x="296" y="730" type="curve" smooth="yes"/>
      <point x="166" y="730"/>
      <point x="81" y="636"/>
      <point x="58" y="485" type="curve"/>
      <point x="234" y="485" type="line"/>
      <point x="242" y="550"/>
      <point x="260" y="580"/>
      <point x="285" y="580" type="curve" smooth="yes"/>
      <point x="317" y="580"/>
      <point x="318" y="550"/>
      <point x="310" y="513" type="curve" smooth="yes"/>
      <point x="285" y="393"/>
      <point x="15" y="238"/>
      <point x="-21" y="57" type="curve" smooth="yes"/>
    </contour>
  </outline>
</glyph>
<glyph name="three" format="2">
  <advance width="471"/>
  <unicode hex="0033"/>
  <outline>
    <contour>
      <point x="201" y="-9" type="curve" smooth="yes"/>
      <point x="321" y="-9"/>
      <point x="415" y="62"/>
      <point x="441" y="189" type="curve" smooth="yes"/>
      <point x="456" y="259"/>
      <point x="446" y="332"/>
      <point x="374" y="358" type="curve"/>
      <point x="375" y="365" type="line"/>
      <point x="456" y="385"/>
      <point x="500" y="472"/>
      <point x="502" y="554" type="curve" smooth="yes"/>
      <point x="506" y="659"/>
      <point x="438" y="729"/>
      <point x="307" y="729" type="curve" smooth="yes"/>
      <point x="184" y="729"/>
      <point x="93" y="653"/>
      <point x="71" y="510" type="curve"/>
      <point x="245" y="510" type="line"/>
      <point x="255" y="557"/>
      <point x="273" y="580"/>
      <point x="292" y="580" type="curve" smooth="yes"/>
      <point x="328" y="580"/>
      <point x="330" y="551"/>
      <point x="319" y="501" type="curve" smooth="yes"/>
      <point x="311" y="460"/>
      <point x="291" y="433"/>
      <point x="236" y="433" type="curve" smooth="yes"/>
      <point x="190" y="433" type="line"/>
      <point x="163" y="302" type="line"/>
      <point x="215" y="302" type="line" smooth="yes"/>
      <point x="270" y="302"/>
      <point x="277" y="262"/>
      <point x="268" y="214" type="curve" smooth="yes"/>
      <point x="257" y="162"/>
      <point x="240" y="141"/>
      <point x="211" y="141" type="curve" smooth="yes"/>
      <point x="171" y="141"/>
      <point x="174" y="187"/>
      <point x="184" y="237" type="curve"/>
      <point x="5" y="237" type="line"/>
      <point x="-29" y="77"/>
      <point x="40" y="-9"/>
    </contour>
  </outline>
</glyph>
<glyph name="four" format="2">
  <advance width="511"/>
  <unicode hex="0034"/>
  <outline>
    <contour>
      <point x="198" y="0" type="line"/>
      <point x="376" y="0" type="line"/>
      <point x="528" y="721" type="line"/>
      <point x="314" y="721" type="line"/>
      <point x="18" y="293" type="line"/>
      <point x="-11" y="152" type="line"/>
      <point x="473" y="152" type="line"/>
      <point x="507" y="307" type="line"/>
      <point x="178" y="307" type="line"/>
      <point x="304" y="500" type="line"/>
      <point x="303" y="500" type="line"/>
    </contour>
  </outline>
</glyph>
<glyph name="five" format="2">
  <advance width="468"/>
  <unicode hex="0035"/>
  <outline>
    <contour>
      <point x="200" y="-9" type="curve" smooth="yes"/>
      <point x="320" y="-9"/>
      <point x="411" y="66"/>
      <point x="446" y="229" type="curve" smooth="yes"/>
      <point x="474" y="366"/>
      <point x="440" y="485"/>
      <point x="314" y="485" type="curve" smooth="yes"/>
      <point x="282" y="486"/>
      <point x="253" y="473"/>
      <point x="239" y="457" type="curve"/>
      <point x="232" y="460" type="line"/>
      <point x="263" y="569" type="line"/>
      <point x="478" y="569" type="line"/>
      <point x="510" y="721" type="line"/>
      <point x="132" y="721" type="line"/>
      <point x="21" y="281" type="line"/>
      <point x="195" y="281" type="line"/>
      <point x="204" y="317"/>
      <point x="222" y="342"/>
      <point x="245" y="342" type="curve" smooth="yes"/>
      <point x="282" y="342"/>
      <point x="279" y="291"/>
      <point x="269" y="239" type="curve" smooth="yes"/>
      <point x="256" y="174"/>
      <point x="238" y="141"/>
      <point x="207" y="141" type="curve" smooth="yes"/>
      <point x="170" y="141"/>
      <point x="172" y="181"/>
      <point x="179" y="219" type="curve"/>
      <point x="3" y="219" type="line"/>
      <point x="-15" y="82"/>
      <point x="36" y="-9"/>
    </contour>
  </outline>
</glyph>
<glyph name="six" format="2">
  <advance width="486"/>
  <unicode hex="0036"/>
  <outline>
    <contour>
      <point x="220" y="-9" type="curve" smooth="yes"/>
      <point x="337" y="-9"/>
      <point x="429" y="64"/>
      <point x="462" y="223" type="curve" smooth="yes"/>
      <point x="490" y="356"/>
      <point x="467" y="467"/>
      <point x="353" y="477" type="curve" smooth="yes"/>
      <point x="308" y="481"/>
      <point x="264" y="462"/>
      <point x="244" y="430" type="curve"/>
      <point x="235" y="430" type="line"/>
      <point x="252" y="521"/>
      <point x="272" y="579"/>
      <point x="311" y="579" type="curve" smooth="yes"/>
      <point x="339" y="579"/>
      <point x="349" y="554"/>
      <point x="345" y="525" type="curve"/>
      <point x="514" y="525" type="line"/>
      <point x="529" y="656"/>
      <point x="454" y="729"/>
      <point x="317" y="729" type="curve" smooth="yes"/>
      <point x="193" y="729"/>
      <point x="94" y="649"/>
      <point x="37" y="372" type="curve" smooth="yes"/>
      <point x="-10" y="152"/>
      <point x="8" y="-9"/>
    </contour>
    <contour>
      <point x="229" y="140" type="curve" smooth="yes"/>
      <point x="190" y="140"/>
      <point x="195" y="188"/>
      <point x="207" y="247" type="curve" smooth="yes"/>
      <point x="220" y="309"/>
      <point x="234" y="341"/>
      <point x="263" y="341" type="curve" smooth="yes"/>
      <point x="301" y="341"/>
      <point x="297" y="295"/>
      <point x="285" y="234" type="curve" smooth="yes"/>
      <point x="273" y="176"/>
      <point x="258" y="140"/>
    </contour>
  </outline>
</glyph>
<glyph name="seven" format="2">
  <advance width="480"/>
  <unicode hex="0037"/>
  <outline>
    <contour>
      <point x="105" y="0" type="curve"/>
      <point x="285" y="0" type="line"/>
      <point x="339" y="283"/>
      <point x="406" y="392"/>
      <point x="531" y="582" type="curve"/>
      <point x="561" y="721" type="line"/>
      <point x="110" y="721" type="line"/>
      <point x="52" y="445" type="line"/>
      <point x="202" y="445" type="line"/>
      <point x="224" y="555" type="line"/>
      <point x="350" y="555" type="line"/>
      <point x="218" y="381"/>
      <point x="142" y="201"/>
    </contour>
  </outline>
</glyph>
<glyph name="eight" format="2">
  <advance width="462"/>
  <unicode hex="0038"/>
  <outline>
    <contour>
      <point x="201" y="-10" type="curve" smooth="yes"/>
      <point x="322" y="-10"/>
      <point x="405" y="63"/>
      <point x="428" y="171" type="curve" smooth="yes"/>
      <point x="443" y="245"/>
      <point x="422" y="322"/>
      <point x="373" y="349" type="curve"/>
      <point x="374" y="357" type="line"/>
      <point x="433" y="378"/>
      <point x="476" y="438"/>
      <point x="487" y="506" type="curve" smooth="yes"/>
      <point x="510" y="649"/>
      <point x="433" y="729"/>
      <point x="299" y="729" type="curve" smooth="yes"/>
      <point x="183" y="729"/>
      <point x="104" y="660"/>
      <point x="81" y="550" type="curve" smooth="yes"/>
      <point x="68" y="488"/>
      <point x="84" y="410"/>
      <point x="126" y="381" type="curve"/>
      <point x="126" y="373" type="line"/>
      <point x="69" y="356"/>
      <point x="18" y="297"/>
      <point x="2" y="216" type="curve" smooth="yes"/>
      <point x="-27" y="78"/>
      <point x="51" y="-10"/>
    </contour>
    <contour>
      <point x="205" y="134" type="curve" smooth="yes"/>
      <point x="172" y="134"/>
      <point x="171" y="175"/>
      <point x="180" y="215" type="curve" smooth="yes"/>
      <point x="190" y="263"/>
      <point x="203" y="290"/>
      <point x="231" y="290" type="curve" smooth="yes"/>
      <point x="265" y="290"/>
      <point x="266" y="258"/>
      <point x="256" y="207" type="curve" smooth="yes"/>
      <point x="245" y="156"/>
      <point x="226" y="134"/>
    </contour>
    <contour>
      <point x="269" y="436" type="curve" smooth="yes"/>
      <point x="236" y="436"/>
      <point x="236" y="469"/>
      <point x="246" y="516" type="curve" smooth="yes"/>
      <point x="255" y="558"/>
      <point x="267" y="585"/>
      <point x="294" y="585" type="curve" smooth="yes"/>
      <point x="325" y="585"/>
      <point x="324" y="551"/>
      <point x="316" y="510" type="curve" smooth="yes"/>
      <point x="304" y="451"/>
      <point x="288" y="436"/>
    </contour>
  </outline>
</glyph>
<glyph name="equal" format="2">
  <advance width="480"/>
  <unicode hex="003D"/>
  <anchor x="259" y="366" name="center"/>
  <outline>
    <contour>
      <point x="48" y="411" type="line"/>
      <point x="488" y="411" type="line"/>
      <point x="517" y="551" type="line"/>
      <point x="78" y="551" type="line"/>
    </contour>
    <contour>
      <point x="-2" y="171" type="line"/>
      <point x="438" y="171" type="line"/>
      <point x="467" y="311" type="line"/>
      <point x="28" y="311" type="line"/>
    </contour>
  </outline>
</glyph>
<glyph name="greater" format="2">
  <advance width="480"/>
  <unicode hex="003E"/>
  <outline>
    <contour>
      <point x="-14" y="77" type="line"/>
      <point x="455" y="252" type="line"/>
      <point x="500" y="466" type="line"/>
      <point x="106" y="644" type="line"/>
      <point x="65" y="453" type="line"/>
      <point x="287" y="366" type="line"/>
      <point x="283" y="352" type="line"/>
      <point x="27" y="268" type="line"/>
    </contour>
  </outline>
</glyph>
<glyph name="question" format="2">
  <advance width="442"/>
  <unicode hex="003F"/>
  <outline>
    <contour>
      <point x="134" y="223" type="line"/>
      <point x="289" y="223" type="line"/>
      <point x="290" y="227" type="line" smooth="yes"/>
      <point x="315" y="326"/>
      <point x="453" y="392"/>
      <point x="483" y="534" type="curve" smooth="yes"/>
      <point x="511" y="669"/>
      <point x="432" y="738"/>
      <point x="293" y="738" type="curve" smooth="yes"/>
      <point x="176" y="738"/>
      <point x="88" y="670"/>
      <point x="65" y="514" type="curve"/>
      <point x="222" y="514" type="line"/>
      <point x="231" y="560"/>
      <point x="250" y="583"/>
      <point x="277" y="583" type="curve" smooth="yes"/>
      <point x="307" y="583"/>
      <point x="315" y="561"/>
      <point x="306" y="521" type="curve" smooth="yes"/>
      <point x="290" y="441"/>
      <point x="166" y="377"/>
      <point x="140" y="252" type="curve" smooth="yes"/>
    </contour>
    <contour>
      <point x="178" y="-10" type="curve" smooth="yes"/>
      <point x="241" y="-10"/>
      <point x="283" y="27"/>
      <point x="283" y="82" type="curve" smooth="yes"/>
      <point x="283" y="131"/>
      <point x="250" y="164"/>
      <point x="193" y="164" type="curve" smooth="yes"/>
      <point x="130" y="164"/>
      <point x="88" y="127"/>
      <point x="88" y="72" type="curve" smooth="yes"/>
      <point x="88" y="23"/>
      <point x="121" y="-10"/>
    </contour>
  </outline>
</glyph>
<glyph name="at" format="2">
  <advance width="691"/>
  <unicode hex="0040"/>
  <outline>
    <contour>
      <point x="308" y="-102" type="curve" smooth="yes"/>
      <point x="385" y="-102"/>
      <point x="453" y="-78"/>
      <point x="499" y="-37" type="curve"/>
      <point x="474" y="54" type="line"/>
      <point x="438" y="24"/>
      <point x="395" y="4"/>
      <point x="340" y="4" type="curve" smooth="yes"/>
      <point x="170" y="4"/>
      <point x="112" y="146"/>
      <point x="151" y="332" type="curve" smooth="yes"/>
      <point x="187" y="503"/>
      <point x="274" y="630"/>
      <point x="408" y="630" type="curve" smooth="yes"/>
      <point x="561" y="630"/>
      <point x="606" y="498"/>
      <point x="572" y="329" type="curve" smooth="yes"/>
      <point x="556" y="256"/>
      <point x="531" y="195"/>
      <point x="497" y="195" type="curve" smooth="yes"/>
      <point x="462" y="195"/>
      <point x="473" y="251"/>
      <point x="486" y="299" type="curve" smooth="yes"/>
      <point x="538" y="490" type="line"/>
      <point x="469" y="497" type="line"/>
      <point x="447" y="452" type="line"/>
      <point x="441" y="452" type="line"/>
      <point x="434" y="490"/>
      <point x="414" y="515"/>
      <point x="364" y="515" type="curve" smooth="yes"/>
      <point x="293" y="515"/>
      <point x="229" y="448"/>
      <point x="201" y="316" type="curve" smooth="yes"/>
      <point x="179" y="206"/>
      <point x="192" y="111"/>
      <point x="289" y="111" type="curve" smooth="yes"/>
      <point x="336" y="111"/>
      <point x="364" y="140"/>
      <point x="378" y="171" type="curve"/>
      <point x="387" y="170" type="line"/>
      <point x="389" y="128"/>
      <point x="424" y="89"/>
      <point x="485" y="89" type="curve" smooth="yes"/>
      <point x="574" y="89"/>
      <point x="655" y="185"/>
      <point x="687" y="338" type="curve" smooth="yes"/>
      <point x="732" y="560"/>
      <point x="633" y="737"/>
      <point x="421" y="737" type="curve" smooth="yes"/>
      <point x="241" y="737"/>
      <point x="84" y="585"/>
      <point x="33" y="340" type="curve" smooth="yes"/>
      <point x="-20" y="91"/>
      <point x="69" y="-102"/>
    </contour>
    <contour>
      <point x="328" y="210" type="curve" smooth="yes"/>
      <point x="297" y="210"/>
      <point x="299" y="258"/>
      <point x="310" y="308" type="curve" smooth="yes"/>
      <point x="323" y="371"/>
      <point x="340" y="412"/>
      <point x="368" y="412" type="curve" smooth="yes"/>
      <point x="402" y="412"/>
      <point x="397" y="358"/>
      <point x="389" y="306" type="curve"/>
      <point x="374" y="247"/>
      <point x="355" y="210"/>
    </contour>
  </outline>
</glyph>
<glyph name="A" format="2">
  <advance width="498"/>
  <unicode hex="0041"/>
  <anchor x="205" y="0" name="bottom"/>
  <anchor x="432" y="0" name="ogonek"/>
  <anchor x="340" y="729" name="top"/>
  <outline>
    <contour>
      <point x="-46" y="0" type="line"/>
      <point x="133" y="0" type="line"/>
      <point x="276" y="490" type="line"/>
      <point x="301" y="583" type="line"/>
      <point x="309" y="583" type="line"/>
      <point x="300" y="490" type="line"/>
      <point x="260" y="0" type="line"/>
      <point x="432" y="0" type="line"/>
      <point x="459" y="729" type="line"/>
      <point x="220" y="729" type="line"/>
    </contour>
    <contour>
      <point x="152" y="120" type="line"/>
      <point x="283" y="120" type="line"/>
      <point x="295" y="260" type="line"/>
      <point x="196" y="260" type="line"/>
    </contour>
  </outline>
</glyph>
<glyph name="B" format="2">
  <advance width="468"/>
  <unicode hex="0042"/>
  <anchor x="187" y="0" name="bottom"/>
  <anchor x="338" y="729" name="top"/>
  <outline>
    <contour>
      <point x="-27" y="0" type="line"/>
      <point x="174" y="0" type="line" smooth="yes"/>
      <point x="358" y="0"/>
      <point x="444" y="114"/>
      <point x="444" y="242" type="curve" smooth="yes"/>
      <point x="444" y="306"/>
      <point x="408" y="363"/>
      <point x="352" y="374" type="curve"/>
      <point x="353" y="381" type="line"/>
      <point x="440" y="397"/>
      <point x="499" y="476"/>
      <point x="499" y="576" type="curve" smooth="yes"/>
      <point x="499" y="668"/>
      <point x="444" y="729"/>
      <point x="325" y="729" type="curve" smooth="yes"/>
      <point x="125" y="729" type="line"/>
    </contour>
    <contour>
      <point x="180" y="141" type="line"/>
      <point x="275" y="590" type="line"/>
      <point x="290" y="590" type="line" smooth="yes"/>
      <point x="313" y="590"/>
      <point x="328" y="573"/>
      <point x="328" y="541" type="curve" smooth="yes"/>
      <point x="328" y="484"/>
      <point x="298" y="433"/>
      <point x="258" y="433" type="curve" smooth="yes"/>
      <point x="225" y="433" type="line"/>
      <point x="201" y="309" type="line"/>
      <point x="231" y="309" type="line" smooth="yes"/>
      <point x="258" y="309"/>
      <point x="271" y="292"/>
      <point x="271" y="260" type="curve" smooth="yes"/>
      <point x="271" y="193"/>
      <point x="242" y="141"/>
      <point x="199" y="141" type="curve" smooth="yes"/>
    </contour>
  </outline>
</glyph>
<glyph name="C" format="2">
  <advance width="476"/>
  <unicode hex="0043"/>
  <anchor x="206" y="0" name="bottom"/>
  <anchor x="341" y="729" name="top"/>
  <outline>
    <contour>
      <point x="204" y="-9" type="curve" smooth="yes"/>
      <point x="338" y="-9"/>
      <point x="422" y="73"/>
      <point x="463" y="270" type="curve"/>
      <point x="295" y="270" type="line"/>
      <point x="274" y="187"/>
      <point x="258" y="145"/>
      <point x="222" y="147" type="curve" smooth="yes"/>
      <point x="182" y="149"/>
      <point x="180" y="204"/>
      <point x="215" y="370" type="curve" smooth="yes"/>
      <point x="246" y="522"/>
      <point x="270" y="584"/>
      <point x="311" y="582" type="curve" smooth="yes"/>
      <point x="347" y="580"/>
      <point x="346" y="536"/>
      <point x="336" y="464" type="curve"/>
      <point x="502" y="464" type="line"/>
      <point x="528" y="641"/>
      <point x="483" y="739"/>
      <point x="322" y="739" type="curve" smooth="yes"/>
      <point x="170" y="739"/>
      <point x="88" y="616"/>
      <point x="39" y="382" type="curve" smooth="yes"/>
      <point x="-8" y="154"/>
      <point x="3" y="-9"/>
    </contour>
  </outline>
</glyph>
<glyph name="D" format="2">
  <advance width="488"/>
  <unicode hex="0044"/>
  <anchor x="200" y="0" name="bottom"/>
  <anchor x="138" y="365" name="center"/>
  <anchor x="301" y="729" name="top"/>
  <outline>
    <contour>
      <point x="-27" y="0" type="line"/>
      <point x="134" y="0" type="line" smooth="yes"/>
      <point x="380" y="0"/>
      <point x="450" y="148"/>
      <point x="491" y="360" type="curve" smooth="yes"/>
      <point x="539" y="612"/>
      <point x="467" y="729"/>
      <point x="267" y="729" type="curve" smooth="yes"/>
      <point x="124" y="729" type="line"/>
    </contour>
    <contour>
      <point x="184" y="157" type="line"/>
      <point x="270" y="572" type="line"/>
      <point x="285" y="572" type="line" smooth="yes"/>
      <point x="337" y="572"/>
      <point x="343" y="534"/>
      <point x="314" y="371" type="curve" smooth="yes"/>
      <point x="287" y="220"/>
      <point x="253" y="157"/>
      <point x="203" y="157" type="curve" smooth="yes"/>
    </contour>
  </outline>
</glyph>
<glyph name="E" format="2">
  <advance width="378"/>
  <unicode hex="0045"/>
  <anchor x="138" y="0" name="bottom"/>
  <anchor x="302" y="0" name="ogonek"/>
  <anchor x="289" y="729" name="top"/>
  <anchor x="125" y="729" name="topleft"/>
  <outline>
    <contour>
      <point x="-27" y="0" type="line"/>
      <point x="302" y="0" type="line"/>
      <point x="334" y="157" type="line"/>
      <point x="135" y="157" type="line"/>
      <point x="171" y="113" type="line"/>
      <point x="275" y="616" type="line"/>
      <point x="221" y="572" type="line"/>
      <point x="422" y="572" type="line"/>
      <point x="453" y="729" type="line"/>
      <point x="125" y="729" type="line"/>
    </contour>
    <contour>
      <point x="165" y="299" type="line"/>
      <point x="349" y="299" type="line"/>
      <point x="380" y="445" type="line"/>
      <point x="195" y="445" type="line"/>
    </contour>
  </outline>
</glyph>
<glyph name="F" format="2">
  <advance width="372"/>
  <unicode hex="0046"/>
  <anchor x="138" y="0" name="bottom"/>
  <anchor x="289" y="729" name="top"/>
  <outline>
    <contour>
      <point x="-27" y="0" type="line"/>
      <point x="158" y="0" type="line"/>
      <point x="285" y="616" type="line"/>
      <point x="231" y="572" type="line"/>
      <point x="420" y="572" type="line"/>
      <point x="454" y="729" type="line"/>
      <point x="125" y="729" type="line"/>
    </contour>
    <contour>
      <point x="154" y="271" type="line"/>
      <point x="342" y="271" type="line"/>
      <point x="373" y="420" type="line"/>
      <point x="185" y="420" type="line"/>
    </contour>
  </outline>
</glyph>
<glyph name="G" format="2">
  <advance width="499"/>
  <unicode hex="0047"/>
  <anchor x="187" y="0" name="bottom"/>
  <anchor x="325" y="729" name="top"/>
  <outline>
    <contour>
      <point x="166" y="-7" type="curve" smooth="yes"/>
      <point x="225" y="-7"/>
      <point x="274" y="17"/>
      <point x="313" y="88" type="curve"/>
      <point x="318" y="87" type="line"/>
      <point x="305" y="0" type="line"/>
      <point x="422" y="0" type="line"/>
      <point x="504" y="405" type="line"/>
      <point x="280" y="405" type="line"/>
      <point x="254" y="270" type="line"/>
      <point x="326" y="270" type="line"/>
      <point x="314" y="289" type="line"/>
      <point x="309" y="268" type="line" smooth="yes"/>
      <point x="287" y="176"/>
      <point x="265" y="146"/>
      <point x="232" y="146" type="curve" smooth="yes"/>
      <point x="170" y="146"/>
      <point x="188" y="245"/>
      <point x="216" y="375" type="curve" smooth="yes"/>
      <point x="248" y="532"/>
      <point x="275" y="581"/>
      <point x="314" y="581" type="curve" smooth="yes"/>
      <point x="352" y="581"/>
      <point x="353" y="534"/>
      <point x="344" y="464" type="curve"/>
      <point x="512" y="464" type="line"/>
      <point x="540" y="635"/>
      <point x="491" y="738"/>
      <point x="327" y="738" type="curve" smooth="yes"/>
      <point x="161" y="738"/>
      <point x="84" y="596"/>
      <point x="39" y="382" type="curve" smooth="yes"/>
      <point x="-4" y="179"/>
      <point x="-4" y="-7"/>
    </contour>
  </outline>
</glyph>
<glyph name="H" format="2">
  <advance width="494"/>
  <unicode hex="0048"/>
  <anchor x="202" y="0" name="bottom"/>
  <anchor x="314" y="591" name="center"/>
  <anchor x="353" y="729" name="top"/>
  <anchor x="127" y="729" name="topleft"/>
  <outline>
    <contour>
      <point x="-27" y="0" type="line"/>
      <point x="158" y="0" type="line"/>
      <point x="310" y="729" type="line"/>
      <point x="125" y="729" type="line"/>
    </contour>
    <contour>
      <point x="224" y="0" type="line"/>
      <point x="408" y="0" type="line"/>
      <point x="560" y="729" type="line"/>
      <point x="375" y="729" type="line"/>
    </contour>
    <contour>
      <point x="157" y="291" type="line"/>
      <point x="346" y="291" type="line"/>
      <point x="379" y="447" type="line"/>
      <point x="190" y="447" type="line"/>
    </contour>
  </outline>
</glyph>
<glyph name="I" format="2">
  <advance width="244"/>
  <unicode hex="0049"/>
  <anchor x="66" y="0" name="bottom"/>
  <anchor x="158" y="0" name="ogonek"/>
  <anchor x="216" y="729" name="top"/>
  <anchor x="125" y="729" name="topleft"/>
  <outline>
    <contour>
      <point x="-27" y="0" type="line"/>
      <point x="158" y="0" type="line"/>
      <point x="310" y="729" type="line"/>
      <point x="125" y="729" type="line"/>
    </contour>
  </outline>
</glyph>
<glyph name="J" format="2">
  <advance width="290"/>
  <unicode hex="004A"/>
  <anchor x="32" y="0" name="bottom"/>
  <anchor x="267" y="729" name="top"/>
  <outline>
    <contour>
      <point x="-44" y="0" type="line"/>
      <point x="44" y="0" type="line" smooth="yes"/>
      <point x="143" y="0"/>
      <point x="220" y="59"/>
      <point x="246" y="185" type="curve" smooth="yes"/>
      <point x="359" y="729" type="line"/>
      <point x="174" y="729" type="line"/>
      <point x="66" y="210" type="line" smooth="yes"/>
      <point x="57" y="165"/>
      <point x="44" y="143"/>
      <point x="14" y="143" type="curve" smooth="yes"/>
      <point x="-14" y="143" type="line"/>
    </contour>
  </outline>
</glyph>
<glyph name="K" format="2">
  <advance width="494"/>
  <unicode hex="004B"/>
  <anchor x="206" y="0" name="bottom"/>
  <anchor x="357" y="729" name="top"/>
  <outline>
    <contour>
      <point x="236" y="0" type="line"/>
      <point x="427" y="0" type="line"/>
      <point x="407" y="428" type="line"/>
      <point x="579" y="729" type="line"/>
      <point x="389" y="729" type="line"/>
      <point x="236" y="401" type="line"/>
      <point x="183" y="151" type="line"/>
      <point x="245" y="274" type="line"/>
    </contour>
    <contour>
      <point x="-27" y="0" type="line"/>
      <point x="158" y="0" type="line"/>
      <point x="310" y="729" type="line"/>
      <point x="125" y="729" type="line"/>
    </contour>
  </outline>
</glyph>
<glyph name="L" format="2">
  <advance width="356"/>
  <unicode hex="004C"/>
  <anchor x="137" y="0" name="bottom"/>
  <anchor x="291" y="365" name="center"/>
  <anchor x="218" y="729" name="top"/>
  <anchor x="323" y="729" name="topright"/>
  <outline>
    <contour>
      <point x="-27" y="0" type="line"/>
      <point x="287" y="0" type="line"/>
      <point x="321" y="163" type="line"/>
      <point x="178" y="163" type="line"/>
      <point x="188" y="149" type="line"/>
      <point x="310" y="729" type="line"/>
      <point x="125" y="729" type="line"/>
    </contour>
  </outline>
</glyph>
<glyph name="M" format="2">
  <advance width="646"/>
  <unicode hex="004D"/>
  <anchor x="267" y="0" name="bottom"/>
  <anchor x="418" y="729" name="top"/>
  <outline>
    <contour>
      <point x="-27" y="0" type="line"/>
      <point x="142" y="0" type="line"/>
      <point x="212" y="337" type="line"/>
      <point x="247" y="523" type="line"/>
      <point x="254" y="523" type="line"/>
      <point x="230" y="275" type="line"/>
      <point x="211" y="0" type="line"/>
      <point x="323" y="0" type="line"/>
      <point x="418" y="275" type="line"/>
      <point x="501" y="533" type="line"/>
      <point x="508" y="533" type="line"/>
      <point x="462" y="337" type="line"/>
      <point x="392" y="0" type="line"/>
      <point x="561" y="0" type="line"/>
      <point x="712" y="729" type="line"/>
      <point x="455" y="729" type="line"/>
      <point x="374" y="463" type="line"/>
      <point x="332" y="298" type="line"/>
      <point x="325" y="298" type="line"/>
      <point x="350" y="463" type="line"/>
      <point x="379" y="729" type="line"/>
      <point x="124" y="729" type="line"/>
    </contour>
  </outline>
</glyph>
<glyph name="N" format="2">
  <advance width="483"/>
  <unicode hex="004E"/>
  <anchor x="186" y="0" name="bottom"/>
  <anchor x="337" y="729" name="top"/>
  <outline>
    <contour>
      <point x="-27" y="0" type="line"/>
      <point x="136" y="0" type="line"/>
      <point x="167" y="157" type="line"/>
      <point x="202" y="358" type="line"/>
      <point x="208" y="358" type="line"/>
      <point x="213" y="0" type="line"/>
      <point x="398" y="0" type="line"/>
      <point x="549" y="729" type="line"/>
      <point x="387" y="729" type="line"/>
      <point x="355" y="575" type="line"/>
      <point x="322" y="366" type="line"/>
      <point x="315" y="366" type="line"/>
      <point x="312" y="729" type="line"/>
      <point x="125" y="729" type="line"/>
    </contour>
  </outline>
</glyph>
<glyph name="O" format="2">
  <advance width="492"/>
  <unicode hex="004F"/>
  <anchor x="194" y="0" name="bottom"/>
  <anchor x="273" y="365" name="center"/>
  <anchor x="399" y="10" name="ogonek"/>
  <anchor x="338" y="729" name="top"/>
  <anchor x="117" y="729" name="topleft"/>
  <anchor x="419" y="709" name="topright"/>
  <outline>
    <contour>
      <point x="211" y="-10" type="curve" smooth="yes"/>
      <point x="371" y="-10"/>
      <point x="446" y="129"/>
      <point x="492" y="351" type="curve" smooth="yes"/>
      <point x="541" y="582"/>
      <point x="516" y="739"/>
      <point x="322" y="739" type="curve" smooth="yes"/>
      <point x="162" y="739"/>
      <point x="85" y="600"/>
      <point x="40" y="382" type="curve" smooth="yes"/>
      <point x="-6" y="160"/>
      <point x="7" y="-10"/>
    </contour>
    <contour>
      <point x="224" y="146" type="curve" smooth="yes"/>
      <point x="171" y="146"/>
      <point x="191" y="249"/>
      <point x="217" y="376" type="curve" smooth="yes"/>
      <point x="246" y="516"/>
      <point x="270" y="583"/>
      <point x="308" y="583" type="curve" smooth="yes"/>
      <point x="359" y="583"/>
      <point x="342" y="480"/>
      <point x="317" y="363" type="curve" smooth="yes"/>
      <point x="283" y="204"/>
      <point x="262" y="146"/>
    </contour>
  </outline>
</glyph>
<glyph name="P" format="2">
  <advance width="475"/>
  <unicode hex="0050"/>
  <anchor x="194" y="0" name="bottom"/>
  <anchor x="345" y="729" name="top"/>
  <outline>
    <contour>
      <point x="-27" y="0" type="line"/>
      <point x="151" y="0" type="line"/>
      <point x="275" y="595" type="line"/>
      <point x="249" y="572" type="line"/>
      <point x="283" y="572" type="line" smooth="yes"/>
      <point x="311" y="572"/>
      <point x="326" y="558"/>
      <point x="325" y="522" type="curve" smooth="yes"/>
      <point x="322" y="430"/>
      <point x="295" y="369"/>
      <point x="242" y="369" type="curve" smooth="yes"/>
      <point x="211" y="369" type="line"/>
      <point x="179" y="212" type="line"/>
      <point x="226" y="212" type="line" smooth="yes"/>
      <point x="386" y="212"/>
      <point x="497" y="310"/>
      <point x="507" y="519" type="curve" smooth="yes"/>
      <point x="512" y="645"/>
      <point x="451" y="729"/>
      <point x="313" y="729" type="curve" smooth="yes"/>
      <point x="125" y="729" type="line"/>
    </contour>
  </outline>
</glyph>
<glyph name="R" format="2">
  <advance width="475"/>
  <unicode hex="0052"/>
  <anchor x="192" y="0" name="bottom"/>
  <anchor x="291" y="729" name="top"/>
  <outline>
    <contour>
      <point x="-27" y="0" type="line"/>
      <point x="151" y="0" type="line"/>
      <point x="270" y="572" type="line"/>
      <point x="281" y="572" type="line" smooth="yes"/>
      <point x="343" y="572"/>
      <point x="331" y="507"/>
      <point x="324" y="475" type="curve" smooth="yes"/>
      <point x="313" y="421"/>
      <point x="286" y="388"/>
      <point x="252" y="388" type="curve" smooth="yes"/>
      <point x="216" y="388" type="line"/>
      <point x="186" y="248" type="line"/>
      <point x="226" y="248" type="line" smooth="yes"/>
      <point x="249" y="248"/>
      <point x="259" y="233"/>
      <point x="246" y="171" type="curve" smooth="yes"/>
      <point x="223" y="63" type="line" smooth="yes"/>
      <point x="219" y="42"/>
      <point x="217" y="18"/>
      <point x="218" y="0" type="curve"/>
      <point x="397" y="0" type="line"/>
      <point x="397" y="13"/>
      <point x="400" y="46"/>
      <point x="406" y="73" type="curve" smooth="yes"/>
      <point x="430" y="190" type="line" smooth="yes"/>
      <point x="446" y="269"/>
      <point x="431" y="317"/>
      <point x="370" y="340" type="curve"/>
      <point x="371" y="347" type="line"/>
      <point x="438" y="362"/>
      <point x="492" y="417"/>
      <point x="509" y="500" type="curve" smooth="yes"/>
      <point x="526" y="582"/>
      <point x="518" y="729"/>
      <point x="323" y="729" type="curve" smooth="yes"/>
      <point x="125" y="729" type="line"/>
    </contour>
  </outline>
</glyph>
<glyph name="S" format="2">
  <advance width="444"/>
  <unicode hex="0053"/>
  <anchor x="192" y="0" name="bottom"/>
  <anchor x="316" y="729" name="top"/>
  <outline>
    <contour>
      <point x="190" y="-10" type="curve" smooth="yes"/>
      <point x="316" y="-10"/>
      <point x="387" y="57"/>
      <point x="414" y="195" type="curve" smooth="yes"/>
      <point x="436" y="308"/>
      <point x="383" y="373"/>
      <point x="311" y="432" type="curve" smooth="yes"/>
      <point x="259" y="475"/>
      <point x="242" y="496"/>
      <point x="250" y="543" type="curve" smooth="yes"/>
      <point x="257" y="587"/>
      <point x="271" y="606"/>
      <point x="295" y="606" type="curve" smooth="yes"/>
      <point x="335" y="606"/>
      <point x="326" y="541"/>
      <point x="320" y="512" type="curve"/>
      <point x="474" y="512" type="line"/>
      <point x="500" y="659"/>
      <point x="439" y="739"/>
      <point x="298" y="739" type="curve" smooth="yes"/>
      <point x="173" y="739"/>
      <point x="99" y="670"/>
      <point x="75" y="544" type="curve" smooth="yes"/>
      <point x="52" y="428"/>
      <point x="103" y="363"/>
      <point x="167" y="311" type="curve" smooth="yes"/>
      <point x="227" y="263"/>
      <point x="245" y="242"/>
      <point x="235" y="187" type="curve" smooth="yes"/>
      <point x="228" y="147"/>
      <point x="217" y="126"/>
      <point x="190" y="126" type="curve" smooth="yes"/>
      <point x="140" y="126"/>
      <point x="152" y="192"/>
      <point x="160" y="231" type="curve"/>
      <point x="5" y="231" type="line"/>
      <point x="-22" y="77"/>
      <point x="35" y="-10"/>
    </contour>
  </outline>
</glyph>
<glyph name="T" format="2">
  <advance width="388"/>
  <unicode hex="0054"/>
  <anchor x="135" y="0" name="bottom"/>
  <anchor x="207" y="346" name="center"/>
  <anchor x="286" y="729" name="top"/>
  <outline>
    <contour>
      <point x="44" y="0" type="line"/>
      <point x="226" y="0" type="line"/>
      <point x="348" y="586" type="line"/>
      <point x="166" y="586" type="line"/>
    </contour>
    <contour>
      <point x="75" y="570" type="line"/>
      <point x="438" y="570" type="line"/>
      <point x="470" y="729" type="line"/>
      <point x="108" y="729" type="line"/>
    </contour>
  </outline>
</glyph>
<glyph name="U" format="2">
  <advance width="472"/>
  <unicode hex="0055"/>
  <anchor x="184" y="0" name="bottom"/>
  <anchor x="300" y="0" name="ogonek"/>
  <anchor x="333" y="729" name="top"/>
  <anchor x="415" y="729" name="topright"/>
  <outline>
    <contour>
      <point x="201" y="-10" type="curve" smooth="yes"/>
      <point x="324" y="-10"/>
      <point x="404" y="59"/>
      <point x="438" y="225" type="curve" smooth="yes"/>
      <point x="542" y="729" type="line"/>
      <point x="368" y="729" type="line"/>
      <point x="267" y="248" type="line" smooth="yes"/>
      <point x="252" y="176"/>
      <point x="240" y="153"/>
      <point x="216" y="153" type="curve" smooth="yes"/>
      <point x="193" y="153"/>
      <point x="182" y="173"/>
      <point x="199" y="255" type="curve" smooth="yes"/>
      <point x="297" y="729" type="line"/>
      <point x="120" y="729" type="line"/>
      <point x="22" y="259" type="line" smooth="yes"/>
      <point x="-14" y="86"/>
      <point x="35" y="-10"/>
    </contour>
  </outline>
</glyph>
<glyph name="V" format="2">
  <advance width="497"/>
  <unicode hex="0056"/>
  <anchor x="198" y="0" name="bottom"/>
  <anchor x="335" y="729" name="top"/>
  <outline>
    <contour>
      <point x="77" y="0" type="line"/>
      <point x="316" y="0" type="line"/>
      <point x="582" y="729" type="line"/>
      <point x="398" y="729" type="line"/>
      <point x="275" y="320" type="line"/>
      <point x="230" y="152" type="line"/>
      <point x="222" y="152" type="line"/>
      <point x="237" y="323" type="line"/>
      <point x="271" y="729" type="line"/>
      <point x="104" y="729" type="line"/>
    </contour>
  </outline>
</glyph>
<glyph name="W" format="2">
  <advance width="777"/>
  <unicode hex="0057"/>
  <anchor x="332" y="0" name="bottom"/>
  <anchor x="483" y="729" name="top"/>
  <outline>
    <contour>
      <point x="42" y="0" type="line"/>
      <point x="295" y="0" type="line"/>
      <point x="401" y="393" type="line"/>
      <point x="429" y="505" type="line"/>
      <point x="436" y="505" type="line"/>
      <point x="420" y="393" type="line"/>
      <point x="371" y="0" type="line"/>
      <point x="619" y="0" type="line"/>
      <point x="862" y="729" type="line"/>
      <point x="672" y="729" type="line"/>
      <point x="562" y="307" type="line"/>
      <point x="533" y="190" type="line"/>
      <point x="526" y="190" type="line"/>
      <point x="540" y="307" type="line"/>
      <point x="595" y="729" type="line"/>
      <point x="372" y="729" type="line"/>
      <point x="256" y="311" type="line"/>
      <point x="225" y="193" type="line"/>
      <point x="218" y="193" type="line"/>
      <point x="234" y="311" type="line"/>
      <point x="292" y="729" type="line"/>
      <point x="105" y="729" type="line"/>
    </contour>
  </outline>
</glyph>
<glyph name="X" format="2">
  <advance width="506"/>
  <unicode hex="0058"/>
  <anchor x="248" y="0" name="bottom"/>
  <anchor x="550" y="729" name="top"/>
  <outline>
    <contour>
      <point x="-47" y="0" type="line"/>
      <point x="147" y="0" type="line"/>
      <point x="228" y="209" type="line"/>
      <point x="251" y="275" type="line"/>
      <point x="257" y="275" type="line"/>
      <point x="257" y="209" type="line"/>
      <point x="258" y="0" type="line"/>
      <point x="434" y="0" type="line"/>
      <point x="408" y="367" type="line"/>
      <point x="592" y="729" type="line"/>
      <point x="398" y="729" type="line"/>
      <point x="327" y="539" type="line"/>
      <point x="302" y="470" type="line"/>
      <point x="296" y="470" type="line"/>
      <point x="297" y="539" type="line"/>
      <point x="298" y="729" type="line"/>
      <point x="122" y="729" type="line"/>
      <point x="150" y="392" type="line"/>
    </contour>
  </outline>
</glyph>
<glyph name="Y" format="2">
  <advance width="498"/>
  <unicode hex="0059"/>
  <anchor x="185" y="0" name="bottom"/>
  <anchor x="335" y="729" name="top"/>
  <anchor x="175" y="729" name="topleft"/>
  <outline>
    <contour>
      <point x="92" y="0" type="line"/>
      <point x="277" y="0" type="line"/>
      <point x="331" y="258" type="line"/>
      <point x="584" y="729" type="line"/>
      <point x="386" y="729" type="line"/>
      <point x="303" y="500" type="line"/>
      <point x="275" y="418" type="line"/>
      <point x="269" y="418" type="line"/>
      <point x="273" y="500" type="line"/>
      <point x="280" y="729" type="line"/>
      <point x="104" y="729" type="line"/>
      <point x="151" y="282" type="line"/>
    </contour>
  </outline>
</glyph>
<glyph name="Z" format="2">
  <advance width="432"/>
  <unicode hex="005A"/>
  <anchor x="161" y="0" name="bottom"/>
  <anchor x="236" y="365" name="center"/>
  <anchor x="312" y="729" name="top"/>
  <outline>
    <contour>
      <point x="-41" y="0" type="line"/>
      <point x="358" y="0" type="line"/>
      <point x="390" y="157" type="line"/>
      <point x="189" y="157" type="line"/>
      <point x="481" y="589" type="line"/>
      <point x="509" y="729" type="line"/>
      <point x="123" y="729" type="line"/>
      <point x="90" y="571" type="line"/>
      <point x="276" y="571" type="line"/>
      <point x="-13" y="139" type="line"/>
    </contour>
  </outline>
</glyph>
<glyph name="bracketleft" format="2">
  <advance width="316"/>
  <unicode hex="005B"/>
  <outline>
    <contour>
      <point x="-61" y="-167" type="line"/>
      <point x="206" y="-167" type="line"/>
      <point x="232" y="-42" type="line"/>
      <point x="124" y="-42" type="line"/>
      <point x="272" y="660" type="line"/>
      <point x="380" y="660" type="line"/>
      <point x="408" y="793" type="line"/>
      <point x="141" y="793" type="line"/>
    </contour>
  </outline>
</glyph>
<glyph name="backslash" format="2">
  <advance width="355"/>
  <unicode hex="005C"/>
  <outline>
    <contour>
      <point x="129" y="-82" type="line"/>
      <point x="284" y="-82" type="line"/>
      <point x="250" y="729" type="line"/>
      <point x="93" y="729" type="line"/>
    </contour>
  </outline>
</glyph>
<glyph name="asciicircum" format="2">
  <advance width="480"/>
  <unicode hex="005E"/>
  <outline>
    <contour>
      <point x="58" y="468" type="line"/>
      <point x="211" y="468" type="line"/>
      <point x="308" y="586" type="line"/>
      <point x="353" y="468" type="line"/>
      <point x="506" y="468" type="line"/>
      <point x="406" y="729" type="line"/>
      <point x="268" y="729" type="line"/>
    </contour>
  </outline>
</glyph>
<glyph name="underscore" format="2">
  <advance width="398"/>
  <unicode hex="005F"/>
  <outline>
    <contour>
      <point x="-68" y="-150" type="line"/>
      <point x="292" y="-150" type="line"/>
      <point x="323" y="0" type="line"/>
      <point x="-37" y="0" type="line"/>
    </contour>
  </outline>
</glyph>
<glyph name="b" format="2">
  <advance width="469"/>
  <unicode hex="0062"/>
  <anchor x="189" y="0" name="bottom"/>
  <anchor x="340" y="729" name="top"/>
  <outline>
    <contour>
      <point x="264" y="-10" type="curve" smooth="yes"/>
      <point x="350" y="-10"/>
      <point x="409" y="63"/>
      <point x="450" y="258" type="curve" smooth="yes"/>
      <point x="484" y="422"/>
      <point x="487" y="551"/>
      <point x="363" y="551" type="curve" smooth="yes"/>
      <point x="317" y="551"/>
      <point x="281" y="528"/>
      <point x="255" y="484" type="curve"/>
      <point x="248" y="484" type="line"/>
      <point x="299" y="729" type="line"/>
      <point x="122" y="729" type="line"/>
      <point x="-30" y="0" type="line"/>
      <point x="144" y="0" type="line"/>
      <point x="162" y="72" type="line"/>
      <point x="167" y="72" type="line"/>
      <point x="176" y="20"/>
      <point x="207" y="-10"/>
    </contour>
    <contour>
      <point x="214" y="133" type="curve" smooth="yes"/>
      <point x="178" y="133"/>
      <point x="185" y="182"/>
      <point x="202" y="264" type="curve" smooth="yes"/>
      <point x="209" y="298" type="line" smooth="yes"/>
      <point x="228" y="391"/>
      <point x="243" y="419"/>
      <point x="269" y="419" type="curve" smooth="yes"/>
      <point x="303" y="419"/>
      <point x="296" y="367"/>
      <point x="277" y="274" type="curve" smooth="yes"/>
      <point x="257" y="175"/>
      <point x="241" y="133"/>
    </contour>
  </outline>
</glyph>
<glyph name="c" format="2">
  <advance width="434"/>
  <unicode hex="0063"/>
  <anchor x="169" y="0" name="bottom"/>
  <anchor x="277" y="541" name="top"/>
  <outline>
    <contour>
      <point x="186" y="-11" type="curve" smooth="yes"/>
      <point x="290" y="-11"/>
      <point x="374" y="50"/>
      <point x="408" y="203" type="curve"/>
      <point x="245" y="203" type="line"/>
      <point x="230" y="146"/>
      <point x="214" y="128"/>
      <point x="196" y="128" type="curve" smooth="yes"/>
      <point x="160" y="128"/>
      <point x="169" y="178"/>
      <point x="189" y="277" type="curve" smooth="yes"/>
      <point x="212" y="388"/>
      <point x="226" y="413"/>
      <point x="250" y="413" type="curve" smooth="yes"/>
      <point x="276" y="413"/>
      <point x="279" y="389"/>
      <point x="272" y="339" type="curve"/>
      <point x="437" y="339" type="line"/>
      <point x="452" y="477"/>
      <point x="397" y="551"/>
      <point x="259" y="551" type="curve" smooth="yes"/>
      <point x="135" y="551"/>
      <point x="56" y="474"/>
      <point x="17" y="287" type="curve" smooth="yes"/>
      <point x="-19" y="114"/>
      <point x="12" y="-11"/>
    </contour>
  </outline>
</glyph>
<glyph name="d" format="2">
  <advance width="468"/>
  <unicode hex="0064"/>
  <anchor x="188" y="0" name="bottom"/>
  <anchor x="407" y="631" name="center"/>
  <anchor x="339" y="729" name="top"/>
  <anchor x="534" y="729" name="topright"/>
  <outline>
    <contour>
      <point x="108" y="-10" type="curve" smooth="yes"/>
      <point x="155" y="-10"/>
      <point x="191" y="15"/>
      <point x="213" y="56" type="curve"/>
      <point x="220" y="56" type="line"/>
      <point x="213" y="0" type="line"/>
      <point x="385" y="0" type="line"/>
      <point x="537" y="729" type="line"/>
      <point x="360" y="729" type="line"/>
      <point x="306" y="470" type="line"/>
      <point x="300" y="470" type="line"/>
      <point x="292" y="525"/>
      <point x="254" y="550"/>
      <point x="203" y="550" type="curve" smooth="yes"/>
      <point x="101" y="550"/>
      <point x="51" y="443"/>
      <point x="18" y="280" type="curve" smooth="yes"/>
      <point x="-14" y="125"/>
      <point x="-19" y="-10"/>
    </contour>
    <contour>
      <point x="201" y="121" type="curve" smooth="yes"/>
      <point x="173" y="121"/>
      <point x="169" y="157"/>
      <point x="193" y="270" type="curve" smooth="yes"/>
      <point x="214" y="373"/>
      <point x="231" y="410"/>
      <point x="257" y="410" type="curve" smooth="yes"/>
      <point x="287" y="410"/>
      <point x="286" y="373"/>
      <point x="266" y="277" type="curve" smooth="yes"/>
      <point x="259" y="243" type="line" smooth="yes"/>
      <point x="238" y="143"/>
      <point x="221" y="121"/>
    </contour>
  </outline>
</glyph>
<glyph name="e" format="2">
  <advance width="440"/>
  <unicode hex="0065"/>
  <anchor x="191" y="0" name="bottom"/>
  <anchor x="286" y="0" name="ogonek"/>
  <anchor x="280" y="541" name="top"/>
  <outline>
    <contour>
      <point x="189" y="-10" type="curve" smooth="yes"/>
      <point x="289" y="-10"/>
      <point x="370" y="38"/>
      <point x="408" y="186" type="curve"/>
      <point x="242" y="186" type="line"/>
      <point x="228" y="135"/>
      <point x="215" y="119"/>
      <point x="195" y="119" type="curve" smooth="yes"/>
      <point x="165" y="119"/>
      <point x="168" y="166"/>
      <point x="183" y="235" type="curve"/>
      <point x="418" y="235" type="line"/>
      <point x="463" y="425"/>
      <point x="438" y="551"/>
      <point x="261" y="551" type="curve" smooth="yes"/>
      <point x="129" y="551"/>
      <point x="56" y="466"/>
      <point x="18" y="288" type="curve" smooth="yes"/>
      <point x="-22" y="98"/>
      <point x="26" y="-10"/>
    </contour>
    <contour>
      <point x="201" y="323" type="line"/>
      <point x="218" y="399"/>
      <point x="235" y="421"/>
      <point x="255" y="421" type="curve" smooth="yes"/>
      <point x="283" y="421"/>
      <point x="281" y="377"/>
      <point x="270" y="326" type="curve"/>
      <point x="279" y="334" type="line"/>
      <point x="194" y="334" type="line"/>
    </contour>
  </outline>
</glyph>
<glyph name="g" format="2">
  <advance width="465"/>
  <unicode hex="0067"/>
  <anchor x="152" y="-167" name="bottom"/>
  <anchor x="299" y="541" name="top"/>
  <outline>
    <contour>
      <point x="165" y="-175" type="curve" smooth="yes"/>
      <point x="300" y="-175"/>
      <point x="358" y="-118"/>
      <point x="387" y="21" type="curve" smooth="yes"/>
      <point x="495" y="541" type="line"/>
      <point x="325" y="541" type="line"/>
      <point x="304" y="472" type="line"/>
      <point x="297" y="472" type="line"/>
      <point x="289" y="524"/>
      <point x="258" y="551"/>
      <point x="202" y="551" type="curve" smooth="yes"/>
      <point x="129" y="551"/>
      <point x="62" y="501"/>
      <point x="22" y="303" type="curve" smooth="yes"/>
      <point x="-7" y="165"/>
      <point x="-7" y="36"/>
      <point x="116" y="36" type="curve" smooth="yes"/>
      <point x="154" y="36"/>
      <point x="196" y="56"/>
      <point x="221" y="101" type="curve"/>
      <point x="227" y="100" type="line"/>
      <point x="206" y="1" type="line" smooth="yes"/>
      <point x="198" y="-37"/>
      <point x="187" y="-59"/>
      <point x="164" y="-59" type="curve" smooth="yes"/>
      <point x="144" y="-59"/>
      <point x="134" y="-42"/>
      <point x="141" y="-5" type="curve"/>
      <point x="-20" y="-5" type="line"/>
      <point x="-35" y="-105"/>
      <point x="21" y="-175"/>
    </contour>
    <contour>
      <point x="207" y="159" type="curve" smooth="yes"/>
      <point x="183" y="159"/>
      <point x="175" y="186"/>
      <point x="196" y="295" type="curve" smooth="yes"/>
      <point x="211" y="368"/>
      <point x="228" y="416"/>
      <point x="256" y="416" type="curve" smooth="yes"/>
      <point x="280" y="416"/>
      <point x="286" y="393"/>
      <point x="268" y="299" type="curve" smooth="yes"/>
      <point x="263" y="273" type="line" smooth="yes"/>
      <point x="247" y="192"/>
      <point x="230" y="159"/>
    </contour>
  </outline>
</glyph>
<glyph name="h" format="2">
  <advance width="470"/>
  <unicode hex="0068"/>
  <anchor x="192" y="0" name="bottom"/>
  <anchor x="209" y="631" name="center"/>
  <anchor x="210" y="729" name="top"/>
  <outline>
    <contour>
      <point x="-30" y="0" type="line"/>
      <point x="146" y="0" type="line"/>
      <point x="222" y="363" type="line"/>
      <point x="231" y="397"/>
      <point x="243" y="417"/>
      <point x="266" y="417" type="curve" smooth="yes"/>
      <point x="297" y="417"/>
      <point x="295" y="386"/>
      <point x="286" y="340" type="curve" smooth="yes"/>
      <point x="216" y="0" type="line"/>
      <point x="390" y="0" type="line"/>
      <point x="462" y="338" type="line" smooth="yes"/>
      <point x="490" y="470"/>
      <point x="472" y="551"/>
      <point x="362" y="551" type="curve" smooth="yes"/>
      <point x="317" y="551"/>
      <point x="282" y="526"/>
      <point x="253" y="485" type="curve"/>
      <point x="246" y="485" type="line"/>
      <point x="297" y="729" type="line"/>
      <point x="122" y="729" type="line"/>
    </contour>
  </outline>
</glyph>
<glyph name="k" format="2">
  <advance width="461"/>
  <unicode hex="006B"/>
  <anchor x="181" y="0" name="bottom"/>
  <anchor x="332" y="729" name="top"/>
  <outline>
    <contour>
      <point x="-30" y="0" type="line"/>
      <point x="146" y="0" type="line"/>
      <point x="172" y="120" type="line"/>
      <point x="210" y="194" type="line"/>
      <point x="209" y="127" type="line"/>
      <point x="212" y="0" type="line"/>
      <point x="396" y="0" type="line"/>
      <point x="366" y="316" type="line"/>
      <point x="510" y="541" type="line"/>
      <point x="323" y="541" type="line"/>
      <point x="253" y="410" type="line"/>
      <point x="214" y="326" type="line"/>
      <point x="297" y="729" type="line"/>
      <point x="122" y="729" type="line"/>
    </contour>
  </outline>
</glyph>
<glyph name="l" format="2">
  <advance width="228"/>
  <unicode hex="006C"/>
  <anchor x="58" y="0" name="bottom"/>
  <anchor x="134" y="365" name="center"/>
  <anchor x="209" y="729" name="top"/>
  <anchor x="297" y="729" name="topright"/>
  <outline>
    <contour>
      <point x="-30" y="0" type="line"/>
      <point x="146" y="0" type="line"/>
      <point x="297" y="729" type="line"/>
      <point x="122" y="729" type="line"/>
    </contour>
  </outline>
</glyph>
<glyph name="m" format="2">
  <advance width="715"/>
  <unicode hex="006D"/>
  <anchor x="315" y="0" name="bottom"/>
  <anchor x="427" y="541" name="top"/>
  <outline>
    <contour>
      <point x="-30" y="0" type="line"/>
      <point x="147" y="0" type="line"/>
      <point x="216" y="337" type="line" smooth="yes"/>
      <point x="226" y="387"/>
      <point x="239" y="417"/>
      <point x="267" y="417" type="curve" smooth="yes"/>
      <point x="293" y="417"/>
      <point x="299" y="396"/>
      <point x="287" y="340" type="curve" smooth="yes"/>
      <point x="217" y="0" type="line"/>
      <point x="391" y="0" type="line"/>
      <point x="462" y="337" type="line" smooth="yes"/>
      <point x="473" y="387"/>
      <point x="482" y="417"/>
      <point x="512" y="417" type="curve" smooth="yes"/>
      <point x="542" y="417"/>
      <point x="542" y="385"/>
      <point x="533" y="340" type="curve" smooth="yes"/>
      <point x="461" y="0" type="line"/>
      <point x="637" y="0" type="line"/>
      <point x="707" y="338" type="line" smooth="yes"/>
      <point x="734" y="467"/>
      <point x="719" y="551"/>
      <point x="608" y="551" type="curve" smooth="yes"/>
      <point x="562" y="551"/>
      <point x="515" y="530"/>
      <point x="477" y="467" type="curve"/>
      <point x="470" y="467" type="line"/>
      <point x="461" y="521"/>
      <point x="430" y="551"/>
      <point x="363" y="551" type="curve" smooth="yes"/>
      <point x="318" y="551"/>
      <point x="282" y="525"/>
      <point x="254" y="485" type="curve"/>
      <point x="247" y="485" type="line"/>
      <point x="254" y="541" type="line"/>
      <point x="83" y="541" type="line"/>
    </contour>
  </outline>
</glyph>
<glyph name="n" format="2">
  <advance width="471"/>
  <unicode hex="006E"/>
  <anchor x="193" y="0" name="bottom"/>
  <anchor x="305" y="541" name="top"/>
  <outline>
    <contour>
      <point x="-30" y="0" type="line"/>
      <point x="147" y="0" type="line"/>
      <point x="216" y="337" type="line" smooth="yes"/>
      <point x="226" y="387"/>
      <point x="239" y="417"/>
      <point x="267" y="417" type="curve" smooth="yes"/>
      <point x="293" y="417"/>
      <point x="299" y="396"/>
      <point x="287" y="340" type="curve" smooth="yes"/>
      <point x="217" y="0" type="line"/>
      <point x="391" y="0" type="line"/>
      <point x="463" y="338" type="line" smooth="yes"/>
      <point x="489" y="461"/>
      <point x="479" y="551"/>
      <point x="363" y="551" type="curve" smooth="yes"/>
      <point x="318" y="551"/>
      <point x="282" y="525"/>
      <point x="254" y="485" type="curve"/>
      <point x="247" y="485" type="line"/>
      <point x="254" y="541" type="line"/>
      <point x="83" y="541" type="line"/>
    </contour>
  </outline>
</glyph>
<glyph name="o" format="2">
  <advance width="451"/>
  <unicode hex="006F"/>
  <anchor x="192" y="0" name="bottom"/>
  <anchor x="226" y="271" name="center"/>
  <anchor x="365" y="10" name="ogonek"/>
  <anchor x="280" y="541" name="top"/>
  <anchor x="329" y="531" name="topright"/>
  <outline>
    <contour>
      <point x="190" y="-10" type="curve" smooth="yes"/>
      <point x="308" y="-10"/>
      <point x="393" y="62"/>
      <point x="435" y="262" type="curve" smooth="yes"/>
      <point x="472" y="439"/>
      <point x="433" y="551"/>
      <point x="261" y="551" type="curve" smooth="yes"/>
      <point x="142" y="551"/>
      <point x="58" y="481"/>
      <point x="18" y="288" type="curve" smooth="yes"/>
      <point x="-24" y="90"/>
      <point x="29" y="-10"/>
    </contour>
    <contour>
      <point x="198" y="128" type="curve" smooth="yes"/>
      <point x="160" y="128"/>
      <point x="169" y="178"/>
      <point x="190" y="278" type="curve" smooth="yes"/>
      <point x="213" y="386"/>
      <point x="227" y="414"/>
      <point x="254" y="414" type="curve" smooth="yes"/>
      <point x="291" y="414"/>
      <point x="280" y="354"/>
      <point x="261" y="265" type="curve" smooth="yes"/>
      <point x="239" y="165"/>
      <point x="224" y="128"/>
    </contour>
  </outline>
</glyph>
<glyph name="p" format="2">
  <advance width="469"/>
  <unicode hex="0070"/>
  <anchor x="179" y="0" name="bottom"/>
  <anchor x="291" y="541" name="top"/>
  <outline>
    <contour>
      <point x="-65" y="-167" type="line"/>
      <point x="111" y="-167" type="line"/>
      <point x="161" y="71" type="line"/>
      <point x="167" y="71" type="line"/>
      <point x="176" y="16"/>
      <point x="214" y="-10"/>
      <point x="264" y="-10" type="curve" smooth="yes"/>
      <point x="350" y="-10"/>
      <point x="409" y="63"/>
      <point x="450" y="258" type="curve" smooth="yes"/>
      <point x="484" y="422"/>
      <point x="486" y="551"/>
      <point x="360" y="551" type="curve" smooth="yes"/>
      <point x="312" y="551"/>
      <point x="276" y="526"/>
      <point x="254" y="485" type="curve"/>
      <point x="247" y="485" type="line"/>
      <point x="254" y="541" type="line"/>
      <point x="82" y="541" type="line"/>
    </contour>
    <contour>
      <point x="213" y="133" type="curve" smooth="yes"/>
      <point x="177" y="133"/>
      <point x="184" y="182"/>
      <point x="201" y="264" type="curve" smooth="yes"/>
      <point x="208" y="298" type="line" smooth="yes"/>
      <point x="227" y="391"/>
      <point x="242" y="419"/>
      <point x="268" y="419" type="curve" smooth="yes"/>
      <point x="302" y="419"/>
      <point x="295" y="367"/>
      <point x="276" y="274" type="curve" smooth="yes"/>
      <point x="256" y="175"/>
      <point x="240" y="133"/>
    </contour>
  </outline>
</glyph>
<glyph name="q" format="2">
  <advance width="467"/>
  <unicode hex="0071"/>
  <anchor x="187" y="0" name="bottom"/>
  <anchor x="299" y="541" name="top"/>
  <outline>
    <contour>
      <point x="173" y="-167" type="line"/>
      <point x="350" y="-167" type="line"/>
      <point x="497" y="541" type="line"/>
      <point x="326" y="541" type="line"/>
      <point x="306" y="469" type="line"/>
      <point x="301" y="469" type="line"/>
      <point x="289" y="524"/>
      <point x="256" y="551"/>
      <point x="200" y="551" type="curve" smooth="yes"/>
      <point x="122" y="551"/>
      <point x="61" y="486"/>
      <point x="18" y="279" type="curve" smooth="yes"/>
      <point x="-13" y="131"/>
      <point x="-23" y="-10"/>
      <point x="105" y="-10" type="curve" smooth="yes"/>
      <point x="151" y="-10"/>
      <point x="190" y="15"/>
      <point x="213" y="57" type="curve"/>
      <point x="220" y="57" type="line"/>
    </contour>
    <contour>
      <point x="198" y="122" type="curve" smooth="yes"/>
      <point x="173" y="122"/>
      <point x="167" y="151"/>
      <point x="192" y="269" type="curve" smooth="yes"/>
      <point x="212" y="366"/>
      <point x="227" y="409"/>
      <point x="256" y="409" type="curve" smooth="yes"/>
      <point x="280" y="409"/>
      <point x="286" y="383"/>
      <point x="265" y="277" type="curve" smooth="yes"/>
      <point x="259" y="248" type="line" smooth="yes"/>
      <point x="241" y="159"/>
      <point x="225" y="122"/>
    </contour>
  </outline>
</glyph>
<glyph name="r" format="2">
  <advance width="305"/>
  <unicode hex="0072"/>
  <anchor x="58" y="0" name="bottom"/>
  <anchor x="220" y="541" name="top"/>
  <outline>
    <contour>
      <point x="-30" y="0" type="line"/>
      <point x="146" y="0" type="line"/>
      <point x="206" y="284" type="line" smooth="yes"/>
      <point x="221" y="356"/>
      <point x="238" y="372"/>
      <point x="277" y="372" type="curve" smooth="yes"/>
      <point x="293" y="372"/>
      <point x="303" y="372"/>
      <point x="315" y="373" type="curve"/>
      <point x="351" y="545" type="line"/>
      <point x="340" y="545"/>
      <point x="337" y="544"/>
      <point x="335" y="544" type="curve" smooth="yes"/>
      <point x="292" y="541"/>
      <point x="262" y="513"/>
      <point x="239" y="462" type="curve"/>
      <point x="232" y="462" type="line"/>
      <point x="243" y="541" type="line"/>
      <point x="83" y="541" type="line"/>
    </contour>
  </outline>
</glyph>
<glyph name="s" format="2">
  <advance width="415"/>
  <unicode hex="0073"/>
  <anchor x="177" y="0" name="bottom"/>
  <anchor x="251" y="541" name="top"/>
  <outline>
    <contour>
      <point x="169" y="-10" type="curve" smooth="yes"/>
      <point x="316" y="-10"/>
      <point x="381" y="78"/>
      <point x="381" y="179" type="curve" smooth="yes"/>
      <point x="381" y="265"/>
      <point x="332" y="298"/>
      <point x="271" y="334" type="curve" smooth="yes"/>
      <point x="224" y="362"/>
      <point x="208" y="372"/>
      <point x="208" y="400" type="curve" smooth="yes"/>
      <point x="208" y="423"/>
      <point x="218" y="442"/>
      <point x="243" y="442" type="curve" smooth="yes"/>
      <point x="268" y="442"/>
      <point x="273" y="424"/>
      <point x="266" y="377" type="curve"/>
      <point x="416" y="377" type="line"/>
      <point x="429" y="479"/>
      <point x="369" y="551"/>
      <point x="241" y="551" type="curve" smooth="yes"/>
      <point x="101" y="551"/>
      <point x="39" y="465"/>
      <point x="39" y="374" type="curve" smooth="yes"/>
      <point x="39" y="293"/>
      <point x="89" y="252"/>
      <point x="137" y="222" type="curve" smooth="yes"/>
      <point x="199" y="184"/>
      <point x="204" y="173"/>
      <point x="204" y="149" type="curve" smooth="yes"/>
      <point x="204" y="115"/>
      <point x="193" y="102"/>
      <point x="172" y="102" type="curve" smooth="yes"/>
      <point x="144" y="102"/>
      <point x="139" y="126"/>
      <point x="148" y="169" type="curve"/>
      <point x="-9" y="169" type="line"/>
      <point x="-23" y="57"/>
      <point x="41" y="-10"/>
    </contour>
  </outline>
</glyph>
<glyph name="t" format="2">
  <advance width="287"/>
  <unicode hex="0074"/>
  <anchor x="118" y="0" name="bottom"/>
  <anchor x="141" y="271" name="center"/>
  <anchor x="194" y="541" name="top"/>
  <anchor x="321" y="729" name="topright"/>
  <outline>
    <contour>
      <point x="135" y="0" type="curve" smooth="yes"/>
      <point x="215" y="0" type="line"/>
      <point x="243" y="133" type="line"/>
      <point x="229" y="133" type="line" smooth="yes"/>
      <point x="203" y="133"/>
      <point x="197" y="139"/>
      <point x="203" y="166" type="curve" smooth="yes"/>
      <point x="252" y="401" type="line"/>
      <point x="297" y="399" type="line"/>
      <point x="327" y="541" type="line"/>
      <point x="281" y="539" type="line"/>
      <point x="311" y="683" type="line"/>
      <point x="132" y="668" type="line"/>
      <point x="105" y="539" type="line"/>
      <point x="68" y="541" type="line"/>
      <point x="38" y="399" type="line"/>
      <point x="76" y="401" type="line"/>
      <point x="22" y="136" type="line" smooth="yes"/>
      <point x="3" y="44"/>
      <point x="34" y="0"/>
    </contour>
  </outline>
</glyph>
<glyph name="u" format="2">
  <advance width="471"/>
  <unicode hex="0075"/>
  <anchor x="188" y="0" name="bottom"/>
  <anchor x="389" y="0" name="ogonek"/>
  <anchor x="290" y="541" name="top"/>
  <anchor x="376" y="541" name="topright"/>
  <outline>
    <contour>
      <point x="107" y="-10" type="curve" smooth="yes"/>
      <point x="147" y="-10"/>
      <point x="185" y="10"/>
      <point x="217" y="56" type="curve"/>
      <point x="223" y="56" type="line"/>
      <point x="217" y="0" type="line"/>
      <point x="389" y="0" type="line"/>
      <point x="500" y="541" type="line"/>
      <point x="324" y="541" type="line"/>
      <point x="254" y="204" type="line" smooth="yes"/>
      <point x="243" y="151"/>
      <point x="230" y="125"/>
      <point x="204" y="125" type="curve" smooth="yes"/>
      <point x="174" y="125"/>
      <point x="174" y="155"/>
      <point x="184" y="201" type="curve" smooth="yes"/>
      <point x="256" y="541" type="line"/>
      <point x="78" y="541" type="line"/>
      <point x="8" y="203" type="line" smooth="yes"/>
      <point x="-21" y="65"/>
      <point x="1" y="-10"/>
    </contour>
  </outline>
</glyph>
<glyph name="v" format="2">
  <advance width="441"/>
  <unicode hex="0076"/>
  <anchor x="174" y="0" name="bottom"/>
  <anchor x="286" y="541" name="top"/>
  <outline>
    <contour>
      <point x="40" y="0" type="line"/>
      <point x="286" y="0" type="line"/>
      <point x="489" y="541" type="line"/>
      <point x="307" y="541" type="line"/>
      <point x="228" y="273" type="line"/>
      <point x="192" y="135" type="line"/>
      <point x="184" y="135" type="line"/>
      <point x="203" y="273" type="line"/>
      <point x="238" y="541" type="line"/>
      <point x="64" y="541" type="line"/>
    </contour>
  </outline>
</glyph>
<glyph name="w" format="2">
  <advance width="651"/>
  <unicode hex="0077"/>
  <anchor x="197" y="0" name="bottom"/>
  <anchor x="379" y="541" name="top"/>
  <outline>
    <contour>
      <point x="19" y="0" type="line"/>
      <point x="243" y="0" type="line"/>
      <point x="291" y="174" type="line"/>
      <point x="341" y="373" type="line"/>
      <point x="351" y="373" type="line"/>
      <point x="314" y="174" type="line"/>
      <point x="286" y="0" type="line"/>
      <point x="510" y="0" type="line"/>
      <point x="699" y="541" type="line"/>
      <point x="526" y="541" type="line"/>
      <point x="459" y="261" type="line"/>
      <point x="434" y="153" type="line"/>
      <point x="426" y="153" type="line"/>
      <point x="439" y="261" type="line"/>
      <point x="472" y="541" type="line"/>
      <point x="285" y="541" type="line"/>
      <point x="206" y="261" type="line"/>
      <point x="177" y="153" type="line"/>
      <point x="169" y="153" type="line"/>
      <point x="187" y="261" type="line"/>
      <point x="232" y="541" type="line"/>
      <point x="65" y="541" type="line"/>
    </contour>
  </outline>
</glyph>
<glyph name="x" format="2">
  <advance width="457"/>
  <unicode hex="0078"/>
  <anchor x="184" y="0" name="bottom"/>
  <anchor x="296" y="541" name="top"/>
  <outline>
    <contour>
      <point x="-49" y="0" type="line"/>
      <point x="137" y="0" type="line"/>
      <point x="197" y="156" type="line"/>
      <point x="208" y="186" type="line"/>
      <point x="214" y="186" type="line"/>
      <point x="215" y="156" type="line"/>
      <point x="220" y="0" type="line"/>
      <point x="392" y="0" type="line"/>
      <point x="360" y="274" type="line"/>
      <point x="506" y="541" type="line"/>
      <point x="326" y="541" type="line"/>
      <point x="264" y="388" type="line"/>
      <point x="254" y="360" type="line"/>
      <point x="248" y="360" type="line"/>
      <point x="248" y="389" type="line"/>
      <point x="248" y="541" type="line"/>
      <point x="69" y="541" type="line"/>
      <point x="106" y="284" type="line"/>
    </contour>
  </outline>
</glyph>
<glyph name="y" format="2">
  <advance width="434"/>
  <unicode hex="0079"/>
  <anchor x="377" y="0" name="bottom"/>
  <anchor x="279" y="541" name="top"/>
  <outline>
    <contour>
      <point x="-37" y="-167" type="line"/>
      <point x="28" y="-167" type="line" smooth="yes"/>
      <point x="154" y="-167"/>
      <point x="223" y="-118"/>
      <point x="264" y="-15" type="curve" smooth="yes"/>
      <point x="483" y="541" type="line"/>
      <point x="316" y="541" type="line"/>
      <point x="240" y="286" type="line"/>
      <point x="210" y="177" type="line"/>
      <point x="203" y="177" type="line"/>
      <point x="216" y="288" type="line"/>
      <point x="241" y="541" type="line"/>
      <point x="63" y="541" type="line"/>
      <point x="84" y="-50" type="line"/>
      <point x="96" y="38" type="line"/>
      <point x="81" y="-8" type="line" smooth="yes"/>
      <point x="73" y="-32"/>
      <point x="57" y="-36"/>
      <point x="27" y="-36" type="curve" smooth="yes"/>
      <point x="-10" y="-36" type="line"/>
    </contour>
  </outline>
</glyph>
<glyph name="z" format="2">
  <advance width="368"/>
  <unicode hex="007A"/>
  <anchor x="138" y="0" name="bottom"/>
  <anchor x="194" y="271" name="center"/>
  <anchor x="250" y="541" name="top"/>
  <outline>
    <contour>
      <point x="-40" y="0" type="line"/>
      <point x="296" y="0" type="line"/>
      <point x="323" y="137" type="line"/>
      <point x="179" y="137" type="line"/>
      <point x="381" y="419" type="line"/>
      <point x="405" y="541" type="line"/>
      <point x="78" y="541" type="line"/>
      <point x="49" y="405" type="line"/>
      <point x="187" y="405" type="line"/>
      <point x="-15" y="124" type="line"/>
    </contour>
  </outline>
</glyph>
<glyph name="braceleft" format="2">
  <advance width="344"/>
  <unicode hex="007B"/>
  <outline>
    <contour>
      <point x="125" y="-167" type="curve" smooth="yes"/>
      <point x="234" y="-167" type="line"/>
      <point x="260" y="-42" type="line"/>
      <point x="182" y="-42" type="line"/>
      <point x="227" y="171" type="line" smooth="yes"/>
      <point x="240" y="232"/>
      <point x="234" y="282"/>
      <point x="166" y="309" type="curve"/>
      <point x="167" y="312" type="line"/>
      <point x="240" y="328"/>
      <point x="271" y="380"/>
      <point x="284" y="446" type="curve" smooth="yes"/>
      <point x="331" y="668" type="line"/>
      <point x="409" y="668" type="line"/>
      <point x="436" y="793" type="line"/>
      <point x="327" y="793" type="line" smooth="yes"/>
      <point x="240" y="793"/>
      <point x="187" y="738"/>
      <point x="172" y="666" type="curve" smooth="yes"/>
      <point x="125" y="446" type="line" smooth="yes"/>
      <point x="116" y="399"/>
      <point x="87" y="368"/>
      <point x="47" y="368" type="curve" smooth="yes"/>
      <point x="35" y="368" type="line"/>
      <point x="7" y="241" type="line"/>
      <point x="20" y="241" type="line" smooth="yes"/>
      <point x="58" y="241"/>
      <point x="78" y="214"/>
      <point x="67" y="166" type="curve" smooth="yes"/>
      <point x="24" y="-40" type="line" smooth="yes"/>
      <point x="9" y="-112"/>
      <point x="38" y="-167"/>
    </contour>
  </outline>
</glyph>
<glyph name="bar" format="2">
  <advance width="223"/>
  <unicode hex="007C"/>
  <outline>
    <contour>
      <point x="-36" y="-67" type="line"/>
      <point x="118" y="-67" type="line"/>
      <point x="285" y="729" type="line"/>
      <point x="130" y="729" type="line"/>
    </contour>
  </outline>
</glyph>
<glyph name="asciitilde" format="2">
  <advance width="480"/>
  <unicode hex="007E"/>
  <outline>
    <contour>
      <point x="34" y="278" type="curve"/>
      <point x="115" y="278" type="line"/>
      <point x="117" y="302"/>
      <point x="137" y="330"/>
      <point x="169" y="330" type="curve" smooth="yes"/>
      <point x="220" y="330"/>
      <point x="246" y="272"/>
      <point x="335" y="272" type="curve" smooth="yes"/>
      <point x="398" y="272"/>
      <point x="477" y="314"/>
      <point x="497" y="446" type="curve"/>
      <point x="417" y="446" type="line"/>
      <point x="410" y="418"/>
      <point x="387" y="394"/>
      <point x="349" y="394" type="curve" smooth="yes"/>
      <point x="289" y="394"/>
      <point x="266" y="449"/>
      <point x="190" y="449" type="curve" smooth="yes"/>
      <point x="127" y="449"/>
      <point x="51" y="405"/>
    </contour>
  </outline>
</glyph>
<glyph name="cent" format="2">
  <advance width="445"/>
  <unicode hex="00A2"/>
  <outline>
    <contour>
      <point x="211" y="84" type="curve" smooth="yes"/>
      <point x="315" y="84"/>
      <point x="399" y="145"/>
      <point x="433" y="298" type="curve"/>
      <point x="270" y="298" type="line"/>
      <point x="255" y="241"/>
      <point x="239" y="223"/>
      <point x="221" y="223" type="curve" smooth="yes"/>
      <point x="185" y="223"/>
      <point x="194" y="273"/>
      <point x="214" y="372" type="curve" smooth="yes"/>
      <point x="237" y="483"/>
      <point x="251" y="508"/>
      <point x="275" y="508" type="curve" smooth="yes"/>
      <point x="301" y="508"/>
      <point x="304" y="484"/>
      <point x="297" y="434" type="curve"/>
      <point x="462" y="434" type="line"/>
      <point x="477" y="572"/>
      <point x="422" y="646"/>
      <point x="284" y="646" type="curve" smooth="yes"/>
      <point x="160" y="646"/>
      <point x="81" y="569"/>
      <point x="42" y="382" type="curve" smooth="yes"/>
      <point x="6" y="209"/>
      <point x="37" y="84"/>
    </contour>
    <contour>
      <point x="120" y="0" type="line"/>
      <point x="223" y="0" type="line"/>
      <point x="256" y="164" type="line"/>
      <point x="153" y="164" type="line"/>
    </contour>
    <contour>
      <point x="239" y="579" type="line"/>
      <point x="342" y="579" type="line"/>
      <point x="373" y="729" type="line"/>
      <point x="270" y="729" type="line"/>
    </contour>
  </outline>
</glyph>
<glyph name="sterling" format="2">
  <advance width="513"/>
  <unicode hex="00A3"/>
  <outline>
    <contour>
      <point x="37" y="132" type="curve"/>
      <point x="164" y="132" type="line"/>
      <point x="240" y="179"/>
      <point x="266" y="230"/>
      <point x="280" y="299" type="curve" smooth="yes"/>
      <point x="295" y="372"/>
      <point x="287" y="452"/>
      <point x="299" y="517" type="curve" smooth="yes"/>
      <point x="309" y="570"/>
      <point x="328" y="588"/>
      <point x="354" y="588" type="curve" smooth="yes"/>
      <point x="392" y="588"/>
      <point x="388" y="548"/>
      <point x="378" y="501" type="curve"/>
      <point x="540" y="501" type="line"/>
      <point x="566" y="643"/>
      <point x="501" y="736"/>
      <point x="363" y="737" type="curve" smooth="yes"/>
      <point x="240" y="738"/>
      <point x="157" y="675"/>
      <point x="130" y="542" type="curve" smooth="yes"/>
      <point x="107" y="431"/>
      <point x="123" y="366"/>
      <point x="107" y="289" type="curve" smooth="yes"/>
      <point x="97" y="241"/>
      <point x="76" y="195"/>
    </contour>
    <contour>
      <point x="-36" y="0" type="line"/>
      <point x="433" y="0" type="line"/>
      <point x="479" y="223" type="line"/>
      <point x="336" y="223" type="line"/>
      <point x="318" y="135" type="line"/>
      <point x="-8" y="135" type="line"/>
    </contour>
    <contour>
      <point x="32" y="296" type="line"/>
      <point x="373" y="296" type="line"/>
      <point x="399" y="420" type="line"/>
      <point x="58" y="420" type="line"/>
    </contour>
  </outline>
</glyph>
<glyph name="currency" format="2">
  <advance width="637"/>
  <unicode hex="00A4"/>
  <outline>
    <contour>
      <point x="146" y="85" type="line"/>
      <point x="244" y="182" type="line"/>
      <point x="270" y="172"/>
      <point x="297" y="166"/>
      <point x="330" y="166" type="curve" smooth="yes"/>
      <point x="362" y="166"/>
      <point x="390" y="172"/>
      <point x="417" y="182" type="curve"/>
      <point x="509" y="85" type="line"/>
      <point x="604" y="179" type="line"/>
      <point x="518" y="269" type="line"/>
      <point x="533" y="297"/>
      <point x="541" y="327"/>
      <point x="542" y="360" type="curve" smooth="yes"/>
      <point x="543" y="394"/>
      <point x="538" y="425"/>
      <point x="524" y="454" type="curve"/>
      <point x="616" y="543" type="line"/>
      <point x="527" y="637" type="line"/>
      <point x="428" y="539" type="line"/>
      <point x="402" y="549"/>
      <point x="370" y="554"/>
      <point x="343" y="554" type="curve" smooth="yes"/>
      <point x="316" y="554"/>
      <point x="285" y="549"/>
      <point x="258" y="539" type="curve"/>
      <point x="166" y="637" type="line"/>
      <point x="70" y="543" type="line"/>
      <point x="156" y="454" type="line"/>
      <point x="141" y="426"/>
      <point x="133" y="393"/>
      <point x="131" y="360" type="curve" smooth="yes"/>
      <point x="130" y="329"/>
      <point x="135" y="298"/>
      <point x="149" y="269" type="curve"/>
      <point x="57" y="179" type="line"/>
    </contour>
    <contour>
      <point x="334" y="294" type="curve" smooth="yes"/>
      <point x="296" y="294"/>
      <point x="268" y="320"/>
      <point x="269" y="360" type="curve" smooth="yes"/>
      <point x="270" y="400"/>
      <point x="301" y="427"/>
      <point x="339" y="427" type="curve" smooth="yes"/>
      <point x="377" y="427"/>
      <point x="406" y="400"/>
      <point x="405" y="360" type="curve" smooth="yes"/>
      <point x="403" y="320"/>
      <point x="372" y="294"/>
    </contour>
  </outline>
</glyph>
<glyph name="yen" format="2">
  <advance width="502"/>
  <unicode hex="00A5"/>
  <outline>
    <contour>
      <point x="101" y="0" type="line"/>
      <point x="288" y="0" type="line"/>
      <point x="309" y="103" type="line"/>
      <point x="398" y="103" type="line"/>
      <point x="425" y="234" type="line"/>
      <point x="335" y="234" type="line"/>
      <point x="344" y="276" type="line"/>
      <point x="434" y="276" type="line"/>
      <point x="462" y="408" type="line"/>
      <point x="414" y="408" type="line"/>
      <point x="583" y="729" type="line"/>
      <point x="386" y="729" type="line"/>
      <point x="293" y="472" type="line"/>
      <point x="286" y="472" type="line"/>
      <point x="283" y="729" type="line"/>
      <point x="109" y="729" type="line"/>
      <point x="143" y="408" type="line"/>
      <point x="102" y="408" type="line"/>
      <point x="74" y="276" type="line"/>
      <point x="159" y="276" type="line"/>
      <point x="150" y="234" type="line"/>
      <point x="65" y="234" type="line"/>
      <point x="37" y="103" type="line"/>
      <point x="123" y="103" type="line"/>
    </contour>
  </outline>
</glyph>
<glyph name="brokenbar" format="2">
  <advance width="223"/>
  <unicode hex="00A6"/>
  <outline>
    <contour>
      <point x="58" y="380" type="line"/>
      <point x="212" y="380" type="line"/>
      <point x="285" y="729" type="line"/>
      <point x="130" y="729" type="line"/>
    </contour>
    <contour>
      <point x="-36" y="-67" type="line"/>
      <point x="118" y="-67" type="line"/>
      <point x="191" y="282" type="line"/>
      <point x="36" y="282" type="line"/>
    </contour>
  </outline>
</glyph>
<glyph name="section" format="2">
  <advance width="434"/>
  <unicode hex="00A7"/>
  <outline>
    <contour>
      <point x="177" y="-10" type="curve" smooth="yes"/>
      <point x="295" y="-10"/>
      <point x="385" y="60"/>
      <point x="385" y="165" type="curve" smooth="yes"/>
      <point x="385" y="208"/>
      <point x="378" y="229"/>
      <point x="363" y="248" type="curve"/>
      <point x="407" y="274"/>
      <point x="432" y="314"/>
      <point x="432" y="372" type="curve" smooth="yes"/>
      <point x="432" y="457"/>
      <point x="379" y="491"/>
      <point x="325" y="522" type="curve" smooth="yes"/>
      <point x="280" y="548"/>
      <point x="262" y="561"/>
      <point x="262" y="588" type="curve" smooth="yes"/>
      <point x="262" y="611"/>
      <point x="272" y="630"/>
      <point x="295" y="630" type="curve" smooth="yes"/>
      <point x="324" y="630"/>
      <point x="327" y="609"/>
      <point x="320" y="565" type="curve"/>
      <point x="470" y="565" type="line"/>
      <point x="483" y="683"/>
      <point x="412" y="739"/>
      <point x="289" y="739" type="curve" smooth="yes"/>
      <point x="182" y="739"/>
      <point x="104" y="672"/>
      <point x="104" y="585" type="curve" smooth="yes"/>
      <point x="104" y="548"/>
      <point x="116" y="513"/>
      <point x="139" y="493" type="curve"/>
      <point x="82" y="469"/>
      <point x="48" y="418"/>
      <point x="48" y="367" type="curve" smooth="yes"/>
      <point x="48" y="299"/>
      <point x="89" y="255"/>
      <point x="141" y="222" type="curve" smooth="yes"/>
      <point x="196" y="187"/>
      <point x="208" y="175"/>
      <point x="208" y="145" type="curve" smooth="yes"/>
      <point x="208" y="122"/>
      <point x="202" y="102"/>
      <point x="176" y="102" type="curve" smooth="yes"/>
      <point x="145" y="102"/>
      <point x="144" y="134"/>
      <point x="152" y="169" type="curve"/>
      <point x="-5" y="169" type="line"/>
      <point x="-17" y="46"/>
      <point x="51" y="-10"/>
    </contour>
    <contour>
      <point x="263" y="321" type="curve"/>
      <point x="258" y="325"/>
      <point x="251" y="329"/>
      <point x="241" y="334" type="curve" smooth="yes"/>
      <point x="208" y="351"/>
      <point x="196" y="364"/>
      <point x="196" y="383" type="curve" smooth="yes"/>
      <point x="196" y="396"/>
      <point x="203" y="407"/>
      <point x="214" y="417" type="curve"/>
      <point x="221" y="412"/>
      <point x="226" y="409"/>
      <point x="234" y="405" type="curve" smooth="yes"/>
      <point x="262" y="389"/>
      <point x="282" y="375"/>
      <point x="277" y="349" type="curve" smooth="yes"/>
      <point x="275" y="338"/>
      <point x="272" y="330"/>
    </contour>
  </outline>
</glyph>
<glyph name="ordfeminine" format="2">
  <advance width="323"/>
  <unicode hex="00AA"/>
  <outline>
    <contour>
      <point x="134" y="370" type="curve" smooth="yes"/>
      <point x="164" y="370"/>
      <point x="189" y="387"/>
      <point x="204" y="414" type="curve"/>
      <point x="208" y="413" type="line"/>
      <point x="205" y="377" type="line"/>
      <point x="319" y="377" type="line"/>
      <point x="391" y="729" type="line"/>
      <point x="278" y="729" type="line"/>
      <point x="266" y="683" type="line"/>
      <point x="262" y="683" type="line"/>
      <point x="256" y="719"/>
      <point x="232" y="736"/>
      <point x="196" y="736" type="curve" smooth="yes"/>
      <point x="145" y="736"/>
      <point x="105" y="693"/>
      <point x="77" y="559" type="curve" smooth="yes"/>
      <point x="57" y="462"/>
      <point x="50" y="370"/>
    </contour>
    <contour>
      <point x="196" y="459" type="curve" smooth="yes"/>
      <point x="176" y="459"/>
      <point x="180" y="490"/>
      <point x="193" y="551" type="curve" smooth="yes"/>
      <point x="206" y="614"/>
      <point x="215" y="641"/>
      <point x="233" y="641" type="curve" smooth="yes"/>
      <point x="257" y="641"/>
      <point x="248" y="601"/>
      <point x="238" y="557" type="curve" smooth="yes"/>
      <point x="234" y="539" type="line" smooth="yes"/>
      <point x="222" y="482"/>
      <point x="213" y="459"/>
    </contour>
  </outline>
</glyph>
<glyph name="guillemetleft" format="2">
  <advance width="586"/>
  <unicode hex="00AB"/>
  <outline>
    <contour>
      <point x="154" y="100" type="line"/>
      <point x="304" y="100" type="line"/>
      <point x="208" y="320" type="line"/>
      <point x="355" y="541" type="line"/>
      <point x="200" y="541" type="line"/>
      <point x="35" y="320" type="line"/>
    </contour>
    <contour>
      <point x="376" y="99" type="line"/>
      <point x="529" y="99" type="line"/>
      <point x="441" y="320" type="line"/>
      <point x="596" y="541" type="line"/>
      <point x="434" y="541" type="line"/>
      <point x="270" y="320" type="line"/>
    </contour>
  </outline>
</glyph>
<glyph name="logicalnot" format="2">
  <advance width="480"/>
  <unicode hex="00AC"/>
  <outline>
    <contour>
      <point x="300" y="139" type="line"/>
      <point x="442" y="139" type="line"/>
      <point x="503" y="428" type="line"/>
      <point x="33" y="428" type="line"/>
      <point x="2" y="281" type="line"/>
      <point x="330" y="281" type="line"/>
    </contour>
  </outline>
</glyph>
<glyph name="registered" format="2">
  <advance width="493"/>
  <unicode hex="00AE"/>
  <outline>
    <contour>
      <point x="255" y="207" type="curve" smooth="yes"/>
      <point x="379" y="207"/>
      <point x="480" y="303"/>
      <point x="511" y="455" type="curve" smooth="yes"/>
      <point x="544" y="614"/>
      <point x="473" y="738"/>
      <point x="321" y="738" type="curve" smooth="yes"/>
      <point x="198" y="738"/>
      <point x="97" y="642"/>
      <point x="66" y="493" type="curve" smooth="yes"/>
      <point x="32" y="332"/>
      <point x="101" y="207"/>
    </contour>
    <contour>
      <point x="260" y="258" type="curve" smooth="yes"/>
      <point x="143" y="258"/>
      <point x="87" y="356"/>
      <point x="114" y="486" type="curve" smooth="yes"/>
      <point x="140" y="609"/>
      <point x="219" y="687"/>
      <point x="317" y="687" type="curve" smooth="yes"/>
      <point x="437" y="687"/>
      <point x="487" y="583"/>
      <point x="461" y="456" type="curve" smooth="yes"/>
      <point x="435" y="334"/>
      <point x="357" y="258"/>
    </contour>
    <contour>
      <point x="163" y="326" type="line"/>
      <point x="241" y="326" type="line"/>
      <point x="291" y="561" type="line"/>
      <point x="298" y="561" type="line" smooth="yes"/>
      <point x="317" y="561"/>
      <point x="322" y="551"/>
      <point x="318" y="530" type="curve" smooth="yes"/>
      <point x="314" y="505"/>
      <point x="302" y="495"/>
      <point x="285" y="495" type="curve" smooth="yes"/>
      <point x="262" y="495" type="line"/>
      <point x="249" y="437" type="line"/>
      <point x="277" y="437" type="line" smooth="yes"/>
      <point x="293" y="437"/>
      <point x="296" y="423"/>
      <point x="292" y="405" type="curve" smooth="yes"/>
      <point x="281" y="357" type="line" smooth="yes"/>
      <point x="278" y="346"/>
      <point x="277" y="334"/>
      <point x="278" y="326" type="curve"/>
      <point x="354" y="326" type="line"/>
      <point x="353" y="334"/>
      <point x="355" y="349"/>
      <point x="357" y="358" type="curve" smooth="yes"/>
      <point x="371" y="418" type="line" smooth="yes"/>
      <point x="377" y="445"/>
      <point x="370" y="468"/>
      <point x="348" y="471" type="curve"/>
      <point x="348" y="473" type="line"/>
      <point x="377" y="477"/>
      <point x="400" y="504"/>
      <point x="402" y="549" type="curve" smooth="yes"/>
      <point x="404" y="590"/>
      <point x="390" y="625"/>
      <point x="320" y="625" type="curve" smooth="yes"/>
      <point x="227" y="625" type="line"/>
    </contour>
  </outline>
</glyph>
<glyph name="degree" format="2">
  <advance width="425"/>
  <unicode hex="00B0"/>
  <outline>
    <contour>
      <point x="267" y="386" type="curve" smooth="yes"/>
      <point x="379" y="386"/>
      <point x="463" y="460"/>
      <point x="463" y="571" type="curve" smooth="yes"/>
      <point x="463" y="672"/>
      <point x="386" y="739"/>
      <point x="279" y="739" type="curve" smooth="yes"/>
      <point x="167" y="739"/>
      <point x="83" y="666"/>
      <point x="83" y="555" type="curve" smooth="yes"/>
      <point x="83" y="454"/>
      <point x="160" y="386"/>
    </contour>
    <contour>
      <point x="271" y="506" type="curve" smooth="yes"/>
      <point x="240" y="506"/>
      <point x="216" y="525"/>
      <point x="216" y="559" type="curve" smooth="yes"/>
      <point x="216" y="597"/>
      <point x="242" y="619"/>
      <point x="275" y="619" type="curve" smooth="yes"/>
      <point x="306" y="619"/>
      <point x="330" y="600"/>
      <point x="330" y="567" type="curve" smooth="yes"/>
      <point x="330" y="529"/>
      <point x="304" y="506"/>
    </contour>
  </outline>
</glyph>
<glyph name="plusminus" format="2">
  <advance width="480"/>
  <unicode hex="00B1"/>
  <outline>
    <contour>
      <point x="149" y="189" type="line"/>
      <point x="296" y="189" type="line"/>
      <point x="322" y="311" type="line"/>
      <point x="468" y="311" type="line"/>
      <point x="498" y="451" type="line"/>
      <point x="351" y="451" type="line"/>
      <point x="376" y="573" type="line"/>
      <point x="230" y="573" type="line"/>
      <point x="205" y="451" type="line"/>
      <point x="58" y="451" type="line"/>
      <point x="29" y="311" type="line"/>
      <point x="175" y="311" type="line"/>
    </contour>
    <contour>
      <point x="-37" y="0" type="line"/>
      <point x="403" y="0" type="line"/>
      <point x="430" y="132" type="line"/>
      <point x="-9" y="132" type="line"/>
    </contour>
  </outline>
</glyph>
<glyph name="paragraph" format="2">
  <advance width="736"/>
  <unicode hex="00B6"/>
  <outline>
    <contour>
      <point x="282" y="0" type="line"/>
      <point x="414" y="0" type="line"/>
      <point x="414" y="593" type="line"/>
      <point x="487" y="593" type="line"/>
      <point x="487" y="0" type="line"/>
      <point x="666" y="0" type="line"/>
      <point x="666" y="593" type="line"/>
      <point x="740" y="593" type="line"/>
      <point x="740" y="729" type="line"/>
      <point x="282" y="729" type="line" smooth="yes"/>
      <point x="160" y="729"/>
      <point x="78" y="658"/>
      <point x="78" y="551" type="curve" smooth="yes"/>
      <point x="78" y="437"/>
      <point x="160" y="381"/>
      <point x="282" y="381" type="curve"/>
    </contour>
  </outline>
</glyph>
<glyph name="periodcentered" format="2">
  <advance width="209"/>
  <unicode hex="00B7"/>
  <outline>
    <contour>
      <point x="103" y="181" type="curve" smooth="yes"/>
      <point x="162" y="181"/>
      <point x="202" y="224"/>
      <point x="202" y="281" type="curve" smooth="yes"/>
      <point x="202" y="334"/>
      <point x="166" y="373"/>
      <point x="110" y="373" type="curve" smooth="yes"/>
      <point x="53" y="373"/>
      <point x="10" y="330"/>
      <point x="10" y="273" type="curve" smooth="yes"/>
      <point x="10" y="220"/>
      <point x="49" y="181"/>
    </contour>
  </outline>
</glyph>
<glyph name="ordmasculine" format="2">
  <advance width="309"/>
  <unicode hex="00BA"/>
  <anchor x="183" y="377" name="bottom"/>
  <anchor x="213" y="553" name="center"/>
  <anchor x="304" y="384" name="ogonek"/>
  <anchor x="248" y="729" name="top"/>
  <anchor x="393" y="729" name="topright"/>
  <outline>
    <contour>
      <point x="190" y="370" type="curve" smooth="yes"/>
      <point x="272" y="370"/>
      <point x="325" y="424"/>
      <point x="351" y="548" type="curve" smooth="yes"/>
      <point x="375" y="663"/>
      <point x="348" y="736"/>
      <point x="236" y="736" type="curve" smooth="yes"/>
      <point x="157" y="736"/>
      <point x="102" y="690"/>
      <point x="76" y="565" type="curve" smooth="yes"/>
      <point x="49" y="436"/>
      <point x="83" y="370"/>
    </contour>
    <contour>
      <point x="195" y="463" type="curve" smooth="yes"/>
      <point x="172" y="463"/>
      <point x="177" y="492"/>
      <point x="191" y="558" type="curve" smooth="yes"/>
      <point x="206" y="630"/>
      <point x="215" y="644"/>
      <point x="231" y="644" type="curve" smooth="yes"/>
      <point x="254" y="644"/>
      <point x="247" y="605"/>
      <point x="235" y="552" type="curve" smooth="yes"/>
      <point x="220" y="483"/>
      <point x="211" y="463"/>
    </contour>
  </outline>
</glyph>
<glyph name="AE" format="2">
  <advance width="616"/>
  <unicode hex="00C6"/>
  <anchor x="252" y="0" name="bottom"/>
  <anchor x="403" y="729" name="top"/>
  <outline>
    <contour>
      <point x="-46" y="0" type="line"/>
      <point x="133" y="0" type="line"/>
      <point x="168" y="120" type="line"/>
      <point x="270" y="120" type="line"/>
      <point x="260" y="0" type="line"/>
      <point x="540" y="0" type="line"/>
      <point x="572" y="157" type="line"/>
      <point x="438" y="157" type="line"/>
      <point x="443" y="299" type="line"/>
      <point x="587" y="299" type="line"/>
      <point x="618" y="445" type="line"/>
      <point x="448" y="445" type="line"/>
      <point x="453" y="572" type="line"/>
      <point x="660" y="572" type="line"/>
      <point x="691" y="729" type="line"/>
      <point x="220" y="729" type="line"/>
    </contour>
    <contour>
      <point x="209" y="260" type="line"/>
      <point x="276" y="490" type="line"/>
      <point x="301" y="583" type="line"/>
      <point x="309" y="583" type="line"/>
      <point x="300" y="490" type="line"/>
      <point x="281" y="260" type="line"/>
    </contour>
  </outline>
</glyph>
<glyph name="multiply" format="2">
  <advance width="480"/>
  <unicode hex="00D7"/>
  <outline>
    <contour>
      <point x="96" y="141" type="line"/>
      <point x="248" y="268" type="line"/>
      <point x="344" y="146" type="line"/>
      <point x="455" y="239" type="line"/>
      <point x="360" y="361" type="line"/>
      <point x="506" y="483" type="line"/>
      <point x="425" y="586" type="line"/>
      <point x="279" y="464" type="line"/>
      <point x="188" y="581" type="line"/>
      <point x="76" y="488" type="line"/>
      <point x="168" y="371" type="line"/>
      <point x="15" y="244" type="line"/>
    </contour>
  </outline>
</glyph>
<glyph name="germandbls" format="2">
  <advance width="589"/>
  <unicode hex="00DF"/>
  <outline>
    <contour>
      <point x="35" y="0" type="line"/>
      <point x="208" y="0" type="line"/>
      <point x="316" y="519" type="line" smooth="yes"/>
      <point x="325" y="560"/>
      <point x="348" y="579"/>
      <point x="380" y="579" type="curve" smooth="yes"/>
      <point x="414" y="579"/>
      <point x="435" y="560"/>
      <point x="434" y="522" type="curve" smooth="yes"/>
      <point x="432" y="467"/>
      <point x="399" y="431"/>
      <point x="352" y="431" type="curve" smooth="yes"/>
      <point x="334" y="431" type="line"/>
      <point x="309" y="313" type="line"/>
      <point x="331" y="313" type="line" smooth="yes"/>
      <point x="380" y="313"/>
      <point x="405" y="285"/>
      <point x="394" y="225" type="curve" smooth="yes"/>
      <point x="382" y="163"/>
      <point x="349" y="137"/>
      <point x="290" y="137" type="curve" smooth="yes"/>
      <point x="273" y="137" type="line"/>
      <point x="244" y="0" type="line"/>
      <point x="308" y="0" type="line" smooth="yes"/>
      <point x="441" y="0"/>
      <point x="541" y="66"/>
      <point x="561" y="183" type="curve" smooth="yes"/>
      <point x="576" y="270"/>
      <point x="550" y="358"/>
      <point x="471" y="379" type="curve"/>
      <point x="473" y="387" type="line"/>
      <point x="539" y="401"/>
      <point x="586" y="457"/>
      <point x="598" y="528" type="curve" smooth="yes"/>
      <point x="618" y="653"/>
      <point x="534" y="736"/>
      <point x="404" y="736" type="curve" smooth="yes"/>
      <point x="272" y="736"/>
      <point x="175" y="668"/>
      <point x="145" y="526" type="curve" smooth="yes"/>
    </contour>
    <contour>
      <point x="38" y="403" type="line"/>
      <point x="135" y="403" type="line"/>
      <point x="165" y="541" type="line"/>
      <point x="67" y="541" type="line"/>
    </contour>
  </outline>
</glyph>
<glyph name="ae" format="2">
  <advance width="672"/>
  <unicode hex="00E6"/>
  <outline>
    <contour>
      <point x="117" y="-10" type="curve" smooth="yes"/>
      <point x="179" y="-10"/>
      <point x="232" y="13"/>
      <point x="263" y="59" type="curve"/>
      <point x="266" y="59" type="line"/>
      <point x="289" y="19"/>
      <point x="342" y="-10"/>
      <point x="411" y="-10" type="curve" smooth="yes"/>
      <point x="521" y="-10"/>
      <point x="605" y="42"/>
      <point x="640" y="186" type="curve"/>
      <point x="474" y="186" type="line"/>
      <point x="461" y="135"/>
      <point x="447" y="119"/>
      <point x="427" y="119" type="curve" smooth="yes"/>
      <point x="406" y="119"/>
      <point x="398" y="141"/>
      <point x="415" y="229" type="curve" smooth="yes"/>
      <point x="429" y="301" type="line" smooth="yes"/>
      <point x="447" y="395"/>
      <point x="465" y="421"/>
      <point x="487" y="421" type="curve" smooth="yes"/>
      <point x="515" y="421"/>
      <point x="513" y="379"/>
      <point x="503" y="328" type="curve"/>
      <point x="420" y="328" type="line"/>
      <point x="399" y="225" type="line"/>
      <point x="648" y="225" type="line"/>
      <point x="697" y="420"/>
      <point x="653" y="551"/>
      <point x="493" y="551" type="curve" smooth="yes"/>
      <point x="451" y="551"/>
      <point x="414" y="542"/>
      <point x="383" y="521" type="curve"/>
      <point x="381" y="521" type="line"/>
      <point x="351" y="542"/>
      <point x="312" y="551"/>
      <point x="266" y="551" type="curve" smooth="yes"/>
      <point x="139" y="551"/>
      <point x="63" y="484"/>
      <point x="42" y="357" type="curve"/>
      <point x="207" y="357" type="line"/>
      <point x="213" y="393"/>
      <point x="225" y="417"/>
      <point x="251" y="417" type="curve" smooth="yes"/>
      <point x="280" y="417"/>
      <point x="281" y="392"/>
      <point x="275" y="361" type="curve" smooth="yes"/>
      <point x="235" y="162" type="line" smooth="yes"/>
      <point x="228" y="129"/>
      <point x="215" y="114"/>
      <point x="191" y="114" type="curve" smooth="yes"/>
      <point x="171" y="114"/>
      <point x="157" y="126"/>
      <point x="157" y="152" type="curve" smooth="yes"/>
      <point x="157" y="190"/>
      <point x="179" y="214"/>
      <point x="221" y="214" type="curve" smooth="yes"/>
      <point x="267" y="214" type="line"/>
      <point x="289" y="317" type="line"/>
      <point x="217" y="317" type="line" smooth="yes"/>
      <point x="62" y="317"/>
      <point x="-14" y="237"/>
      <point x="-14" y="126" type="curve" smooth="yes"/>
      <point x="-14" y="44"/>
      <point x="38" y="-10"/>
    </contour>
  </outline>
</glyph>
<glyph name="eth" format="2">
  <advance width="447"/>
  <unicode hex="00F0"/>
  <outline>
    <contour>
      <point x="182" y="-10" type="curve" smooth="yes"/>
      <point x="315" y="-10"/>
      <point x="396" y="80"/>
      <point x="435" y="278" type="curve" smooth="yes"/>
      <point x="463" y="419"/>
      <point x="445" y="599"/>
      <point x="394" y="729" type="curve"/>
      <point x="222" y="729" type="line"/>
      <point x="267" y="627"/>
      <point x="293" y="528"/>
      <point x="297" y="419" type="curve"/>
      <point x="290" y="419" type="line"/>
      <point x="280" y="459"/>
      <point x="245" y="486"/>
      <point x="194" y="486" type="curve" smooth="yes"/>
      <point x="105" y="486"/>
      <point x="43" y="414"/>
      <point x="15" y="276" type="curve" smooth="yes"/>
      <point x="-23" y="90"/>
      <point x="32" y="-10"/>
    </contour>
    <contour>
      <point x="198" y="133" type="curve" smooth="yes"/>
      <point x="164" y="133"/>
      <point x="170" y="181"/>
      <point x="183" y="242" type="curve" smooth="yes"/>
      <point x="200" y="323"/>
      <point x="218" y="344"/>
      <point x="234" y="344" type="curve" smooth="yes"/>
      <point x="265" y="344"/>
      <point x="262" y="301"/>
      <point x="248" y="234" type="curve" smooth="yes"/>
      <point x="232" y="160"/>
      <point x="219" y="133"/>
    </contour>
    <contour>
      <point x="173" y="511" type="line"/>
      <point x="482" y="547" type="line"/>
      <point x="508" y="661" type="line"/>
      <point x="196" y="626" type="line"/>
    </contour>
  </outline>
</glyph>
<glyph name="divide" format="2">
  <advance width="480"/>
  <unicode hex="00F7"/>
  <outline>
    <contour>
      <point x="24" y="291" type="line"/>
      <point x="464" y="291" type="line"/>
      <point x="493" y="431" type="line"/>
      <point x="54" y="431" type="line"/>
    </contour>
    <contour>
      <point x="131" y="115" type="line"/>
      <point x="284" y="115" type="line"/>
      <point x="309" y="237" type="line"/>
      <point x="156" y="237" type="line"/>
    </contour>
    <contour>
      <point x="208" y="485" type="line"/>
      <point x="361" y="485" type="line"/>
      <point x="387" y="607" type="line"/>
      <point x="234" y="607" type="line"/>
    </contour>
  </outline>
</glyph>
<glyph name="idotless" format="2">
  <advance width="229"/>
  <unicode hex="0131"/>
  <anchor x="58" y="0" name="bottom"/>
  <anchor x="146" y="0" name="ogonek"/>
  <anchor x="171" y="541" name="top"/>
  <outline>
    <contour>
      <point x="-30" y="0" type="line"/>
      <point x="146" y="0" type="line"/>
      <point x="259" y="541" type="line"/>
      <point x="83" y="541" type="line"/>
    </contour>
  </outline>
</glyph>
<glyph name="Eng" format="2">
  <advance width="483"/>
  <unicode hex="014A"/>
  <outline>
    <contour>
      <point x="-27" y="0" type="line"/>
      <point x="136" y="0" type="line"/>
      <point x="167" y="157" type="line"/>
      <point x="202" y="358" type="line"/>
      <point x="208" y="358" type="line"/>
      <point x="213" y="0" type="line"/>
      <point x="398" y="0" type="line"/>
      <point x="549" y="729" type="line"/>
      <point x="387" y="729" type="line"/>
      <point x="355" y="575" type="line"/>
      <point x="322" y="366" type="line"/>
      <point x="315" y="366" type="line"/>
      <point x="312" y="729" type="line"/>
      <point x="125" y="729" type="line"/>
    </contour>
    <contour>
      <point x="129" y="-167" type="line"/>
      <point x="211" y="-167" type="line" smooth="yes"/>
      <point x="327" y="-167"/>
      <point x="375" y="-111"/>
      <point x="397" y="-5" type="curve"/>
      <point x="398" y="0" type="line"/>
      <point x="241" y="0" type="line"/>
      <point x="240" y="-5" type="line"/>
      <point x="234" y="-32"/>
      <point x="226" y="-40"/>
      <point x="200" y="-40" type="curve" smooth="yes"/>
      <point x="155" y="-40" type="line"/>
    </contour>
  </outline>
</glyph>
<glyph name="eng" format="2">
  <advance width="471"/>
  <unicode hex="014B"/>
  <outline>
    <contour>
      <point x="126" y="-167" type="line"/>
      <point x="206" y="-167" type="line" smooth="yes"/>
      <point x="314" y="-167"/>
      <point x="368" y="-117"/>
      <point x="389" y="-12" type="curve" smooth="yes"/>
      <point x="463" y="338" type="line" smooth="yes"/>
      <point x="489" y="461"/>
      <point x="479" y="551"/>
      <point x="363" y="551" type="curve" smooth="yes"/>
      <point x="318" y="551"/>
      <point x="282" y="525"/>
      <point x="254" y="485" type="curve"/>
      <point x="247" y="485" type="line"/>
      <point x="254" y="541" type="line"/>
      <point x="83" y="541" type="line"/>
      <point x="-30" y="0" type="line"/>
      <point x="147" y="0" type="line"/>
      <point x="216" y="337" type="line" smooth="yes"/>
      <point x="226" y="387"/>
      <point x="239" y="417"/>
      <point x="267" y="417" type="curve" smooth="yes"/>
      <point x="293" y="417"/>
      <point x="299" y="396"/>
      <point x="287" y="340" type="curve" smooth="yes"/>
      <point x="217" y="-1" type="line" smooth="yes"/>
      <point x="211" y="-29"/>
      <point x="198" y="-47"/>
      <point x="172" y="-47" type="curve" smooth="yes"/>
      <point x="150" y="-47" type="line"/>
    </contour>
  </outline>
</glyph>
<glyph name="OE" format="2">
  <advance width="629"/>
  <unicode hex="0152"/>
  <anchor x="259" y="0" name="bottom"/>
  <anchor x="410" y="729" name="top"/>
  <outline>
    <contour>
      <point x="179" y="-10" type="curve" smooth="yes"/>
      <point x="203" y="-10"/>
      <point x="232" y="-6"/>
      <point x="252" y="0" type="curve"/>
      <point x="553" y="0" type="line"/>
      <point x="585" y="157" type="line"/>
      <point x="431" y="157" type="line"/>
      <point x="460" y="299" type="line"/>
      <point x="600" y="299" type="line"/>
      <point x="631" y="445" type="line"/>
      <point x="491" y="445" type="line"/>
      <point x="517" y="572" type="line"/>
      <point x="673" y="572" type="line"/>
      <point x="704" y="729" type="line"/>
      <point x="375" y="729" type="line"/>
      <point x="352" y="736"/>
      <point x="324" y="739"/>
      <point x="305" y="739" type="curve" smooth="yes"/>
      <point x="162" y="739"/>
      <point x="92" y="635"/>
      <point x="40" y="382" type="curve" smooth="yes"/>
      <point x="-6" y="160"/>
      <point x="7" y="-10"/>
    </contour>
    <contour>
      <point x="231" y="146" type="curve" smooth="yes"/>
      <point x="171" y="146"/>
      <point x="191" y="249"/>
      <point x="217" y="376" type="curve" smooth="yes"/>
      <point x="250" y="539"/>
      <point x="270" y="583"/>
      <point x="309" y="583" type="curve" smooth="yes"/>
      <point x="325" y="583"/>
      <point x="335" y="577"/>
      <point x="342" y="567" type="curve"/>
      <point x="255" y="149" type="line"/>
      <point x="249" y="147"/>
      <point x="243" y="146"/>
    </contour>
  </outline>
</glyph>
<glyph name="oe" format="2">
  <advance width="690"/>
  <unicode hex="0153"/>
  <anchor x="299" y="0" name="bottom"/>
  <anchor x="401" y="541" name="top"/>
  <outline>
    <contour>
      <point x="190" y="-10" type="curve" smooth="yes"/>
      <point x="237" y="-10"/>
      <point x="278" y="1"/>
      <point x="313" y="27" type="curve"/>
      <point x="311" y="27" type="line"/>
      <point x="341" y="2"/>
      <point x="383" y="-10"/>
      <point x="439" y="-10" type="curve" smooth="yes"/>
      <point x="539" y="-10"/>
      <point x="620" y="38"/>
      <point x="658" y="186" type="curve"/>
      <point x="492" y="186" type="line"/>
      <point x="478" y="135"/>
      <point x="465" y="119"/>
      <point x="445" y="119" type="curve" smooth="yes"/>
      <point x="411" y="119"/>
      <point x="419" y="178"/>
      <point x="439" y="262" type="curve" smooth="yes"/>
      <point x="447" y="301" type="line" smooth="yes"/>
      <point x="465" y="395"/>
      <point x="483" y="421"/>
      <point x="505" y="421" type="curve" smooth="yes"/>
      <point x="532" y="421"/>
      <point x="531" y="381"/>
      <point x="522" y="332" type="curve"/>
      <point x="524" y="334" type="line"/>
      <point x="438" y="334" type="line"/>
      <point x="417" y="235" type="line"/>
      <point x="668" y="235" type="line"/>
      <point x="713" y="425"/>
      <point x="688" y="551"/>
      <point x="511" y="551" type="curve" smooth="yes"/>
      <point x="462" y="551"/>
      <point x="422" y="540"/>
      <point x="388" y="516" type="curve"/>
      <point x="390" y="516" type="line"/>
      <point x="360" y="539"/>
      <point x="318" y="551"/>
      <point x="261" y="551" type="curve" smooth="yes"/>
      <point x="142" y="551"/>
      <point x="58" y="481"/>
      <point x="18" y="288" type="curve" smooth="yes"/>
      <point x="-24" y="90"/>
      <point x="29" y="-10"/>
    </contour>
    <contour>
      <point x="198" y="128" type="curve" smooth="yes"/>
      <point x="160" y="128"/>
      <point x="169" y="178"/>
      <point x="190" y="278" type="curve" smooth="yes"/>
      <point x="213" y="386"/>
      <point x="227" y="414"/>
      <point x="254" y="414" type="curve" smooth="yes"/>
      <point x="291" y="414"/>
      <point x="280" y="354"/>
      <point x="261" y="265" type="curve" smooth="yes"/>
      <point x="239" y="165"/>
      <point x="224" y="128"/>
    </contour>
  </outline>
</glyph>
<glyph name="florin" format="2">
  <advance width="355"/>
  <unicode hex="0192"/>
  <outline>
    <contour>
      <point x="-68" y="-177" type="line"/>
      <point x="-26" y="-177" type="line" smooth="yes"/>
      <point x="120" y="-177"/>
      <point x="188" y="-107"/>
      <point x="212" y="11" type="curve" smooth="yes"/>
      <point x="322" y="541" type="line" smooth="yes"/>
      <point x="330" y="579"/>
      <point x="348" y="605"/>
      <point x="387" y="605" type="curve" smooth="yes"/>
      <point x="399" y="605" type="line"/>
      <point x="425" y="729" type="line"/>
      <point x="383" y="729" type="line" smooth="yes"/>
      <point x="237" y="729"/>
      <point x="169" y="659"/>
      <point x="145" y="541" type="curve" smooth="yes"/>
      <point x="35" y="11" type="line" smooth="yes"/>
      <point x="27" y="-27"/>
      <point x="9" y="-53"/>
      <point x="-30" y="-53" type="curve" smooth="yes"/>
      <point x="-42" y="-53" type="line"/>
    </contour>
    <contour>
      <point x="50" y="320" type="line"/>
      <point x="326" y="320" type="line"/>
      <point x="351" y="440" type="line"/>
      <point x="75" y="440" type="line"/>
    </contour>
  </outline>
</glyph>
<glyph name="jdotless" format="2">
  <advance width="228"/>
  <unicode hex="0237"/>
  <anchor x="28" y="-200" name="bottom"/>
  <anchor x="170" y="541" name="top"/>
  <outline>
    <contour>
      <point x="-121" y="-167" type="line"/>
      <point x="-41" y="-167" type="line" smooth="yes"/>
      <point x="67" y="-167"/>
      <point x="121" y="-117"/>
      <point x="142" y="-12" type="curve" smooth="yes"/>
      <point x="258" y="541" type="line"/>
      <point x="82" y="541" type="line"/>
      <point x="-30" y="-1" type="line" smooth="yes"/>
      <point x="-36" y="-29"/>
      <point x="-49" y="-47"/>
      <point x="-75" y="-47" type="curve" smooth="yes"/>
      <point x="-97" y="-47" type="line"/>
    </contour>
  </outline>
</glyph>
<glyph name="gravecomb" format="2">
  <unicode hex="0300"/>
  <anchor x="285" y="678" name="_top"/>
  <outline>
    <contour>
      <point x="232" y="735" type="line"/>
      <point x="361" y="735" type="line"/>
      <point x="340" y="884" type="line"/>
      <point x="167" y="884" type="line"/>
    </contour>
  </outline>
</glyph>
<glyph name="circumflexcomb" format="2">
  <unicode hex="0302"/>
  <anchor x="302" y="678" name="_top"/>
  <outline>
    <contour>
      <point x="136" y="735" type="line"/>
      <point x="289" y="735" type="line"/>
      <point x="328" y="801" type="line"/>
      <point x="346" y="735" type="line"/>
      <point x="486" y="735" type="line"/>
      <point x="433" y="884" type="line"/>
      <point x="254" y="884" type="line"/>
    </contour>
  </outline>
</glyph>
<glyph name="tildecomb" format="2">
  <unicode hex="0303"/>
  <anchor x="318" y="679" name="_top"/>
  <outline>
    <contour>
      <point x="400" y="745" type="curve" smooth="yes"/>
      <point x="452" y="745"/>
      <point x="496" y="765"/>
      <point x="538" y="843" type="curve"/>
      <point x="470" y="882" type="line"/>
      <point x="454" y="858"/>
      <point x="437" y="850"/>
      <point x="414" y="850" type="curve" smooth="yes"/>
      <point x="372" y="850"/>
      <point x="338" y="878"/>
      <point x="285" y="878" type="curve" smooth="yes"/>
      <point x="234" y="878"/>
      <point x="188" y="859"/>
      <point x="145" y="779" type="curve"/>
      <point x="213" y="740" type="line"/>
      <point x="230" y="761"/>
      <point x="250" y="773"/>
      <point x="275" y="773" type="curve" smooth="yes"/>
      <point x="312" y="773"/>
      <point x="348" y="745"/>
    </contour>
  </outline>
</glyph>
<glyph name="macroncomb" format="2">
  <unicode hex="0304"/>
  <anchor x="279" y="680" name="_top"/>
  <outline>
    <contour>
      <point x="137" y="735" type="line"/>
      <point x="444" y="735" type="line"/>
      <point x="472" y="874" type="line"/>
      <point x="165" y="874" type="line"/>
    </contour>
  </outline>
</glyph>
<glyph name="brevecomb" format="2">
  <unicode hex="0306"/>
  <anchor x="280" y="678" name="_top"/>
  <outline>
    <contour>
      <point x="296" y="721" type="curve" smooth="yes"/>
      <point x="389" y="721"/>
      <point x="455" y="774"/>
      <point x="469" y="886" type="curve"/>
      <point x="355" y="886" type="line"/>
      <point x="348" y="846"/>
      <point x="335" y="825"/>
      <point x="310" y="825" type="curve" smooth="yes"/>
      <point x="288" y="825"/>
      <point x="277" y="840"/>
      <point x="284" y="886" type="curve"/>
      <point x="167" y="886" type="line"/>
      <point x="149" y="784"/>
      <point x="194" y="721"/>
    </contour>
  </outline>
</glyph>
<glyph name="dotaccentcomb" format="2">
  <unicode hex="0307"/>
  <anchor x="218" y="678" name="_top"/>
  <outline>
    <contour>
      <point x="237" y="723" type="curve" smooth="yes"/>
      <point x="297" y="723"/>
      <point x="336" y="758"/>
      <point x="336" y="810" type="curve" smooth="yes"/>
      <point x="336" y="857"/>
      <point x="305" y="888"/>
      <point x="251" y="888" type="curve" smooth="yes"/>
      <point x="191" y="888"/>
      <point x="152" y="853"/>
      <point x="152" y="801" type="curve" smooth="yes"/>
      <point x="152" y="754"/>
      <point x="183" y="723"/>
    </contour>
  </outline>
</glyph>
<glyph name="dieresiscomb" format="2">
  <unicode hex="0308"/>
  <anchor x="317" y="678" name="_top"/>
  <outline>
    <contour>
      <point x="425" y="730" type="curve" smooth="yes"/>
      <point x="480" y="730"/>
      <point x="516" y="762"/>
      <point x="516" y="810" type="curve" smooth="yes"/>
      <point x="516" y="853"/>
      <point x="487" y="881"/>
      <point x="438" y="881" type="curve" smooth="yes"/>
      <point x="383" y="881"/>
      <point x="347" y="849"/>
      <point x="347" y="802" type="curve" smooth="yes"/>
      <point x="347" y="758"/>
      <point x="375" y="730"/>
    </contour>
    <contour>
      <point x="230" y="730" type="curve" smooth="yes"/>
      <point x="285" y="730"/>
      <point x="321" y="762"/>
      <point x="321" y="810" type="curve" smooth="yes"/>
      <point x="321" y="853"/>
      <point x="292" y="881"/>
      <point x="243" y="881" type="curve" smooth="yes"/>
      <point x="188" y="881"/>
      <point x="152" y="849"/>
      <point x="152" y="802" type="curve" smooth="yes"/>
      <point x="152" y="758"/>
      <point x="180" y="730"/>
    </contour>
  </outline>
</glyph>
<glyph name="hookabovecomb" format="2">
  <unicode hex="0309"/>
  <anchor x="231" y="680" name="_top"/>
  <outline>
    <contour>
      <point x="220" y="724" type="line"/>
      <point x="324" y="758"/>
      <point x="384" y="817"/>
      <point x="384" y="888" type="curve" smooth="yes"/>
      <point x="384" y="955"/>
      <point x="331" y="993"/>
      <point x="251" y="993" type="curve" smooth="yes"/>
      <point x="231" y="993"/>
      <point x="209" y="990"/>
      <point x="188" y="983" type="curve"/>
      <point x="170" y="889" type="line"/>
      <point x="178" y="894"/>
      <point x="192" y="896"/>
      <point x="204" y="896" type="curve" smooth="yes"/>
      <point x="227" y="896"/>
      <point x="245" y="887"/>
      <point x="245" y="866" type="curve" smooth="yes"/>
      <point x="245" y="840"/>
      <point x="227" y="825"/>
      <point x="181" y="809" type="curve"/>
    </contour>
  </outline>
</glyph>
<glyph name="ringcomb" format="2">
  <unicode hex="030A"/>
  <anchor x="238" y="678" name="_top"/>
  <outline>
    <contour>
      <point x="260" y="723" type="curve" smooth="yes"/>
      <point x="319" y="723"/>
      <point x="368" y="763"/>
      <point x="384" y="834" type="curve" smooth="yes"/>
      <point x="400" y="909"/>
      <point x="359" y="965"/>
      <point x="285" y="965" type="curve" smooth="yes"/>
      <point x="225" y="965"/>
      <point x="176" y="925"/>
      <point x="161" y="853" type="curve" smooth="yes"/>
      <point x="145" y="781"/>
      <point x="183" y="723"/>
    </contour>
    <contour>
      <point x="265" y="801" type="curve" smooth="yes"/>
      <point x="245" y="801"/>
      <point x="243" y="822"/>
      <point x="247" y="845" type="curve" smooth="yes"/>
      <point x="253" y="872"/>
      <point x="264" y="887"/>
      <point x="280" y="887" type="curve" smooth="yes"/>
      <point x="301" y="887"/>
      <point x="302" y="865"/>
      <point x="297" y="842" type="curve" smooth="yes"/>
      <point x="291" y="816"/>
      <point x="280" y="801"/>
    </contour>
  </outline>
</glyph>
<glyph name="hungarumlautcomb" format="2">
  <unicode hex="030B"/>
  <anchor x="276" y="678" name="_top"/>
  <outline>
    <contour>
      <point x="136" y="735" type="line"/>
      <point x="261" y="735" type="line"/>
      <point x="375" y="884" type="line"/>
      <point x="215" y="884" type="line"/>
    </contour>
    <contour>
      <point x="314" y="735" type="line"/>
      <point x="458" y="735" type="line"/>
      <point x="616" y="884" type="line"/>
      <point x="438" y="884" type="line"/>
    </contour>
  </outline>
</glyph>
<glyph name="caroncomb" format="2">
  <unicode hex="030C"/>
  <anchor x="296" y="678" name="_top"/>
  <outline>
    <contour>
      <point x="220" y="735" type="line"/>
      <point x="399" y="735" type="line"/>
      <point x="517" y="884" type="line"/>
      <point x="364" y="884" type="line"/>
      <point x="325" y="818" type="line"/>
      <point x="306" y="884" type="line"/>
      <point x="167" y="884" type="line"/>
    </contour>
  </outline>
</glyph>
<glyph name="commaturnedabovecomb" format="2">
  <unicode hex="0312"/>
  <anchor x="186" y="678" name="_top"/>
  <outline>
    <contour>
      <point x="137" y="735" type="line"/>
      <point x="259" y="735" type="line"/>
      <point x="263" y="758" type="line" smooth="yes"/>
      <point x="276" y="821"/>
      <point x="291" y="852"/>
      <point x="328" y="883" type="curve"/>
      <point x="293" y="952" type="line"/>
      <point x="207" y="915"/>
      <point x="163" y="862"/>
      <point x="145" y="776" type="curve" smooth="yes"/>
    </contour>
  </outline>
</glyph>
<glyph name="horncomb" format="2">
  <unicode hex="031B"/>
  <anchor x="96" y="542" name="_topright"/>
  <outline>
    <contour>
      <point x="80" y="459" type="line"/>
      <point x="215" y="450"/>
      <point x="284" y="497"/>
      <point x="291" y="601" type="curve"/>
      <point x="176" y="601" type="line"/>
      <point x="172" y="555"/>
      <point x="148" y="537"/>
      <point x="96" y="542" type="curve"/>
    </contour>
  </outline>
</glyph>
<glyph name="dotbelowcomb" format="2">
  <unicode hex="0323"/>
  <anchor x="65" y="0" name="_bottom"/>
  <outline>
    <contour>
      <point x="38" y="-177" type="curve" smooth="yes"/>
      <point x="89" y="-177"/>
      <point x="124" y="-146"/>
      <point x="124" y="-100" type="curve" smooth="yes"/>
      <point x="124" y="-58"/>
      <point x="93" y="-30"/>
      <point x="50" y="-30" type="curve" smooth="yes"/>
      <point x="-1" y="-30"/>
      <point x="-36" y="-61"/>
      <point x="-36" y="-107" type="curve" smooth="yes"/>
      <point x="-36" y="-149"/>
      <point x="-5" y="-177"/>
    </contour>
  </outline>
</glyph>
<glyph name="commaaccentcomb" format="2">
  <unicode hex="0326"/>
  <anchor x="124" y="0" name="_bottom"/>
  <outline>
    <contour>
      <point x="-59" y="-208" type="line"/>
      <point x="83" y="-208" type="line"/>
      <point x="200" y="-59" type="line"/>
      <point x="24" y="-59" type="line"/>
    </contour>
  </outline>
</glyph>
<glyph name="ogonekcomb" format="2">
  <unicode hex="0328"/>
  <anchor x="141" y="0" name="_ogonek"/>
  <outline>
    <contour>
      <point x="51" y="-192" type="curve" smooth="yes"/>
      <point x="71" y="-192"/>
      <point x="99" y="-188"/>
      <point x="117" y="-180" type="curve"/>
      <point x="128" y="-115" type="line"/>
      <point x="120" y="-118"/>
      <point x="113" y="-119"/>
      <point x="105" y="-119" type="curve" smooth="yes"/>
      <point x="83" y="-119"/>
      <point x="74" y="-105"/>
      <point x="74" y="-89" type="curve" smooth="yes"/>
      <point x="74" y="-64"/>
      <point x="98" y="-34"/>
      <point x="141" y="0" type="curve"/>
      <point x="136" y="11" type="line"/>
      <point x="65" y="11" type="line"/>
      <point x="11" y="-25"/>
      <point x="-38" y="-62"/>
      <point x="-38" y="-118" type="curve" smooth="yes"/>
      <point x="-38" y="-163"/>
      <point x="-4" y="-192"/>
    </contour>
  </outline>
</glyph>
<glyph name="strokeshortcomb" format="2">
  <unicode hex="0335"/>
  <anchor x="189" y="306" name="_center"/>
  <outline>
    <contour>
      <point x="35" y="245" type="line"/>
      <point x="317" y="245" type="line"/>
      <point x="343" y="368" type="line"/>
      <point x="61" y="368" type="line"/>
    </contour>
  </outline>
</glyph>
<glyph name="slashshortcomb" format="2">
  <unicode hex="0337"/>
  <anchor x="167" y="292" name="_center"/>
  <outline>
    <contour>
      <point x="14" y="144" type="line"/>
      <point x="288" y="286" type="line"/>
      <point x="320" y="439" type="line"/>
      <point x="46" y="298" type="line"/>
    </contour>
  </outline>
</glyph>
<glyph name="mu" format="2">
  <advance width="492"/>
  <unicode hex="03BC"/>
  <outline>
    <contour>
      <point x="-37" y="-132" type="line"/>
      <point x="140" y="-132" type="line"/>
      <point x="171" y="43" type="line"/>
      <point x="70" y="22" type="line"/>
      <point x="75" y="4"/>
      <point x="92" y="-9"/>
      <point x="126" y="-9" type="curve" smooth="yes"/>
      <point x="165" y="-9"/>
      <point x="209" y="16"/>
      <point x="239" y="64" type="curve"/>
      <point x="246" y="64" type="line"/>
      <point x="240" y="0" type="line"/>
      <point x="410" y="0" type="line"/>
      <point x="506" y="541" type="line"/>
      <point x="330" y="541" type="line"/>
      <point x="272" y="213" type="line" smooth="yes"/>
      <point x="262" y="155"/>
      <point x="248" y="131"/>
      <point x="220" y="131" type="curve" smooth="yes"/>
      <point x="197" y="131"/>
      <point x="190" y="148"/>
      <point x="200" y="206" type="curve" smooth="yes"/>
      <point x="259" y="541" type="line"/>
      <point x="82" y="541" type="line"/>
    </contour>
  </outline>
</glyph>
<glyph name="pi" format="2">
  <advance width="532"/>
  <unicode hex="03C0"/>
  <outline>
    <contour>
      <point x="376" y="-10" type="curve" smooth="yes"/>
      <point x="412" y="-10"/>
      <point x="443" y="-4"/>
      <point x="459" y="4" type="curve"/>
      <point x="485" y="127" type="line"/>
      <point x="477" y="124"/>
      <point x="467" y="122"/>
      <point x="461" y="122" type="curve" smooth="yes"/>
      <point x="443" y="122"/>
      <point x="441" y="132"/>
      <point x="447" y="156" type="curve" smooth="yes"/>
      <point x="495" y="386" type="line"/>
      <point x="539" y="386" type="line"/>
      <point x="572" y="541" type="line"/>
      <point x="68" y="541" type="line"/>
      <point x="35" y="386" type="line"/>
      <point x="82" y="386" type="line"/>
      <point x="1" y="0" type="line"/>
      <point x="185" y="0" type="line"/>
      <point x="266" y="386" type="line"/>
      <point x="317" y="386" type="line"/>
      <point x="263" y="126" type="line" smooth="yes"/>
      <point x="242" y="25"/>
      <point x="281" y="-10"/>
    </contour>
  </outline>
</glyph>
<glyph name="Germandbls" format="2">
  <advance width="553"/>
  <unicode hex="1E9E"/>
  <outline>
    <contour>
      <point x="-28" y="0" type="line"/>
      <point x="149" y="0" type="line"/>
      <point x="270" y="581" type="line"/>
      <point x="391" y="581" type="line"/>
      <point x="295" y="436" type="line"/>
      <point x="273" y="331" type="line"/>
      <point x="305" y="331" type="line" smooth="yes"/>
      <point x="349" y="331"/>
      <point x="371" y="299"/>
      <point x="356" y="232" type="curve" smooth="yes"/>
      <point x="344" y="179"/>
      <point x="316" y="144"/>
      <point x="263" y="144" type="curve" smooth="yes"/>
      <point x="228" y="144" type="line"/>
      <point x="198" y="0" type="line"/>
      <point x="272" y="0" type="line" smooth="yes"/>
      <point x="423" y="0"/>
      <point x="526" y="90"/>
      <point x="532" y="250" type="curve" smooth="yes"/>
      <point x="534" y="346"/>
      <point x="486" y="411"/>
      <point x="403" y="411" type="curve" smooth="yes"/>
      <point x="397" y="411" type="line"/>
      <point x="437" y="375" type="line"/>
      <point x="444" y="417" type="line"/>
      <point x="575" y="605" type="line"/>
      <point x="601" y="729" type="line"/>
      <point x="126" y="729" type="line"/>
    </contour>
  </outline>
</glyph>
<glyph name="endash" format="2">
  <advance width="453"/>
  <unicode hex="2013"/>
  <outline>
    <contour>
      <point x="3" y="191" type="line"/>
      <point x="418" y="191" type="line"/>
      <point x="452" y="351" type="line"/>
      <point x="36" y="351" type="line"/>
    </contour>
  </outline>
</glyph>
<glyph name="emdash" format="2">
  <advance width="647"/>
  <unicode hex="2014"/>
  <outline>
    <contour>
      <point x="3" y="191" type="line"/>
      <point x="612" y="191" type="line"/>
      <point x="646" y="351" type="line"/>
      <point x="36" y="351" type="line"/>
    </contour>
  </outline>
</glyph>
<glyph name="bullet" format="2">
  <advance width="285"/>
  <unicode hex="2022"/>
  <outline>
    <contour>
      <point x="139" y="142" type="curve" smooth="yes"/>
      <point x="221" y="142"/>
      <point x="279" y="202"/>
      <point x="279" y="281" type="curve" smooth="yes"/>
      <point x="279" y="356"/>
      <point x="228" y="412"/>
      <point x="149" y="412" type="curve" smooth="yes"/>
      <point x="70" y="412"/>
      <point x="9" y="352"/>
      <point x="9" y="273" type="curve" smooth="yes"/>
      <point x="9" y="198"/>
      <point x="63" y="142"/>
    </contour>
  </outline>
</glyph>
<glyph name="perthousand" format="2">
  <advance width="1016"/>
  <unicode hex="2030"/>
  <outline>
    <contour>
      <point x="88" y="0" type="line"/>
      <point x="204" y="0" type="line"/>
      <point x="666" y="729" type="line"/>
      <point x="550" y="729" type="line"/>
    </contour>
    <contour>
      <point x="184" y="352" type="curve" smooth="yes"/>
      <point x="258" y="352"/>
      <point x="312" y="388"/>
      <point x="342" y="533" type="curve" smooth="yes"/>
      <point x="366" y="651"/>
      <point x="335" y="729"/>
      <point x="227" y="729" type="curve" smooth="yes"/>
      <point x="148" y="729"/>
      <point x="96" y="680"/>
      <point x="70" y="552" type="curve" smooth="yes"/>
      <point x="45" y="432"/>
      <point x="73" y="352"/>
    </contour>
    <contour>
      <point x="190" y="449" type="curve" smooth="yes"/>
      <point x="167" y="449"/>
      <point x="170" y="466"/>
      <point x="185" y="540" type="curve" smooth="yes"/>
      <point x="200" y="613"/>
      <point x="207" y="632"/>
      <point x="222" y="632" type="curve" smooth="yes"/>
      <point x="245" y="632"/>
      <point x="242" y="615"/>
      <point x="227" y="541" type="curve" smooth="yes"/>
      <point x="212" y="468"/>
      <point x="205" y="449"/>
    </contour>
    <contour>
      <point x="526" y="-5" type="curve" smooth="yes"/>
      <point x="600" y="-5"/>
      <point x="654" y="31"/>
      <point x="684" y="176" type="curve" smooth="yes"/>
      <point x="708" y="294"/>
      <point x="677" y="372"/>
      <point x="569" y="372" type="curve" smooth="yes"/>
      <point x="490" y="372"/>
      <point x="438" y="323"/>
      <point x="412" y="195" type="curve" smooth="yes"/>
      <point x="387" y="75"/>
      <point x="415" y="-5"/>
    </contour>
    <contour>
      <point x="532" y="92" type="curve" smooth="yes"/>
      <point x="509" y="92"/>
      <point x="512" y="109"/>
      <point x="527" y="183" type="curve" smooth="yes"/>
      <point x="542" y="256"/>
      <point x="549" y="275"/>
      <point x="564" y="275" type="curve" smooth="yes"/>
      <point x="587" y="275"/>
      <point x="584" y="258"/>
      <point x="569" y="184" type="curve" smooth="yes"/>
      <point x="554" y="111"/>
      <point x="547" y="92"/>
    </contour>
    <contour>
      <point x="826" y="-5" type="curve" smooth="yes"/>
      <point x="900" y="-5"/>
      <point x="954" y="31"/>
      <point x="984" y="176" type="curve" smooth="yes"/>
      <point x="1008" y="294"/>
      <point x="977" y="372"/>
      <point x="869" y="372" type="curve" smooth="yes"/>
      <point x="790" y="372"/>
      <point x="738" y="323"/>
      <point x="712" y="195" type="curve" smooth="yes"/>
      <point x="687" y="75"/>
      <point x="715" y="-5"/>
    </contour>
    <contour>
      <point x="832" y="92" type="curve" smooth="yes"/>
      <point x="809" y="92"/>
      <point x="812" y="109"/>
      <point x="827" y="183" type="curve" smooth="yes"/>
      <point x="842" y="256"/>
      <point x="849" y="275"/>
      <point x="864" y="275" type="curve" smooth="yes"/>
      <point x="887" y="275"/>
      <point x="884" y="258"/>
      <point x="869" y="184" type="curve" smooth="yes"/>
      <point x="854" y="111"/>
      <point x="847" y="92"/>
    </contour>
  </outline>
</glyph>
<glyph name="guilsinglleft" format="2">
  <advance width="360"/>
  <unicode hex="2039"/>
  <outline>
    <contour>
      <point x="154" y="100" type="line"/>
      <point x="304" y="100" type="line"/>
      <point x="208" y="320" type="line"/>
      <point x="355" y="541" type="line"/>
      <point x="200" y="541" type="line"/>
      <point x="35" y="320" type="line"/>
    </contour>
  </outline>
</glyph>
<glyph name="zeroinferior" format="2">
  <advance width="306"/>
  <unicode hex="2080"/>
  <anchor x="133" y="177" name="_center"/>
  <outline>
    <contour>
      <point x="103" y="-46" type="curve" smooth="yes"/>
      <point x="177" y="-46"/>
      <point x="236" y="6"/>
      <point x="269" y="163" type="curve" smooth="yes"/>
      <point x="297" y="298"/>
      <point x="283" y="397"/>
      <point x="164" y="397" type="curve" smooth="yes"/>
      <point x="87" y="397"/>
      <point x="29" y="339"/>
      <point x="-2" y="189" type="curve" smooth="yes"/>
      <point x="-30" y="55"/>
      <point x="-17" y="-46"/>
    </contour>
    <contour>
      <point x="109" y="46" type="curve" smooth="yes"/>
      <point x="80" y="46"/>
      <point x="88" y="91"/>
      <point x="106" y="180" type="curve" smooth="yes"/>
      <point x="126" y="277"/>
      <point x="137" y="306"/>
      <point x="158" y="306" type="curve" smooth="yes"/>
      <point x="187" y="306"/>
      <point x="179" y="258"/>
      <point x="162" y="175" type="curve" smooth="yes"/>
      <point x="142" y="80"/>
      <point x="131" y="46"/>
    </contour>
  </outline>
</glyph>
<glyph name="oneinferior" format="2">
  <advance width="228"/>
  <unicode hex="2081"/>
  <anchor x="118" y="177" name="_center"/>
  <outline>
    <contour>
      <point x="27" y="-40" type="line"/>
      <point x="136" y="-40" type="line"/>
      <point x="227" y="393" type="line"/>
      <point x="127" y="393" type="line"/>
      <point x="113" y="348"/>
      <point x="79" y="314"/>
      <point x="39" y="314" type="curve" smooth="yes"/>
      <point x="20" y="314" type="line"/>
      <point x="1" y="225" type="line"/>
      <point x="83" y="225" type="line"/>
    </contour>
  </outline>
</glyph>
<glyph name="twoinferior" format="2">
  <advance width="286"/>
  <unicode hex="2082"/>
  <anchor x="113" y="177" name="_center"/>
  <outline>
    <contour>
      <point x="-46" y="-40" type="line"/>
      <point x="207" y="-40" type="line"/>
      <point x="226" y="51" type="line"/>
      <point x="109" y="51" type="line"/>
      <point x="121" y="83"/>
      <point x="246" y="158"/>
      <point x="267" y="258" type="curve" smooth="yes"/>
      <point x="286" y="350"/>
      <point x="242" y="398"/>
      <point x="152" y="398" type="curve" smooth="yes"/>
      <point x="75" y="398"/>
      <point x="22" y="344"/>
      <point x="8" y="250" type="curve"/>
      <point x="115" y="250" type="line"/>
      <point x="120" y="289"/>
      <point x="131" y="306"/>
      <point x="145" y="306" type="curve" smooth="yes"/>
      <point x="163" y="306"/>
      <point x="164" y="290"/>
      <point x="159" y="267" type="curve" smooth="yes"/>
      <point x="145" y="203"/>
      <point x="-17" y="103"/>
      <point x="-39" y="-5" type="curve" smooth="yes"/>
    </contour>
  </outline>
</glyph>
<glyph name="threeinferior" format="2">
  <advance width="294"/>
  <unicode hex="2083"/>
  <anchor x="123" y="177" name="_center"/>
  <outline>
    <contour>
      <point x="95" y="-45" type="curve" smooth="yes"/>
      <point x="167" y="-45"/>
      <point x="224" y="-3"/>
      <point x="240" y="74" type="curve" smooth="yes"/>
      <point x="250" y="123"/>
      <point x="238" y="161"/>
      <point x="199" y="175" type="curve"/>
      <point x="200" y="179" type="line"/>
      <point x="245" y="191"/>
      <point x="274" y="234"/>
      <point x="276" y="292" type="curve" smooth="yes"/>
      <point x="278" y="361"/>
      <point x="233" y="397"/>
      <point x="158" y="397" type="curve" smooth="yes"/>
      <point x="85" y="397"/>
      <point x="29" y="353"/>
      <point x="16" y="266" type="curve"/>
      <point x="122" y="266" type="line"/>
      <point x="128" y="294"/>
      <point x="139" y="306"/>
      <point x="149" y="306" type="curve" smooth="yes"/>
      <point x="172" y="306"/>
      <point x="170" y="288"/>
      <point x="164" y="259" type="curve" smooth="yes"/>
      <point x="159" y="236"/>
      <point x="149" y="220"/>
      <point x="115" y="220" type="curve" smooth="yes"/>
      <point x="88" y="220" type="line"/>
      <point x="71" y="140" type="line"/>
      <point x="103" y="140" type="line" smooth="yes"/>
      <point x="133" y="140"/>
      <point x="140" y="119"/>
      <point x="134" y="89" type="curve" smooth="yes"/>
      <point x="128" y="58"/>
      <point x="117" y="46"/>
      <point x="101" y="46" type="curve" smooth="yes"/>
      <point x="79" y="46"/>
      <point x="79" y="70"/>
      <point x="85" y="102" type="curve"/>
      <point x="-24" y="102" type="line"/>
      <point x="-44" y="10"/>
      <point x="-6" y="-45"/>
    </contour>
  </outline>
</glyph>
<glyph name="fourinferior" format="2">
  <advance width="315"/>
  <unicode hex="2084"/>
  <anchor x="129" y="177" name="_center"/>
  <outline>
    <contour>
      <point x="91" y="-40" type="line"/>
      <point x="200" y="-40" type="line"/>
      <point x="292" y="393" type="line"/>
      <point x="161" y="393" type="line"/>
      <point x="-16" y="137" type="line"/>
      <point x="-34" y="51" type="line"/>
      <point x="258" y="51" type="line"/>
      <point x="279" y="145" type="line"/>
      <point x="82" y="145" type="line"/>
      <point x="155" y="258" type="line"/>
      <point x="154" y="258" type="line"/>
    </contour>
  </outline>
</glyph>
<glyph name="fiveinferior" format="2">
  <advance width="295"/>
  <unicode hex="2085"/>
  <anchor x="130.969" y="177" name="_center"/>
  <outline>
    <contour>
      <point x="99" y="-45" type="curve" smooth="yes"/>
      <point x="172" y="-45"/>
      <point x="226" y="0"/>
      <point x="247" y="98" type="curve" smooth="yes"/>
      <point x="264" y="180"/>
      <point x="243" y="251"/>
      <point x="167" y="251" type="curve" smooth="yes"/>
      <point x="148" y="251"/>
      <point x="131" y="244"/>
      <point x="123" y="235" type="curve"/>
      <point x="119" y="237" type="line"/>
      <point x="137" y="300" type="line"/>
      <point x="265" y="300" type="line"/>
      <point x="285" y="393" type="line"/>
      <point x="57" y="393" type="line"/>
      <point x="-10" y="128" type="line"/>
      <point x="96" y="128" type="line"/>
      <point x="101" y="150"/>
      <point x="113" y="164"/>
      <point x="125" y="164" type="curve" smooth="yes"/>
      <point x="147" y="164"/>
      <point x="144" y="131"/>
      <point x="139" y="105" type="curve" smooth="yes"/>
      <point x="132" y="69"/>
      <point x="122" y="46"/>
      <point x="103" y="46" type="curve" smooth="yes"/>
      <point x="83" y="46"/>
      <point x="82" y="66"/>
      <point x="87" y="91" type="curve"/>
      <point x="-21" y="91" type="line"/>
      <point x="-32" y="9"/>
      <point x="0" y="-45"/>
    </contour>
  </outline>
</glyph>
<glyph name="sixinferior" format="2">
  <advance width="304"/>
  <unicode hex="2086"/>
  <anchor x="136" y="177" name="_center"/>
  <outline>
    <contour>
      <point x="108" y="-45" type="curve" smooth="yes"/>
      <point x="178" y="-45"/>
      <point x="234" y="-2"/>
      <point x="254" y="93" type="curve" smooth="yes"/>
      <point x="271" y="175"/>
      <point x="257" y="240"/>
      <point x="189" y="246" type="curve" smooth="yes"/>
      <point x="157" y="249"/>
      <point x="135" y="236"/>
      <point x="124" y="219" type="curve"/>
      <point x="118" y="219" type="line"/>
      <point x="128" y="273"/>
      <point x="140" y="306"/>
      <point x="162" y="306" type="curve" smooth="yes"/>
      <point x="179" y="306"/>
      <point x="184" y="290"/>
      <point x="182" y="275" type="curve"/>
      <point x="285" y="275" type="line"/>
      <point x="294" y="354"/>
      <point x="248" y="397"/>
      <point x="166" y="397" type="curve" smooth="yes"/>
      <point x="92" y="397"/>
      <point x="31" y="349"/>
      <point x="-3" y="185" type="curve" smooth="yes"/>
      <point x="-32" y="47"/>
      <point x="-7" y="-45"/>
    </contour>
    <contour>
      <point x="113" y="46" type="curve" smooth="yes"/>
      <point x="91" y="46"/>
      <point x="94" y="75"/>
      <point x="101" y="108" type="curve" smooth="yes"/>
      <point x="108" y="142"/>
      <point x="116" y="163"/>
      <point x="133" y="163" type="curve" smooth="yes"/>
      <point x="155" y="163"/>
      <point x="153" y="136"/>
      <point x="146" y="101" type="curve" smooth="yes"/>
      <point x="139" y="67"/>
      <point x="130" y="46"/>
    </contour>
  </outline>
</glyph>
<glyph name="seveninferior" format="2">
  <advance width="298"/>
  <unicode hex="2087"/>
  <anchor x="159" y="177" name="_center"/>
  <outline>
    <contour>
      <point x="38" y="-40" type="curve"/>
      <point x="148" y="-40" type="line"/>
      <point x="180" y="131"/>
      <point x="222" y="197"/>
      <point x="294" y="308" type="curve"/>
      <point x="313" y="393" type="line"/>
      <point x="40" y="393" type="line"/>
      <point x="5" y="226" type="line"/>
      <point x="97" y="226" type="line"/>
      <point x="110" y="291" type="line"/>
      <point x="184" y="291" type="line"/>
      <point x="107" y="191"/>
      <point x="60" y="83"/>
    </contour>
  </outline>
</glyph>
<glyph name="eightinferior" format="2">
  <advance width="289"/>
  <unicode hex="2088"/>
  <anchor x="122" y="177" name="_center"/>
  <outline>
    <contour>
      <point x="96" y="-46" type="curve" smooth="yes"/>
      <point x="170" y="-46"/>
      <point x="220" y="-1"/>
      <point x="233" y="62" type="curve" smooth="yes"/>
      <point x="242" y="104"/>
      <point x="231" y="152"/>
      <point x="200" y="169" type="curve"/>
      <point x="201" y="174" type="line"/>
      <point x="238" y="188"/>
      <point x="262" y="222"/>
      <point x="269" y="266" type="curve" smooth="yes"/>
      <point x="282" y="349"/>
      <point x="235" y="397"/>
      <point x="155" y="397" type="curve" smooth="yes"/>
      <point x="84" y="397"/>
      <point x="37" y="356"/>
      <point x="23" y="288" type="curve" smooth="yes"/>
      <point x="16" y="253"/>
      <point x="25" y="206"/>
      <point x="50" y="189" type="curve"/>
      <point x="50" y="184" type="line"/>
      <point x="17" y="174"/>
      <point x="-14" y="139"/>
      <point x="-24" y="90" type="curve" smooth="yes"/>
      <point x="-41" y="7"/>
      <point x="5" y="-46"/>
    </contour>
    <contour>
      <point x="99" y="42" type="curve" smooth="yes"/>
      <point x="80" y="42"/>
      <point x="80" y="66"/>
      <point x="85" y="90" type="curve" smooth="yes"/>
      <point x="91" y="117"/>
      <point x="98" y="133"/>
      <point x="114" y="133" type="curve" smooth="yes"/>
      <point x="134" y="133"/>
      <point x="134" y="113"/>
      <point x="128" y="85" type="curve" smooth="yes"/>
      <point x="122" y="57"/>
      <point x="112" y="42"/>
    </contour>
    <contour>
      <point x="137" y="222" type="curve" smooth="yes"/>
      <point x="119" y="222"/>
      <point x="118" y="240"/>
      <point x="124" y="268" type="curve" smooth="yes"/>
      <point x="130" y="297"/>
      <point x="138" y="309"/>
      <point x="152" y="309" type="curve" smooth="yes"/>
      <point x="169" y="309"/>
      <point x="169" y="291"/>
      <point x="164" y="266" type="curve" smooth="yes"/>
      <point x="157" y="231"/>
      <point x="148" y="222"/>
    </contour>
  </outline>
</glyph>
<glyph name="peseta" format="2">
  <advance width="1184"/>
  <unicode hex="20A7"/>
  <outline>
    <contour>
      <point x="-22" y="0" type="line"/>
      <point x="156" y="0" type="line"/>
      <point x="280" y="595" type="line"/>
      <point x="254" y="572" type="line"/>
      <point x="288" y="572" type="line" smooth="yes"/>
      <point x="315" y="572"/>
      <point x="330" y="559"/>
      <point x="330" y="525" type="curve" smooth="yes"/>
      <point x="330" y="469"/>
      <point x="315" y="369"/>
      <point x="247" y="369" type="curve" smooth="yes"/>
      <point x="216" y="369" type="line"/>
      <point x="184" y="212" type="line"/>
      <point x="231" y="212" type="line" smooth="yes"/>
      <point x="427" y="212"/>
      <point x="512" y="358"/>
      <point x="512" y="533" type="curve" smooth="yes"/>
      <point x="512" y="651"/>
      <point x="451" y="729"/>
      <point x="318" y="729" type="curve" smooth="yes"/>
      <point x="130" y="729" type="line"/>
    </contour>
    <contour>
      <point x="618" y="0" type="curve" smooth="yes"/>
      <point x="698" y="0" type="line"/>
      <point x="726" y="134" type="line"/>
      <point x="712" y="133" type="line" smooth="yes"/>
      <point x="686" y="131"/>
      <point x="680" y="139"/>
      <point x="686" y="166" type="curve" smooth="yes"/>
      <point x="735" y="401" type="line"/>
      <point x="780" y="399" type="line"/>
      <point x="810" y="541" type="line"/>
      <point x="764" y="539" type="line"/>
      <point x="794" y="683" type="line"/>
      <point x="615" y="668" type="line"/>
      <point x="588" y="539" type="line"/>
      <point x="551" y="541" type="line"/>
      <point x="521" y="399" type="line"/>
      <point x="559" y="401" type="line"/>
      <point x="505" y="136" type="line" smooth="yes"/>
      <point x="486" y="44"/>
      <point x="517" y="0"/>
    </contour>
    <contour>
      <point x="936" y="-10" type="curve" smooth="yes"/>
      <point x="1041" y="-10"/>
      <point x="1120" y="37"/>
      <point x="1139" y="137" type="curve" smooth="yes"/>
      <point x="1161" y="251"/>
      <point x="1106" y="292"/>
      <point x="1034" y="334" type="curve" smooth="yes"/>
      <point x="989" y="360"/>
      <point x="971" y="373"/>
      <point x="971" y="400" type="curve" smooth="yes"/>
      <point x="971" y="423"/>
      <point x="981" y="442"/>
      <point x="1004" y="442" type="curve" smooth="yes"/>
      <point x="1034" y="442"/>
      <point x="1035" y="421"/>
      <point x="1029" y="377" type="curve"/>
      <point x="1179" y="377" type="line"/>
      <point x="1191" y="481"/>
      <point x="1135" y="551"/>
      <point x="998" y="551" type="curve" smooth="yes"/>
      <point x="901" y="551"/>
      <point x="825" y="508"/>
      <point x="806" y="405" type="curve" smooth="yes"/>
      <point x="789" y="316"/>
      <point x="834" y="263"/>
      <point x="900" y="222" type="curve" smooth="yes"/>
      <point x="955" y="188"/>
      <point x="968" y="177"/>
      <point x="968" y="152" type="curve" smooth="yes"/>
      <point x="968" y="125"/>
      <point x="962" y="102"/>
      <point x="935" y="102" type="curve" smooth="yes"/>
      <point x="907" y="102"/>
      <point x="902" y="126"/>
      <point x="911" y="169" type="curve"/>
      <point x="754" y="169" type="line"/>
      <point x="741" y="62"/>
      <point x="796" y="-10"/>
    </contour>
  </outline>
</glyph>
<glyph name="won" format="2">
  <advance width="779"/>
  <unicode hex="20A9"/>
  <outline>
    <contour>
      <point x="53" y="0" type="line"/>
      <point x="307" y="0" type="line"/>
      <point x="391" y="347" type="line"/>
      <point x="442" y="565" type="line"/>
      <point x="459" y="565" type="line"/>
      <point x="420" y="347" type="line"/>
      <point x="363" y="0" type="line"/>
      <point x="612" y="0" type="line"/>
      <point x="845" y="729" type="line"/>
      <point x="664" y="729" type="line"/>
      <point x="573" y="343" type="line"/>
      <point x="525" y="140" type="line"/>
      <point x="508" y="140" type="line"/>
      <point x="538" y="341" type="line"/>
      <point x="597" y="729" type="line"/>
      <point x="374" y="729" type="line"/>
      <point x="273" y="331" type="line"/>
      <point x="226" y="143" type="line"/>
      <point x="210" y="143" type="line"/>
      <point x="239" y="326" type="line"/>
      <point x="304" y="729" type="line"/>
      <point x="126" y="729" type="line"/>
    </contour>
    <contour>
      <point x="22" y="293" type="line"/>
      <point x="767" y="293" type="line"/>
      <point x="792" y="416" type="line"/>
      <point x="47" y="416" type="line"/>
    </contour>
  </outline>
</glyph>
<glyph name="sheqel" format="2">
  <advance width="767"/>
  <unicode hex="20AA"/>
  <outline>
    <contour>
      <point x="176" y="0" type="line"/>
      <point x="537" y="0" type="line" smooth="yes"/>
      <point x="640" y="0"/>
      <point x="690" y="53"/>
      <point x="707" y="133" type="curve" smooth="yes"/>
      <point x="830" y="729" type="line"/>
      <point x="668" y="729" type="line"/>
      <point x="549" y="151" type="line"/>
      <point x="344" y="151" type="line"/>
      <point x="424" y="540" type="line"/>
      <point x="287" y="540" type="line"/>
    </contour>
    <contour>
      <point x="-21" y="0" type="line"/>
      <point x="141" y="0" type="line"/>
      <point x="260" y="578" type="line"/>
      <point x="465" y="578" type="line"/>
      <point x="385" y="189" type="line"/>
      <point x="522" y="189" type="line"/>
      <point x="606" y="596" type="line" smooth="yes"/>
      <point x="623" y="676"/>
      <point x="593" y="729"/>
      <point x="490" y="729" type="curve" smooth="yes"/>
      <point x="129" y="729" type="line"/>
    </contour>
  </outline>
</glyph>
<glyph name="euro" format="2">
  <advance width="523"/>
  <unicode hex="20AC"/>
  <outline>
    <contour>
      <point x="245" y="-9" type="curve" smooth="yes"/>
      <point x="379" y="-9"/>
      <point x="463" y="73"/>
      <point x="504" y="270" type="curve"/>
      <point x="336" y="270" type="line"/>
      <point x="315" y="189"/>
      <point x="300" y="147"/>
      <point x="265" y="147" type="curve" smooth="yes"/>
      <point x="215" y="147"/>
      <point x="229" y="240"/>
      <point x="256" y="370" type="curve" smooth="yes"/>
      <point x="287" y="520"/>
      <point x="310" y="582"/>
      <point x="350" y="582" type="curve" smooth="yes"/>
      <point x="390" y="582"/>
      <point x="387" y="524"/>
      <point x="377" y="464" type="curve"/>
      <point x="543" y="464" type="line"/>
      <point x="569" y="641"/>
      <point x="524" y="739"/>
      <point x="363" y="739" type="curve" smooth="yes"/>
      <point x="211" y="739"/>
      <point x="129" y="616"/>
      <point x="80" y="382" type="curve" smooth="yes"/>
      <point x="33" y="154"/>
      <point x="44" y="-9"/>
    </contour>
    <contour>
      <point x="15" y="253" type="line"/>
      <point x="280" y="253" type="line"/>
      <point x="311" y="337" type="line"/>
      <point x="33" y="337" type="line"/>
    </contour>
    <contour>
      <point x="42" y="379" type="line"/>
      <point x="326" y="379" type="line"/>
      <point x="355" y="461" type="line"/>
      <point x="59" y="461" type="line"/>
    </contour>
  </outline>
</glyph>
<glyph name="tenge" format="2">
  <advance width="410"/>
  <unicode hex="20B8"/>
  <outline>
    <contour>
      <point x="139" y="408" type="line"/>
      <point x="55" y="0" type="line"/>
      <point x="239" y="0" type="line"/>
      <point x="323" y="408" type="line"/>
    </contour>
    <contour>
      <point x="413" y="392" type="line"/>
      <point x="444" y="541" type="line"/>
      <point x="79" y="541" type="line"/>
      <point x="48" y="392" type="line"/>
    </contour>
    <contour>
      <point x="452" y="580" type="line"/>
      <point x="482" y="729" type="line"/>
      <point x="117" y="729" type="line"/>
      <point x="87" y="580" type="line"/>
    </contour>
  </outline>
</glyph>
<glyph name="rupeeIndian" format="2">
  <advance width="472"/>
  <unicode hex="20B9"/>
  <outline>
    <contour>
      <point x="145" y="0" type="line"/>
      <point x="340" y="0" type="line"/>
      <point x="342" y="179" type="line" smooth="yes"/>
      <point x="343" y="247"/>
      <point x="325" y="295"/>
      <point x="285" y="310" type="curve"/>
      <point x="287" y="317" type="line"/>
      <point x="342" y="329"/>
      <point x="402" y="383"/>
      <point x="422" y="437" type="curve"/>
      <point x="487" y="437" type="line"/>
      <point x="508" y="539" type="line"/>
      <point x="445" y="539" type="line"/>
      <point x="449" y="573"/>
      <point x="440" y="607"/>
      <point x="426" y="620" type="curve"/>
      <point x="427" y="627" type="line"/>
      <point x="526" y="627" type="line"/>
      <point x="547" y="729" type="line"/>
      <point x="120" y="729" type="line"/>
      <point x="92" y="596" type="line"/>
      <point x="168" y="596" type="line" smooth="yes"/>
      <point x="238" y="596"/>
      <point x="260" y="570"/>
      <point x="258" y="531" type="curve"/>
      <point x="78" y="531" type="line"/>
      <point x="60" y="445" type="line"/>
      <point x="239" y="445" type="line"/>
      <point x="224" y="401"/>
      <point x="180" y="380"/>
      <point x="121" y="380" type="curve" smooth="yes"/>
      <point x="47" y="380" type="line"/>
      <point x="21" y="257" type="line"/>
      <point x="74" y="257" type="line" smooth="yes"/>
      <point x="137" y="257"/>
      <point x="148" y="243"/>
      <point x="147" y="164" type="curve" smooth="yes"/>
    </contour>
  </outline>
</glyph>
<glyph name="liraTurkish" format="2">
  <advance width="601"/>
  <unicode hex="20BA"/>
  <outline>
    <contour>
      <point x="21" y="0" type="line"/>
      <point x="168" y="0" type="line" smooth="yes"/>
      <point x="385" y="0"/>
      <point x="555" y="123"/>
      <point x="600" y="342" type="curve"/>
      <point x="411" y="342" type="line"/>
      <point x="391" y="242"/>
      <point x="321" y="174"/>
      <point x="238" y="173" type="curve"/>
      <point x="353" y="729" type="line"/>
      <point x="171" y="729" type="line"/>
    </contour>
    <contour>
      <point x="8" y="200" type="line"/>
      <point x="379" y="354" type="line"/>
      <point x="407" y="489" type="line"/>
      <point x="35" y="333" type="line"/>
    </contour>
    <contour>
      <point x="49" y="399" type="line"/>
      <point x="420" y="553" type="line"/>
      <point x="448" y="688" type="line"/>
      <point x="77" y="532" type="line"/>
    </contour>
  </outline>
</glyph>
<glyph name="literSign" format="2">
  <advance width="464"/>
  <unicode hex="2113"/>
  <outline>
    <contour>
      <point x="222" y="-10" type="curve" smooth="yes"/>
      <point x="300" y="-10"/>
      <point x="374" y="30"/>
      <point x="418" y="114" type="curve"/>
      <point x="306" y="177" type="line"/>
      <point x="284" y="138"/>
      <point x="266" y="124"/>
      <point x="244" y="124" type="curve" smooth="yes"/>
      <point x="180" y="124"/>
      <point x="202" y="249"/>
      <point x="227" y="377" type="curve" smooth="yes"/>
      <point x="258" y="538"/>
      <point x="286" y="582"/>
      <point x="317" y="582" type="curve" smooth="yes"/>
      <point x="338" y="582"/>
      <point x="341" y="559"/>
      <point x="334" y="525" type="curve" smooth="yes"/>
      <point x="317" y="445"/>
      <point x="232" y="283"/>
      <point x="13" y="255" type="curve"/>
      <point x="-9" y="141" type="line"/>
      <point x="267" y="165"/>
      <point x="446" y="352"/>
      <point x="479" y="509" type="curve" smooth="yes"/>
      <point x="507" y="646"/>
      <point x="453" y="737"/>
      <point x="345" y="737" type="curve" smooth="yes"/>
      <point x="208" y="737"/>
      <point x="115" y="615"/>
      <point x="75" y="404" type="curve" smooth="yes"/>
      <point x="28" y="156"/>
      <point x="59" y="-10"/>
    </contour>
  </outline>
</glyph>
<glyph name="numero" format="2">
  <advance width="846"/>
  <unicode hex="2116"/>
  <outline>
    <contour>
      <point x="-22" y="0" type="line"/>
      <point x="141" y="0" type="line"/>
      <point x="172" y="157" type="line"/>
      <point x="207" y="358" type="line"/>
      <point x="213" y="358" type="line"/>
      <point x="218" y="0" type="line"/>
      <point x="403" y="0" type="line"/>
      <point x="554" y="729" type="line"/>
      <point x="392" y="729" type="line"/>
      <point x="360" y="575" type="line"/>
      <point x="327" y="366" type="line"/>
      <point x="320" y="366" type="line"/>
      <point x="317" y="729" type="line"/>
      <point x="130" y="729" type="line"/>
    </contour>
    <contour>
      <point x="516" y="145" type="line"/>
      <point x="785" y="145" type="line"/>
      <point x="809" y="261" type="line"/>
      <point x="540" y="261" type="line"/>
    </contour>
    <contour>
      <point x="688" y="292" type="curve" smooth="yes"/>
      <point x="775" y="292"/>
      <point x="840" y="335"/>
      <point x="876" y="507" type="curve" smooth="yes"/>
      <point x="904" y="647"/>
      <point x="867" y="739"/>
      <point x="739" y="739" type="curve" smooth="yes"/>
      <point x="645" y="739"/>
      <point x="584" y="681"/>
      <point x="552" y="529" type="curve" smooth="yes"/>
      <point x="523" y="387"/>
      <point x="556" y="292"/>
    </contour>
    <contour>
      <point x="696" y="407" type="curve" smooth="yes"/>
      <point x="669" y="407"/>
      <point x="672" y="426"/>
      <point x="689" y="515" type="curve" smooth="yes"/>
      <point x="706" y="597"/>
      <point x="713" y="624"/>
      <point x="734" y="624" type="curve" smooth="yes"/>
      <point x="759" y="624"/>
      <point x="756" y="599"/>
      <point x="739" y="518" type="curve" smooth="yes"/>
      <point x="721" y="429"/>
      <point x="713" y="407"/>
    </contour>
  </outline>
</glyph>
<glyph name="trademark" format="2">
  <advance width="636"/>
  <unicode hex="2122"/>
  <outline>
    <contour>
      <point x="295" y="415" type="line"/>
      <point x="391" y="415" type="line"/>
      <point x="412" y="518" type="line"/>
      <point x="428" y="604" type="line"/>
      <point x="430" y="604" type="line"/>
      <point x="430" y="415" type="line"/>
      <point x="496" y="415" type="line"/>
      <point x="575" y="604" type="line"/>
      <point x="578" y="604" type="line"/>
      <point x="556" y="518" type="line"/>
      <point x="536" y="415" type="line"/>
      <point x="631" y="415" type="line"/>
      <point x="697" y="729" type="line"/>
      <point x="559" y="729" type="line"/>
      <point x="496" y="562" type="line"/>
      <point x="493" y="562" type="line"/>
      <point x="499" y="729" type="line"/>
      <point x="360" y="729" type="line"/>
    </contour>
    <contour>
      <point x="105" y="415" type="line"/>
      <point x="207" y="415" type="line"/>
      <point x="254" y="639" type="line"/>
      <point x="311" y="639" type="line"/>
      <point x="330" y="729" type="line"/>
      <point x="115" y="729" type="line"/>
      <point x="96" y="639" type="line"/>
      <point x="152" y="639" type="line"/>
    </contour>
  </outline>
</glyph>
<glyph name="leftArrow" format="2">
  <advance width="762"/>
  <unicode hex="2190"/>
  <outline>
    <contour>
      <point x="641" y="440" type="line"/>
      <point x="326" y="440" type="line"/>
      <point x="415" y="559" type="line"/>
      <point x="249" y="559" type="line"/>
      <point x="102" y="365" type="line"/>
      <point x="249" y="171" type="line"/>
      <point x="415" y="171" type="line"/>
      <point x="326" y="290" type="line"/>
      <point x="641" y="290" type="line"/>
    </contour>
  </outline>
</glyph>
<glyph name="upArrow" format="2">
  <advance width="592"/>
  <unicode hex="2191"/>
  <outline>
    <contour>
      <point x="165" y="95" type="line"/>
      <point x="315" y="95" type="line"/>
      <point x="315" y="410" type="line"/>
      <point x="434" y="321" type="line"/>
      <point x="434" y="487" type="line"/>
      <point x="240" y="634" type="line"/>
      <point x="46" y="487" type="line"/>
      <point x="46" y="321" type="line"/>
      <point x="165" y="410" type="line"/>
    </contour>
  </outline>
</glyph>
<glyph name="rightArrow" format="2">
  <advance width="759"/>
  <unicode hex="2192"/>
  <outline>
    <contour>
      <point x="120" y="440" type="line"/>
      <point x="120" y="290" type="line"/>
      <point x="435" y="290" type="line"/>
      <point x="346" y="171" type="line"/>
      <point x="512" y="171" type="line"/>
      <point x="659" y="365" type="line"/>
      <point x="512" y="559" type="line"/>
      <point x="346" y="559" type="line"/>
      <point x="435" y="440" type="line"/>
    </contour>
  </outline>
</glyph>
<glyph name="downArrow" format="2">
  <advance width="590"/>
  <unicode hex="2193"/>
  <outline>
    <contour>
      <point x="137" y="634" type="line"/>
      <point x="137" y="319" type="line"/>
      <point x="18" y="408" type="line"/>
      <point x="18" y="242" type="line"/>
      <point x="212" y="95" type="line"/>
      <point x="406" y="242" type="line"/>
      <point x="406" y="408" type="line"/>
      <point x="287" y="319" type="line"/>
      <point x="287" y="634" type="line"/>
    </contour>
  </outline>
</glyph>
<glyph name="leftRightArrow" format="2">
  <advance width="798"/>
  <unicode hex="2194"/>
  <outline>
    <contour>
      <point x="186" y="171" type="line"/>
      <point x="352" y="171" type="line"/>
      <point x="263" y="290" type="line"/>
      <point x="554" y="290" type="line"/>
      <point x="465" y="171" type="line"/>
      <point x="631" y="171" type="line"/>
      <point x="778" y="365" type="line"/>
      <point x="631" y="559" type="line"/>
      <point x="465" y="559" type="line"/>
      <point x="554" y="440" type="line"/>
      <point x="263" y="440" type="line"/>
      <point x="352" y="559" type="line"/>
      <point x="186" y="559" type="line"/>
      <point x="39" y="365" type="line"/>
    </contour>
  </outline>
</glyph>
<glyph name="emptyset" format="2">
  <advance width="754"/>
  <unicode hex="2205"/>
  <outline>
    <contour>
      <point x="397" y="0" type="curve" smooth="yes"/>
      <point x="601" y="0"/>
      <point x="755" y="149"/>
      <point x="755" y="366" type="curve" smooth="yes"/>
      <point x="755" y="579"/>
      <point x="601" y="729"/>
      <point x="397" y="729" type="curve" smooth="yes"/>
      <point x="193" y="729"/>
      <point x="39" y="580"/>
      <point x="39" y="366" type="curve" smooth="yes"/>
      <point x="39" y="149"/>
      <point x="193" y="0"/>
    </contour>
    <contour>
      <point x="397" y="71" type="curve" smooth="yes"/>
      <point x="302" y="71"/>
      <point x="218" y="116"/>
      <point x="167" y="189" type="curve"/>
      <point x="657" y="488" type="line"/>
      <point x="672" y="451"/>
      <point x="680" y="410"/>
      <point x="680" y="366" type="curve" smooth="yes"/>
      <point x="680" y="193"/>
      <point x="557" y="71"/>
    </contour>
    <contour>
      <point x="135" y="249" type="line"/>
      <point x="122" y="284"/>
      <point x="114" y="324"/>
      <point x="114" y="366" type="curve" smooth="yes"/>
      <point x="114" y="538"/>
      <point x="239" y="658"/>
      <point x="397" y="658" type="curve" smooth="yes"/>
      <point x="491" y="658"/>
      <point x="571" y="617"/>
      <point x="623" y="548" type="curve"/>
    </contour>
  </outline>
</glyph>
<glyph name="product" format="2">
  <advance width="486"/>
  <unicode hex="220F"/>
  <outline>
    <contour>
      <point x="-62" y="-151" type="line"/>
      <point x="121" y="-151" type="line"/>
      <point x="270" y="563" type="line"/>
      <point x="337" y="563" type="line"/>
      <point x="187" y="-151" type="line"/>
      <point x="371" y="-151" type="line"/>
      <point x="556" y="729" type="line"/>
      <point x="124" y="729" type="line"/>
    </contour>
  </outline>
</glyph>
<glyph name="summation" format="2">
  <advance width="422"/>
  <unicode hex="2211"/>
  <outline>
    <contour>
      <point x="-73" y="-151" type="line"/>
      <point x="318" y="-151" type="line"/>
      <point x="353" y="11" type="line"/>
      <point x="245" y="11" type="line"/>
      <point x="176" y="9" type="line"/>
      <point x="177" y="18" type="line"/>
      <point x="372" y="284" type="line"/>
      <point x="271" y="560" type="line"/>
      <point x="272" y="569" type="line"/>
      <point x="342" y="567" type="line"/>
      <point x="469" y="567" type="line"/>
      <point x="504" y="729" type="line"/>
      <point x="113" y="729" type="line"/>
      <point x="74" y="547" type="line"/>
      <point x="165" y="306" type="line"/>
      <point x="160" y="282" type="line"/>
      <point x="-34" y="31" type="line"/>
    </contour>
  </outline>
</glyph>
<glyph name="radical" format="2">
  <advance width="582"/>
  <unicode hex="221A"/>
  <outline>
    <contour>
      <point x="76" y="-151" type="line"/>
      <point x="323" y="-151" type="line"/>
      <point x="671" y="729" type="line"/>
      <point x="477" y="729" type="line"/>
      <point x="237" y="41" type="line"/>
      <point x="229" y="41" type="line"/>
      <point x="254" y="503" type="line"/>
      <point x="57" y="503" type="line"/>
      <point x="23" y="340" type="line"/>
      <point x="93" y="340" type="line"/>
    </contour>
  </outline>
</glyph>
<glyph name="infinity" format="2">
  <advance width="900"/>
  <unicode hex="221E"/>
  <outline>
    <contour>
      <point x="269" y="121" type="curve" smooth="yes"/>
      <point x="356" y="121"/>
      <point x="427" y="166"/>
      <point x="468" y="234" type="curve"/>
      <point x="511" y="166"/>
      <point x="579" y="121"/>
      <point x="668" y="121" type="curve" smooth="yes"/>
      <point x="797" y="121"/>
      <point x="902" y="216"/>
      <point x="902" y="362" type="curve" smooth="yes"/>
      <point x="902" y="504"/>
      <point x="799" y="608"/>
      <point x="667" y="608" type="curve" smooth="yes"/>
      <point x="578" y="608"/>
      <point x="509" y="555"/>
      <point x="468" y="490" type="curve"/>
      <point x="428" y="555"/>
      <point x="358" y="608"/>
      <point x="270" y="608" type="curve" smooth="yes"/>
      <point x="138" y="608"/>
      <point x="36" y="504"/>
      <point x="36" y="362" type="curve" smooth="yes"/>
      <point x="36" y="216"/>
      <point x="140" y="121"/>
    </contour>
    <contour>
      <point x="282" y="297" type="curve" smooth="yes"/>
      <point x="239" y="297"/>
      <point x="215" y="329"/>
      <point x="215" y="366" type="curve" smooth="yes"/>
      <point x="215" y="402"/>
      <point x="240" y="433"/>
      <point x="282" y="433" type="curve" smooth="yes"/>
      <point x="327" y="433"/>
      <point x="363" y="397"/>
      <point x="383" y="366" type="curve"/>
      <point x="362" y="334"/>
      <point x="327" y="297"/>
    </contour>
    <contour>
      <point x="654" y="297" type="curve" smooth="yes"/>
      <point x="611" y="297"/>
      <point x="576" y="332"/>
      <point x="555" y="366" type="curve"/>
      <point x="574" y="397"/>
      <point x="610" y="433"/>
      <point x="654" y="433" type="curve" smooth="yes"/>
      <point x="696" y="433"/>
      <point x="721" y="402"/>
      <point x="721" y="366" type="curve" smooth="yes"/>
      <point x="721" y="329"/>
      <point x="696" y="297"/>
    </contour>
  </outline>
</glyph>
<glyph name="integral" format="2">
  <advance width="386"/>
  <unicode hex="222B"/>
  <outline>
    <contour>
      <point x="-78" y="-151" type="line"/>
      <point x="36" y="-151" type="line" smooth="yes"/>
      <point x="130" y="-151"/>
      <point x="206" y="-94"/>
      <point x="227" y="7" type="curve" smooth="yes"/>
      <point x="347" y="577" type="line"/>
      <point x="440" y="577" type="line"/>
      <point x="472" y="729" type="line"/>
      <point x="346" y="729" type="line" smooth="yes"/>
      <point x="252" y="729"/>
      <point x="178" y="672"/>
      <point x="157" y="570" type="curve" smooth="yes"/>
      <point x="37" y="0" type="line"/>
      <point x="-46" y="0" type="line"/>
    </contour>
  </outline>
</glyph>
<glyph name="approxequal" format="2">
  <advance width="480"/>
  <unicode hex="2248"/>
  <outline>
    <contour>
      <point x="307" y="162" type="curve" smooth="yes"/>
      <point x="369" y="162"/>
      <point x="449" y="204"/>
      <point x="468" y="336" type="curve"/>
      <point x="388" y="336" type="line"/>
      <point x="381" y="308"/>
      <point x="358" y="284"/>
      <point x="321" y="284" type="curve" smooth="yes"/>
      <point x="260" y="284"/>
      <point x="237" y="339"/>
      <point x="161" y="339" type="curve" smooth="yes"/>
      <point x="99" y="339"/>
      <point x="22" y="295"/>
      <point x="5" y="168" type="curve"/>
      <point x="86" y="168" type="line"/>
      <point x="88" y="192"/>
      <point x="109" y="220"/>
      <point x="140" y="220" type="curve" smooth="yes"/>
      <point x="191" y="220"/>
      <point x="217" y="162"/>
    </contour>
    <contour>
      <point x="353" y="382" type="curve" smooth="yes"/>
      <point x="415" y="382"/>
      <point x="495" y="424"/>
      <point x="513" y="556" type="curve"/>
      <point x="433" y="556" type="line"/>
      <point x="427" y="530"/>
      <point x="407" y="504"/>
      <point x="367" y="504" type="curve" smooth="yes"/>
      <point x="307" y="504"/>
      <point x="284" y="559"/>
      <point x="208" y="559" type="curve" smooth="yes"/>
      <point x="145" y="559"/>
      <point x="68" y="515"/>
      <point x="51" y="388" type="curve"/>
      <point x="132" y="388" type="line"/>
      <point x="133" y="408"/>
      <point x="152" y="440"/>
      <point x="187" y="440" type="curve" smooth="yes"/>
      <point x="237" y="440"/>
      <point x="264" y="382"/>
    </contour>
  </outline>
</glyph>
<glyph name="notequal" format="2">
  <advance width="480"/>
  <unicode hex="2260"/>
  <outline>
    <contour>
      <point x="42" y="100" type="line"/>
      <point x="164" y="100" type="line"/>
      <point x="473" y="630" type="line"/>
      <point x="352" y="630" type="line"/>
    </contour>
    <contour>
      <point x="-2" y="171" type="line"/>
      <point x="438" y="171" type="line"/>
      <point x="467" y="311" type="line"/>
      <point x="28" y="311" type="line"/>
    </contour>
    <contour>
      <point x="48" y="411" type="line"/>
      <point x="488" y="411" type="line"/>
      <point x="517" y="551" type="line"/>
      <point x="78" y="551" type="line"/>
    </contour>
  </outline>
</glyph>
<glyph name="lessequal" format="2">
  <advance width="480"/>
  <unicode hex="2264"/>
  <outline>
    <contour>
      <point x="447" y="158" type="line"/>
      <point x="483" y="328" type="line"/>
      <point x="227" y="407" type="line"/>
      <point x="227" y="416" type="line"/>
      <point x="516" y="489" type="line"/>
      <point x="552" y="659" type="line"/>
      <point x="59" y="516" type="line"/>
      <point x="15" y="307" type="line"/>
    </contour>
    <contour>
      <point x="-51" y="0" type="line"/>
      <point x="414" y="0" type="line"/>
      <point x="441" y="132" type="line"/>
      <point x="-23" y="132" type="line"/>
    </contour>
  </outline>
</glyph>
<glyph name="greaterequal" format="2">
  <advance width="480"/>
  <unicode hex="2265"/>
  <outline>
    <contour>
      <point x="-14" y="158" type="line"/>
      <point x="481" y="307" type="line"/>
      <point x="525" y="516" type="line"/>
      <point x="91" y="659" type="line"/>
      <point x="56" y="489" type="line"/>
      <point x="314" y="416" type="line"/>
      <point x="312" y="407" type="line"/>
      <point x="22" y="328" type="line"/>
    </contour>
    <contour>
      <point x="-48" y="0" type="line"/>
      <point x="417" y="0" type="line"/>
      <point x="444" y="132" type="line"/>
      <point x="-20" y="132" type="line"/>
    </contour>
  </outline>
</glyph>
<glyph name="whiteCircle" format="2">
  <advance width="731"/>
  <unicode hex="25CB"/>
  <anchor x="385" y="366" name="center"/>
  <outline>
    <contour>
      <point x="385" y="-7" type="curve" smooth="yes"/>
      <point x="565" y="-7"/>
      <point x="698" y="122"/>
      <point x="698" y="366" type="curve" smooth="yes"/>
      <point x="698" y="610"/>
      <point x="565" y="739"/>
      <point x="385" y="739" type="curve" smooth="yes"/>
      <point x="205" y="739"/>
      <point x="72" y="610"/>
      <point x="72" y="366" type="curve" smooth="yes"/>
      <point x="72" y="122"/>
      <point x="205" y="-7"/>
    </contour>
    <contour>
      <point x="385" y="61" type="curve" smooth="yes"/>
      <point x="213" y="61"/>
      <point x="144" y="192"/>
      <point x="144" y="366" type="curve" smooth="yes"/>
      <point x="144" y="540"/>
      <point x="213" y="671"/>
      <point x="385" y="671" type="curve" smooth="yes"/>
      <point x="557" y="671"/>
      <point x="626" y="540"/>
      <point x="626" y="366" type="curve" smooth="yes"/>
      <point x="626" y="192"/>
      <point x="557" y="61"/>
    </contour>
  </outline>
</glyph>
<glyph name="dottedCircle" format="2">
  <advance width="733"/>
  <unicode hex="25CC"/>
  <anchor x="311" y="0" name="bottom"/>
  <anchor x="386" y="365" name="center"/>
  <anchor x="311" y="0" name="ogonek"/>
  <anchor x="461" y="729" name="top"/>
  <anchor x="461" y="729" name="topright"/>
  <outline>
    <contour>
      <point x="386" y="589" type="curve" smooth="yes"/>
      <point x="412" y="589"/>
      <point x="431" y="608"/>
      <point x="431" y="634" type="curve" smooth="yes"/>
      <point x="431" y="660"/>
      <point x="412" y="679"/>
      <point x="386" y="679" type="curve" smooth="yes"/>
      <point x="360" y="679"/>
      <point x="341" y="660"/>
      <point x="341" y="634" type="curve" smooth="yes"/>
      <point x="341" y="608"/>
      <point x="360" y="589"/>
    </contour>
    <contour>
      <point x="521" y="553" type="curve" smooth="yes"/>
      <point x="547" y="553"/>
      <point x="566" y="572"/>
      <point x="566" y="598" type="curve" smooth="yes"/>
      <point x="566" y="624"/>
      <point x="547" y="643"/>
      <point x="521" y="643" type="curve" smooth="yes"/>
      <point x="495" y="643"/>
      <point x="476" y="624"/>
      <point x="476" y="598" type="curve" smooth="yes"/>
      <point x="476" y="572"/>
      <point x="495" y="553"/>
    </contour>
    <contour>
      <point x="620" y="454" type="curve" smooth="yes"/>
      <point x="646" y="454"/>
      <point x="665" y="473"/>
      <point x="665" y="499" type="curve" smooth="yes"/>
      <point x="665" y="525"/>
      <point x="646" y="544"/>
      <point x="620" y="544" type="curve" smooth="yes"/>
      <point x="594" y="544"/>
      <point x="575" y="525"/>
      <point x="575" y="499" type="curve" smooth="yes"/>
      <point x="575" y="473"/>
      <point x="594" y="454"/>
    </contour>
    <contour>
      <point x="656" y="320" type="curve" smooth="yes"/>
      <point x="682" y="320"/>
      <point x="701" y="338"/>
      <point x="701" y="365" type="curve" smooth="yes"/>
      <point x="701" y="391"/>
      <point x="682" y="409"/>
      <point x="656" y="409" type="curve" smooth="yes"/>
      <point x="630" y="409"/>
      <point x="611" y="391"/>
      <point x="611" y="365" type="curve" smooth="yes"/>
      <point x="611" y="338"/>
      <point x="630" y="320"/>
    </contour>
    <contour>
      <point x="620" y="185" type="curve" smooth="yes"/>
      <point x="646" y="185"/>
      <point x="665" y="204"/>
      <point x="665" y="230" type="curve" smooth="yes"/>
      <point x="665" y="256"/>
      <point x="646" y="275"/>
      <point x="620" y="275" type="curve" smooth="yes"/>
      <point x="594" y="275"/>
      <point x="575" y="256"/>
      <point x="575" y="230" type="curve" smooth="yes"/>
      <point x="575" y="204"/>
      <point x="594" y="185"/>
    </contour>
    <contour>
      <point x="521" y="86" type="curve" smooth="yes"/>
      <point x="547" y="86"/>
      <point x="566" y="105"/>
      <point x="566" y="131" type="curve" smooth="yes"/>
      <point x="566" y="157"/>
      <point x="547" y="176"/>
      <point x="521" y="176" type="curve" smooth="yes"/>
      <point x="495" y="176"/>
      <point x="476" y="157"/>
      <point x="476" y="131" type="curve" smooth="yes"/>
      <point x="476" y="105"/>
      <point x="495" y="86"/>
    </contour>
    <contour>
      <point x="386" y="50" type="curve" smooth="yes"/>
      <point x="412" y="50"/>
      <point x="431" y="69"/>
      <point x="431" y="95" type="curve" smooth="yes"/>
      <point x="431" y="121"/>
      <point x="412" y="140"/>
      <point x="386" y="140" type="curve" smooth="yes"/>
      <point x="360" y="140"/>
      <point x="341" y="121"/>
      <point x="341" y="95" type="curve" smooth="yes"/>
      <point x="341" y="69"/>
      <point x="360" y="50"/>
    </contour>
    <contour>
      <point x="251" y="86" type="curve" smooth="yes"/>
      <point x="277" y="86"/>
      <point x="296" y="105"/>
      <point x="296" y="131" type="curve" smooth="yes"/>
      <point x="296" y="157"/>
      <point x="277" y="176"/>
      <point x="251" y="176" type="curve" smooth="yes"/>
      <point x="225" y="176"/>
      <point x="206" y="157"/>
      <point x="206" y="131" type="curve" smooth="yes"/>
      <point x="206" y="105"/>
      <point x="225" y="86"/>
    </contour>
    <contour>
      <point x="152" y="185" type="curve" smooth="yes"/>
      <point x="178" y="185"/>
      <point x="197" y="204"/>
      <point x="197" y="230" type="curve" smooth="yes"/>
      <point x="197" y="256"/>
      <point x="178" y="275"/>
      <point x="152" y="275" type="curve" smooth="yes"/>
      <point x="126" y="275"/>
      <point x="107" y="256"/>
      <point x="107" y="230" type="curve" smooth="yes"/>
      <point x="107" y="204"/>
      <point x="126" y="185"/>
    </contour>
    <contour>
      <point x="116" y="320" type="curve" smooth="yes"/>
      <point x="142" y="320"/>
      <point x="161" y="338"/>
      <point x="161" y="365" type="curve" smooth="yes"/>
      <point x="161" y="391"/>
      <point x="142" y="409"/>
      <point x="116" y="409" type="curve" smooth="yes"/>
      <point x="90" y="409"/>
      <point x="71" y="391"/>
      <point x="71" y="365" type="curve" smooth="yes"/>
      <point x="71" y="338"/>
      <point x="90" y="320"/>
    </contour>
    <contour>
      <point x="152" y="454" type="curve" smooth="yes"/>
      <point x="178" y="454"/>
      <point x="197" y="473"/>
      <point x="197" y="499" type="curve" smooth="yes"/>
      <point x="197" y="525"/>
      <point x="178" y="544"/>
      <point x="152" y="544" type="curve" smooth="yes"/>
      <point x="126" y="544"/>
      <point x="107" y="525"/>
      <point x="107" y="499" type="curve" smooth="yes"/>
      <point x="107" y="473"/>
      <point x="126" y="454"/>
    </contour>
    <contour>
      <point x="251" y="553" type="curve" smooth="yes"/>
      <point x="277" y="553"/>
      <point x="296" y="572"/>
      <point x="296" y="598" type="curve" smooth="yes"/>
      <point x="296" y="624"/>
      <point x="277" y="643"/>
      <point x="251" y="643" type="curve" smooth="yes"/>
      <point x="225" y="643"/>
      <point x="206" y="624"/>
      <point x="206" y="598" type="curve" smooth="yes"/>
      <point x="206" y="572"/>
      <point x="225" y="553"/>
    </contour>
  </outline>
</glyph>
<glyph name="blackCircle" format="2">
  <advance width="731"/>
  <unicode hex="25CF"/>
  <anchor x="385" y="366" name="center"/>
  <outline>
    <contour>
      <point x="385" y="-7" type="curve" smooth="yes"/>
      <point x="205" y="-7"/>
      <point x="72" y="122"/>
      <point x="72" y="366" type="curve" smooth="yes"/>
      <point x="72" y="610"/>
      <point x="205" y="739"/>
      <point x="385" y="739" type="curve" smooth="yes"/>
      <point x="565" y="739"/>
      <point x="698" y="610"/>
      <point x="698" y="366" type="curve" smooth="yes"/>
      <point x="698" y="122"/>
      <point x="565" y="-7"/>
    </contour>
  </outline>
</glyph>
<glyph name="checkmark" format="2">
  <advance width="769"/>
  <unicode hex="2713"/>
  <outline>
    <contour>
      <point x="282" y="67" type="line"/>
      <point x="789" y="533" type="line"/>
      <point x="688" y="658" type="line"/>
      <point x="302" y="299" type="line"/>
      <point x="169" y="463" type="line"/>
      <point x="49" y="356" type="line"/>
    </contour>
  </outline>
</glyph>
<glyph name="fi" format="2">
  <advance width="543"/>
  <unicode hex="FB01"/>
  <outline>
    <contour>
      <point x="1" y="0" type="line"/>
      <point x="176" y="0" type="line"/>
      <point x="260" y="401" type="line"/>
      <point x="367" y="401" type="line"/>
      <point x="284" y="0" type="line"/>
      <point x="460" y="0" type="line"/>
      <point x="573" y="541" type="line"/>
      <point x="288" y="541" type="line"/>
      <point x="293" y="563" type="line" smooth="yes"/>
      <point x="301" y="597"/>
      <point x="309" y="606"/>
      <point x="335" y="606" type="curve" smooth="yes"/>
      <point x="365" y="606" type="line"/>
      <point x="390" y="729" type="line"/>
      <point x="314" y="729" type="line" smooth="yes"/>
      <point x="196" y="729"/>
      <point x="142" y="675"/>
      <point x="121" y="576" type="curve" smooth="yes"/>
      <point x="113" y="539" type="line"/>
      <point x="67" y="541" type="line"/>
      <point x="38" y="399" type="line"/>
      <point x="85" y="402" type="line"/>
    </contour>
    <contour>
      <point x="504" y="586" type="curve" smooth="yes"/>
      <point x="564" y="586"/>
      <point x="603" y="621"/>
      <point x="603" y="673" type="curve" smooth="yes"/>
      <point x="603" y="720"/>
      <point x="572" y="751"/>
      <point x="518" y="751" type="curve" smooth="yes"/>
      <point x="458" y="751"/>
      <point x="419" y="716"/>
      <point x="419" y="664" type="curve" smooth="yes"/>
      <point x="419" y="617"/>
      <point x="450" y="586"/>
    </contour>
  </outline>
</glyph>
<glyph name="fl" format="2">
  <advance width="534"/>
  <unicode hex="FB02"/>
  <outline>
    <contour>
      <point x="1" y="0" type="line"/>
      <point x="176" y="0" type="line"/>
      <point x="261" y="399" type="line"/>
      <point x="360" y="399" type="line"/>
      <point x="276" y="0" type="line"/>
      <point x="452" y="0" type="line"/>
      <point x="603" y="729" type="line"/>
      <point x="428" y="729" type="line"/>
      <point x="388" y="541" type="line"/>
      <point x="289" y="541" type="line"/>
      <point x="293" y="563" type="line" smooth="yes"/>
      <point x="301" y="597"/>
      <point x="309" y="606"/>
      <point x="335" y="606" type="curve" smooth="yes"/>
      <point x="365" y="606" type="line"/>
      <point x="390" y="729" type="line"/>
      <point x="314" y="729" type="line" smooth="yes"/>
      <point x="196" y="729"/>
      <point x="142" y="675"/>
      <point x="121" y="576" type="curve" smooth="yes"/>
      <point x="113" y="539" type="line"/>
      <point x="67" y="541" type="line"/>
      <point x="38" y="399" type="line"/>
      <point x="85" y="402" type="line"/>
    </contour>
  </outline>
</glyph>
<glyph name="G.ss06" format="2">
  <advance width="481"/>
  <anchor x="207" y="0" name="bottom"/>
  <anchor x="319" y="729" name="top"/>
  <outline>
    <contour>
      <point x="205" y="-9" type="curve" smooth="yes"/>
      <point x="320" y="-9"/>
      <point x="419" y="58"/>
      <point x="454" y="229" type="curve" smooth="yes"/>
      <point x="490" y="397" type="line"/>
      <point x="273" y="397" type="line"/>
      <point x="245" y="264" type="line"/>
      <point x="314" y="264" type="line"/>
      <point x="296" y="282" type="line"/>
      <point x="289" y="241" type="line" smooth="yes"/>
      <point x="274" y="171"/>
      <point x="254" y="147"/>
      <point x="226" y="147" type="curve" smooth="yes"/>
      <point x="173" y="147"/>
      <point x="187" y="232"/>
      <point x="215" y="369" type="curve" smooth="yes"/>
      <point x="245" y="516"/>
      <point x="269" y="582"/>
      <point x="309" y="582" type="curve" smooth="yes"/>
      <point x="344" y="582"/>
      <point x="348" y="546"/>
      <point x="336" y="464" type="curve"/>
      <point x="502" y="464" type="line"/>
      <point x="529" y="647"/>
      <point x="478" y="739"/>
      <point x="321" y="739" type="curve" smooth="yes"/>
      <point x="169" y="739"/>
      <point x="88" y="614"/>
      <point x="39" y="382" type="curve" smooth="yes"/>
      <point x="-7" y="163"/>
      <point x="3" y="-9"/>
    </contour>
  </outline>
</glyph>
<glyph name="I.ss02" format="2">
  <advance width="360"/>
  <anchor x="125" y="0" name="bottom"/>
  <anchor x="287" y="0" name="ogonek"/>
  <anchor x="275" y="729" name="top"/>
  <anchor x="122" y="729" name="topleft"/>
  <outline>
    <contour>
      <point x="59" y="143" type="line"/>
      <point x="243" y="143" type="line"/>
      <point x="335" y="586" type="line"/>
      <point x="151" y="586" type="line"/>
    </contour>
    <contour>
      <point x="80" y="570" type="line"/>
      <point x="405" y="570" type="line"/>
      <point x="437" y="729" type="line"/>
      <point x="112" y="729" type="line"/>
    </contour>
    <contour>
      <point x="-38" y="0" type="line"/>
      <point x="287" y="0" type="line"/>
      <point x="319" y="159" type="line"/>
      <point x="-6" y="159" type="line"/>
    </contour>
  </outline>
</glyph>
